<svg width="214" height="193" viewBox="0 0 214 193" fill="none" xmlns="http://www.w3.org/2000/svg">
<g id="Frame 1000019115">
<g id="Group 1000019217">
<path id="Vector" d="M107 193C166.094 193 214 187.937 214 181.691C214 175.446 166.094 170.383 107 170.383C47.9055 170.383 0 175.446 0 181.691C0 187.937 47.9055 193 107 193Z" fill="#E7E7E5"/>
<g id="Group">
<path id="Vector_2" d="M50.1505 159.961C50.1505 159.961 46.8572 160.399 45.4556 159.961C44.0541 159.524 44.5764 153.137 43.1375 153.004C39.8336 152.7 40.3931 161.182 41.8 162.968C43.2068 164.755 50.4489 163.998 50.4489 163.998L50.1505 159.961Z" fill="#00B0DC"/>
<path id="Vector_3" opacity="0.2" d="M50.1505 159.961C50.1505 159.961 46.8572 160.399 45.4556 159.961C44.0541 159.524 44.5764 153.137 43.1375 153.004C39.8336 152.7 40.3931 161.182 41.8 162.968C43.2068 164.755 50.4489 163.998 50.4489 163.998L50.1505 159.961Z" fill="white"/>
<path id="Vector_4" d="M50.4277 175.007C50.4277 175.007 45.5517 131.693 51.3709 131.192C57.1901 130.69 58.597 145.966 56.3481 174.453L50.4277 175.007Z" fill="#00B0DC"/>
<path id="Vector_5" opacity="0.3" d="M50.4277 175.007C50.4277 175.007 45.5517 131.693 51.3709 131.192C57.1901 130.69 58.597 145.966 56.3481 174.453L50.4277 175.007Z" fill="white"/>
<g id="Group_2">
<path id="Vector_6" d="M43.5908 169.761H62.7378L61.1391 182.019H45.1895L43.5908 169.761Z" fill="#263238"/>
</g>
<path id="Vector_7" d="M56.2095 145.395C56.2095 145.395 61.5118 145.678 61.6717 145.395C61.8315 145.112 61.8316 138.981 64.0804 139.344C66.3292 139.706 65.3433 147.085 64.0804 147.944C62.8174 148.802 56.2095 149.266 56.2095 149.266C56.2095 149.266 55.3196 146.541 56.2095 145.395Z" fill="#00B0DC"/>
<path id="Vector_8" opacity="0.4" d="M56.2095 145.395C56.2095 145.395 61.5118 145.678 61.6717 145.395C61.8315 145.112 61.8316 138.981 64.0804 139.344C66.3292 139.706 65.3433 147.085 64.0804 147.944C62.8174 148.802 56.2095 149.266 56.2095 149.266C56.2095 149.266 55.3196 146.541 56.2095 145.395Z" fill="white"/>
<g id="Group_3">
<path id="Vector_9" d="M52.8463 171.051C52.1162 164.451 51.5034 157.839 51.0664 151.207C50.8426 147.89 50.688 144.574 50.6241 141.247C50.5974 139.584 50.5974 137.92 50.6827 136.257C50.7253 135.425 50.7893 134.588 50.9172 133.756C50.9865 133.34 51.0611 132.924 51.1996 132.508C51.2795 132.3 51.3488 132.093 51.5034 131.895C51.5353 131.842 51.578 131.794 51.6366 131.751C51.6845 131.703 51.7378 131.661 51.8178 131.629C51.8551 131.613 51.8924 131.597 51.9297 131.586C51.9723 131.581 52.0203 131.581 52.0682 131.586C52.1695 131.586 52.2281 131.634 52.3027 131.671C52.5425 131.853 52.6278 132.066 52.7237 132.268C52.809 132.471 52.8782 132.679 52.9369 132.882C53.0541 133.292 53.1447 133.703 53.2193 134.113C53.3738 134.94 53.4804 135.766 53.5763 136.592C53.7628 138.245 53.8907 139.903 54.0026 141.562C54.2105 144.878 54.3544 148.2 54.429 151.516C54.5142 154.838 54.5622 158.159 54.5835 161.475C54.5942 164.797 54.5835 168.119 54.5462 171.435C54.5142 168.113 54.4556 164.797 54.3757 161.475C54.3117 158.159 54.2265 154.838 54.1039 151.521C53.976 148.205 53.8481 144.889 53.619 141.578C53.5071 139.925 53.3685 138.272 53.1767 136.63C53.0807 135.809 52.9688 134.988 52.8143 134.183C52.7397 133.777 52.6491 133.377 52.5372 132.988C52.4786 132.796 52.4146 132.604 52.34 132.428C52.2654 132.258 52.1588 132.082 52.0682 132.013C52.0469 132.013 52.0309 131.981 52.0203 131.991C52.0149 131.991 52.0096 131.991 52.0043 131.986C51.9936 131.991 51.983 131.997 51.9776 132.002C51.9563 132.002 51.9297 132.023 51.903 132.05C51.8817 132.087 51.8551 132.114 51.8338 132.151C51.7272 132.279 51.6579 132.466 51.5886 132.647C51.4607 133.02 51.3861 133.42 51.3168 133.825C51.189 134.636 51.125 135.457 51.077 136.283C50.9865 137.936 50.9811 139.594 51.0024 141.247C51.0451 144.563 51.2103 147.88 51.3808 151.191C51.562 154.507 51.7911 157.818 52.0416 161.124C52.2814 164.435 52.5478 167.746 52.8463 171.051Z" fill="#00B0DC"/>
</g>
<g id="Group_4">
<path id="Vector_10" d="M56.876 146.845L59.9561 146.611C60.4677 146.563 60.9793 146.525 61.4855 146.456C61.736 146.424 61.9918 146.392 62.2263 146.334C62.3382 146.307 62.4607 146.27 62.5353 146.232C62.5353 146.227 62.5726 146.206 62.5513 146.222C62.5407 146.232 62.546 146.232 62.5353 146.254C62.5247 146.27 62.53 146.318 62.5353 146.318C62.5247 146.238 62.5087 146.136 62.5087 146.072C62.5673 144.99 62.7805 143.998 62.999 142.98C63.2334 141.972 63.4572 140.959 63.8303 139.994C63.7184 140.501 63.6384 141.007 63.5585 141.519L63.308 143.044L63.0789 144.569C63.0096 145.07 62.9297 145.592 62.919 146.072C62.9137 146.136 62.9297 146.163 62.9244 146.211C62.9297 146.243 62.935 146.318 62.9244 146.371C62.9137 146.424 62.887 146.451 62.8604 146.488C62.8018 146.563 62.7698 146.563 62.7272 146.6C62.5726 146.68 62.4394 146.707 62.3062 146.739C62.0397 146.797 61.7786 146.829 61.5228 146.856C61.0006 146.904 60.4837 146.936 59.9668 146.936C58.9383 146.947 57.9045 146.931 56.876 146.845Z" fill="#00B0DC"/>
</g>
<g id="Group_5">
<path id="Vector_11" d="M56.876 148.264C58.0324 148.066 59.1941 147.912 60.3558 147.741L62.093 147.496C62.6526 147.405 63.2814 147.325 63.7557 147.165C63.777 147.16 63.8676 147.048 63.9102 146.931C63.9635 146.813 64.0061 146.675 64.0434 146.542C64.118 146.27 64.1713 145.987 64.2193 145.699C64.3205 145.129 64.3738 144.547 64.4484 143.966C64.5763 142.804 64.6723 141.636 64.7842 140.469C64.8428 141.642 64.8321 142.82 64.7682 143.993C64.7469 144.579 64.6776 145.166 64.5976 145.758C64.555 146.051 64.5071 146.344 64.4324 146.643C64.3951 146.792 64.3525 146.936 64.2886 147.091C64.2193 147.235 64.1713 147.405 63.9315 147.549C63.5958 147.672 63.324 147.699 63.0256 147.752L62.1517 147.874C61.5655 147.944 60.9846 148.024 60.3984 148.061C59.2207 148.162 58.0483 148.237 56.876 148.264Z" fill="#00B0DC"/>
</g>
<g id="Group_6">
<path id="Vector_12" d="M48.5142 161.15C47.5337 161.204 46.5585 161.182 45.578 161.092C45.0877 161.044 44.5974 160.985 44.1018 160.825C44.0379 160.798 43.9846 160.788 43.91 160.75C43.8247 160.708 43.7608 160.649 43.7128 160.591C43.6063 160.473 43.5476 160.351 43.489 160.228C43.3824 159.983 43.3185 159.737 43.2599 159.492C43.052 158.511 42.9881 157.53 42.9721 156.549C42.9561 155.568 42.9774 154.587 43.0734 153.611C43.148 154.587 43.2066 155.563 43.2918 156.533C43.3824 157.498 43.4624 158.474 43.6649 159.402C43.7768 159.839 43.8834 160.388 44.2404 160.457C44.6667 160.617 45.1517 160.686 45.6259 160.777C46.5745 160.926 47.5444 161.028 48.5142 161.15Z" fill="#00B0DC"/>
</g>
<g id="Group_7">
<path id="Vector_13" d="M42.0825 154.379L42.4289 157.786C42.5515 158.916 42.6474 160.057 42.8605 161.161C42.9085 161.438 42.9671 161.71 43.0471 161.966C43.0897 162.083 43.143 162.222 43.1909 162.27L43.3242 162.366C43.3775 162.392 43.4414 162.419 43.5 162.446C43.9903 162.648 44.5658 162.723 45.12 162.824C46.2391 162.995 47.3742 163.102 48.5146 163.214C47.3689 163.272 46.2285 163.251 45.0827 163.139C44.5072 163.08 43.937 163.006 43.3615 162.792C43.2869 162.76 43.2176 162.734 43.143 162.696C43.0684 162.648 42.9938 162.6 42.9245 162.542C42.7753 162.382 42.738 162.238 42.674 162.094C42.5728 161.806 42.5088 161.523 42.4502 161.235C42.2637 160.089 42.1625 158.953 42.1092 157.807C42.0612 156.666 42.0399 155.52 42.0825 154.379Z" fill="#00B0DC"/>
</g>
</g>
<g id="Group_8">
<path id="Vector_14" d="M132.473 171.831C132.473 171.831 131.838 175.415 131.526 178.965C131.404 180.352 132.477 181.557 133.874 181.614C138.618 181.811 148.765 182.194 152.407 182.032C152.954 182.008 153.312 181.45 153.109 180.942C152.939 180.517 152.613 180.173 152.195 179.982L135.433 172.307L132.473 171.831Z" fill="#090F42"/>
<path id="Vector_15" d="M131.952 169.724L132.463 174.012C132.463 174.012 135.4 175.374 137.404 173.841L136.188 169.061L131.952 169.724Z" fill="#E7CAAD"/>
<path id="Vector_16" d="M132.336 89.0977C132.116 90.2181 131.152 144.984 137.027 169.527C137.124 169.927 136.919 170.34 136.537 170.496C135.635 170.863 133.869 171.395 131.752 171.465C131.096 171.487 130.508 171.063 130.323 170.436C128.644 164.742 120.595 136.212 119.545 108.958C118.372 78.5045 119.545 107.922 119.545 107.922L120.233 89.0977H132.336Z" fill="url(#paint0_linear_257_5046)"/>
<path id="Vector_17" d="M113.19 173.7C113.19 173.7 112.179 175.51 111.199 180.32C111.022 181.188 111.632 182.02 112.517 182.107C114.084 182.26 116.494 182.457 118.427 182.444C119.317 182.438 120.012 181.666 119.904 180.784C119.691 179.029 119.023 176.149 116.964 173.903L113.19 173.7Z" fill="#090F42"/>
<path id="Vector_18" d="M112.303 168.184L113.496 174.669C113.496 174.669 114.676 175.543 117.01 174.909L116.44 167.932L112.303 168.184Z" fill="#E7CAAD"/>
<path id="Vector_19" d="M109.078 90.7789C104.272 119.674 110.121 162.196 112.093 170.519C112.213 171.028 112.627 171.419 113.145 171.505C114.025 171.65 115.475 171.769 116.903 171.356C117.395 171.213 117.741 170.771 117.762 170.261C118.027 163.532 117.549 122.226 122.027 105.901C122.254 105.073 122.761 104.352 123.463 103.856L132.154 97.6997L132.82 87.749L109.078 90.7789Z" fill="url(#paint1_linear_257_5046)"/>
<g id="Group_9">
<path id="Vector_20" d="M139.701 36.0272C125.299 35.7907 109.409 39.7945 109.409 39.7945C105.116 64.7505 108.658 93.535 108.658 93.535C119.807 96.4484 132.384 91.7541 132.384 91.7541C134.237 81.323 142.883 51.9669 142.883 51.9669C149.92 51.0974 155.717 49.0739 160.49 46.3995C156.849 42.1939 155.132 36.8439 154.387 33.6807C149.296 35.2587 144.143 36.1005 139.701 36.0272Z" fill="#004556"/>
<path id="Vector_21" d="M182.242 14.8937C180.827 13.1909 179.037 13.9967 179.037 13.9967C176.918 22.9158 165.806 30.1477 154.389 33.6831C155.135 36.8463 156.851 42.1964 160.491 46.4019C179.439 35.7871 182.242 14.8937 182.242 14.8937Z" fill="#E7CAAD"/>
</g>
<g id="Group_10">
<path id="Vector_22" d="M181.898 15.326C182.047 15.7943 180.332 16.5089 179.322 14.591C179.287 13.6723 178.726 9.73455 179.278 8.98638C182.213 4.99817 187.905 0 187.905 0C188.867 0.945113 188.075 1.87461 188.075 1.87461L185.313 4.73998C185.89 5.77996 186.596 6.65783 186.925 7.91517C187.174 8.86749 187.022 9.88586 186.539 10.7529C186.054 11.6224 185.393 12.7536 184.768 13.6387C183.585 15.314 181.898 15.326 181.898 15.326Z" fill="#E7C39F"/>
<path id="Vector_23" d="M184.106 6.6001L181.589 8.7257L180.799 10.8417L183.043 13.3216C183.043 13.3216 183.797 9.1232 184.358 8.21532C184.918 7.30743 184.628 6.8655 184.106 6.6001Z" fill="#E7C39F"/>
</g>
<path id="Vector_24" d="M114.933 53.6892L109.408 39.7959C109.408 39.7959 95.9565 48.9024 93.7446 60.4479C96.2868 60.634 100.912 61.2933 105.439 63.5702C106.432 58.1181 114.933 53.6892 114.933 53.6892Z" fill="#004556"/>
<path id="Vector_25" d="M126.687 66.7621C126.687 66.7621 111.584 75.2657 106.487 68.0051C105.429 66.4967 105.176 64.9992 105.438 63.5701C100.91 61.2932 96.2852 60.6339 93.743 60.4478C93.0765 63.928 93.4284 67.6304 95.4812 71.3724C104.408 87.6411 128.686 70.4729 128.686 70.4729L126.687 66.7621Z" fill="#E7CAAD"/>
<g id="Group_11">
<path id="Vector_26" d="M124.873 77.5211L133.116 48.8423C133.21 48.5168 133.488 48.279 133.826 48.2406C135.319 48.0677 139.646 47.5801 144.643 47.1586C150.661 46.6518 157.65 46.2399 161.827 46.5906C162.421 46.6398 162.779 47.2655 162.515 47.7987C160.14 52.5855 150.371 72.0594 145.478 78.4374C145.315 78.6488 145.066 78.7725 144.798 78.7701L125.674 78.5923C125.118 78.5851 124.72 78.0531 124.873 77.5211Z" fill="#002028"/>
<path id="Vector_27" d="M145.498 44.6713L151.475 43.6794C151.793 43.6265 152.053 43.9292 151.952 44.2354L151.36 46.0212C151.308 46.1761 151.172 46.289 151.009 46.3106L145.26 47.0755C144.962 47.1152 144.717 46.8462 144.785 46.5544L145.151 44.9956C145.191 44.8274 145.327 44.699 145.498 44.6713Z" fill="#00B0DC"/>
<path id="Vector_28" d="M141.023 49.7115L141.515 47.156C141.564 46.9002 141.776 46.7057 142.037 46.6793L154.107 45.4591C154.514 45.4183 154.839 45.7894 154.744 46.1845L153.976 49.3681C153.914 49.6227 153.691 49.8064 153.43 49.8196L141.634 50.4117C141.252 50.4321 140.951 50.0874 141.023 49.7115Z" fill="#00B0DC"/>
<path id="Vector_29" d="M126.864 70.5916C126.864 70.5916 125.716 65.8876 126.18 64.2184C126.643 62.5491 127.541 60.4043 130.531 60.881C133.523 61.3578 137.051 62.6128 137.051 62.6128C137.051 62.6128 136.873 64.7864 134.599 64.0851L136.01 65.1719C136.01 65.1719 135.808 66.912 133.888 65.9825L135.2 67.4236C135.2 67.4236 134.375 68.8527 132.962 67.9364C131.548 67.0201 130.871 71.1584 126.864 70.5916Z" fill="#E7C39F"/>
</g>
<path id="Vector_30" d="M125.113 24.3784L120.53 37.5812C120.454 37.7997 120.545 38.0423 120.748 38.154C121.997 38.8421 126.498 40.8308 131.921 37.4046C132.486 37.048 132.871 36.4655 132.956 35.805L134.44 24.3784H125.113Z" fill="#E7CAAD"/>
<g id="Group_12">
<path id="Vector_31" d="M135.083 12.1523C135.083 12.1523 140.115 21.5891 139.471 25.4019C138.826 29.2136 132.589 28.9398 127.143 25.8439L123.338 15.6542L135.083 12.1523Z" fill="#E7CAAD"/>
<path id="Vector_32" d="M127.384 20.8395C127.605 20.7422 127.686 20.472 127.554 20.2703C127.15 19.6566 126.395 18.4053 126.154 17.3089C126.154 17.3089 125.25 16.7312 128.456 15.9674C131.664 15.2025 136.446 14.016 137.451 11.2959C138.431 8.64431 135.856 1.97568 131.747 7.28969C131.59 7.49144 131.284 7.49625 131.129 7.2945C130.455 6.42144 128.684 4.60807 126.226 5.7069C123.925 6.73487 123.667 8.41494 123.699 9.26158C123.708 9.51017 123.484 9.70471 123.238 9.65788C122.075 9.43691 119.285 9.24717 117.982 12.0993C116.909 14.4495 117.606 15.7789 118.241 16.4298C118.447 16.6411 118.357 16.9882 118.074 17.0735C117.31 17.3065 116.323 17.9525 116.422 19.7371C116.558 22.2037 119.327 21.9864 120.115 21.8735C120.244 21.8555 120.374 21.8987 120.462 21.996C121.139 22.7406 124.183 25.9049 127.478 26.2856C127.763 26.3181 127.984 26.0382 127.891 25.7668L126.464 21.6369C126.398 21.4448 126.489 21.2346 126.676 21.153L127.384 20.8395Z" fill="url(#paint2_linear_257_5046)"/>
<path id="Vector_33" d="M127.957 21.4269C127.957 21.4269 124.375 18.9783 124.112 21.0403C123.851 23.1022 127.339 24.0281 129.066 23.2583L127.957 21.4269Z" fill="#EBC198"/>
</g>
</g>
</g>
</g>
<defs>
<linearGradient id="paint0_linear_257_5046" x1="156.709" y1="91.6508" x2="104.73" y2="162.363" gradientUnits="userSpaceOnUse">
<stop stop-color="#010528"/>
<stop offset="1" stop-color="#3D135F"/>
</linearGradient>
<linearGradient id="paint1_linear_257_5046" x1="147.4" y1="84.8084" x2="95.4216" y2="155.52" gradientUnits="userSpaceOnUse">
<stop stop-color="#02233A"/>
<stop offset="1" stop-color="#2F0F4A"/>
</linearGradient>
<linearGradient id="paint2_linear_257_5046" x1="114.32" y1="3.9077" x2="134.059" y2="19.5564" gradientUnits="userSpaceOnUse">
<stop stop-color="#2B3582"/>
<stop offset="1" stop-color="#150E42"/>
</linearGradient>
</defs>
</svg>
