<svg width="20" height="24" viewBox="0 0 20 24" fill="none" xmlns="http://www.w3.org/2000/svg">
<path d="M9.71184 24C7.32423 24 5.71904 22.6123 5.71904 20.5475V19.987H13.7046V20.5475C13.7046 22.6123 12.1062 24 9.71184 24ZM6.89827 21.108C7.18748 22.4015 8.48777 22.8791 9.71184 22.8791C10.9359 22.8791 12.2362 22.4015 12.5254 21.108H6.89827ZM19.4237 19.4243H0V17.4873L2.28896 15.2006V8.5198C2.40941 7.12082 2.96469 5.79462 3.87695 4.72718C4.7892 3.65973 6.01267 2.90457 7.37579 2.5676C7.387 1.98023 7.51703 1.22247 8.02146 0.675454C8.23821 0.448298 8.50145 0.270613 8.79318 0.154538C9.08492 0.0384633 9.39827 -0.0132646 9.71184 0.00288902C10.0254 -0.0131157 10.3387 0.0386807 10.6304 0.154747C10.9221 0.270812 11.1854 0.448418 11.4022 0.675454C11.9066 1.22471 12.0367 1.98023 12.0479 2.5676C13.411 2.90457 14.6345 3.65973 15.5467 4.72718C16.459 5.79462 17.0143 7.12082 17.1347 8.5198V15.2006L19.4237 17.4873V19.4243ZM1.12094 18.3034H18.3027V17.9514L16.0138 15.6647V8.59378C15.9048 7.36257 15.391 6.20216 14.5525 5.29398C13.7141 4.38579 12.5984 3.78102 11.3798 3.57421L10.8709 3.48677L10.9157 2.97114C10.9426 2.65055 10.965 1.8502 10.5772 1.43097C10.463 1.32118 10.3268 1.23685 10.1777 1.18352C10.0285 1.13019 9.86975 1.10908 9.71184 1.12159C9.55392 1.10908 9.39515 1.13019 9.24599 1.18352C9.09683 1.23685 8.96066 1.32118 8.84647 1.43097C8.45862 1.85693 8.48104 2.65055 8.50794 2.97114L8.55278 3.48677L8.04387 3.57421C6.82528 3.78102 5.70955 4.38579 4.87113 5.29398C4.03271 6.20216 3.51886 7.36257 3.4099 8.59378V15.6647L1.12094 17.9514V18.3034Z" fill="#00B0DC"/>
<path d="M13.364 8.53125H6.05992C5.61666 8.53125 5.25732 8.89008 5.25732 9.33272C5.25732 9.77536 5.61666 10.1342 6.05992 10.1342H13.364C13.8072 10.1342 14.1666 9.77536 14.1666 9.33272C14.1666 8.89008 13.8072 8.53125 13.364 8.53125Z" fill="#00B0DC"/>
<path d="M8.91162 5.67949V12.9835C8.91162 13.4268 9.27045 13.7861 9.71309 13.7861C10.1557 13.7861 10.5146 13.4268 10.5146 12.9835V5.67949C10.5146 5.23623 10.1557 4.87689 9.71309 4.87689C9.27045 4.87689 8.91162 5.23623 8.91162 5.67949Z" fill="#00B0DC"/>
</svg>
