<svg width="106" height="109" viewBox="0 0 106 109" fill="none" xmlns="http://www.w3.org/2000/svg">
<g id="Group 1000019094">
<path id="Vector" d="M41.7931 108.804C8.65363 108.804 6.07067 107.468 6.07067 105.533C6.07067 103.598 8.65363 101.797 41.7931 101.797C74.9326 101.797 79.1499 103.598 79.1499 105.533C79.1499 107.468 74.9326 108.804 41.7931 108.804Z" fill="#F0F6FF"/>
<g id="Group">
<g id="Group_2">
<g id="Group_3">
<g id="Group_4">
<path id="Vector_2" d="M39.237 101.419L37.1131 102.781L36.3758 103.864C36.3758 103.864 37.1316 104.242 37.5558 104.348C37.9799 104.453 41.347 104.094 41.347 104.094L41.438 102.122L39.237 101.419Z" fill="#273140"/>
</g>
<g id="Group_5">
<path id="Vector_3" d="M49.8513 102.906L48.8009 104.083C48.8009 104.083 47.9464 105.678 48.3752 105.654C48.804 105.63 51.1315 105.755 51.2872 105.488C51.4446 105.221 52.68 104.291 52.8404 104.111C53.0024 103.93 52.8373 102.432 52.8373 102.432L49.8513 102.906Z" fill="#273140"/>
</g>
<g id="Group_6">
<path id="Vector_4" d="M43.8488 71.5935L46.4863 87.6313L49.8518 102.907L52.8502 102.736L52.2718 86.6134C52.2718 86.6134 54.4327 71.7955 54.4404 67.4136L43.8488 71.5935Z" fill="#263238"/>
</g>
<g id="Group_7">
<path id="Vector_5" d="M37.2325 72.3833L38.4386 101.983L41.5234 102.125L43.1645 87.087L45.5537 73.8146L39.1774 65.6029L37.2325 72.3833Z" fill="#263238"/>
</g>
<g id="Group_8">
<g id="Group_9">
<path id="Vector_6" d="M38.8487 56.7989C40.4667 48.9265 38.4122 45.1322 41.9535 42.9435C41.9535 42.9435 47.7221 41.3595 51.3961 43.9954C51.447 44.0324 51.4979 44.0695 51.5473 44.1065L52.883 46.8813L53.8963 59.333C53.8963 59.333 56.7313 75.6809 55.2259 75.812C53.5215 75.9616 45.6954 72.3154 44.2101 72.4002C42.7247 72.4866 38.1793 73.301 33.8883 71.8404C30.2097 70.591 37.2323 64.6713 38.8487 56.7989Z" fill="#3E6897"/>
</g>
</g>
<g id="Group_10">
<path id="Vector_7" d="M46.0219 42.7012L47.1432 42.7444L47.2573 43.8735L43.136 55.3998L42.2121 50.4055L43.2209 43.1501L46.0219 42.7012Z" fill="white"/>
</g>
<g id="Group_11">
<path id="Vector_8" d="M42.6335 59.8297L44.2222 72.3802L40.8736 72.8537L38.5569 72.6733L41.486 61.7855L42.6335 59.8297Z" fill="white"/>
</g>
<g id="Group_12">
<g id="Group_13">
<path id="Vector_9" d="M44.5018 43.2011C45.2715 43.2334 46.0396 43.2643 46.8092 43.2967C46.9018 42.6905 46.9465 42.0766 46.9419 41.4628C47.6051 41.3301 48.3825 41.0988 48.5861 40.454C48.6509 40.2504 48.6447 40.033 48.637 39.8201C48.6092 38.9394 48.856 38.0464 48.5552 37.178C48.455 36.8896 48.5336 36.5595 48.4087 36.2819C48.1881 35.7945 47.6653 35.5214 47.1563 35.358C45.8576 34.94 44.3661 35.0233 43.2108 35.7497C42.9039 35.9425 42.6155 36.1878 42.4473 36.5086C42.1867 37.0037 42.2453 37.6006 42.3116 38.1559C42.3718 38.6695 42.4319 39.1831 42.4921 39.6952C42.5615 40.2859 42.6864 40.963 43.2047 41.2545C43.4792 41.4088 43.8278 41.4242 44.0684 41.6293C44.4895 41.9903 44.3306 42.672 44.5018 43.2011Z" fill="#E7CAAD"/>
</g>
<g id="Group_14">
<path id="Vector_10" d="M41.1964 31.7597C41.3691 31.7443 41.5449 31.7227 41.7285 31.661C42.3038 31.4667 42.7341 31.0147 43.3418 30.8389C44.5727 30.4811 46.0626 30.6739 47.1917 31.2662C48.2729 31.8322 49.786 32.1438 50.7361 32.861C51.1325 33.1602 51.4225 33.5828 51.6322 34.0348C52.3572 35.5972 52.0842 37.5715 50.9628 38.8779C50.7114 39.1709 50.423 39.4301 50.1238 39.6753C49.5053 40.1812 48.7618 40.8105 47.9922 40.9216C48.0677 40.2583 48.9623 38.2609 48.532 37.6471C47.9598 36.8342 46.7104 36.7478 45.8097 36.7556C44.7362 36.7648 43.8878 36.3484 42.8205 36.3113C42.2776 36.2928 41.656 36.3499 41.2704 35.9658C40.8246 35.5216 39.9193 34.1566 39.7265 33.5736C39.5568 33.0646 39.7496 32.4708 40.1491 32.1114C40.4899 31.8029 40.8354 31.7937 41.1964 31.7597Z" fill="#263238"/>
</g>
</g>
</g>
<g id="Group_15">
<path id="Vector_11" d="M33.9641 49.0976L40.9512 42.7676L42.6309 44.1835L36.8469 53.842L34.2356 54.0919C34.2356 54.0919 33.4829 51.4035 33.3287 51.1181L33.9641 49.0976Z" fill="#3E6897"/>
</g>
</g>
<g id="Group_16">
<g id="Group_17">
<path id="Vector_12" d="M50.577 72.0918C51.9158 70.8841 53.4937 70.318 55.2643 70.409C57.035 70.5 58.5466 71.2249 59.7543 72.5637C60.9635 73.9041 61.5296 75.4819 61.437 77.2511C61.346 79.0218 60.6211 80.5333 59.2823 81.741C58.7517 82.2191 58.1826 82.597 57.5795 82.8731C56.6618 83.2927 55.6638 83.4762 54.5949 83.4222C52.8227 83.3312 51.3127 82.6063 50.105 81.2659C48.8989 79.9287 48.3328 78.3508 48.4223 76.5786C48.5133 74.8095 49.2382 73.2979 50.577 72.0918Z" fill="#00B0DC"/>
</g>
<g id="Group_18">
<g id="Group_19">
<path id="Vector_13" d="M48.4202 76.5805C48.5128 74.8083 49.2377 73.2983 50.575 72.0921C51.0068 71.7019 51.4649 71.3811 51.9446 71.1251C51.212 72.123 50.8063 73.2752 50.74 74.5662C50.6506 76.3399 51.2166 77.9162 52.4228 79.2535C53.6305 80.5923 55.1405 81.3172 56.9127 81.4098C57.9816 81.4638 58.9795 81.2802 59.8972 80.8607C60.0098 80.8098 60.1209 80.7527 60.2319 80.6941C59.9589 81.0643 59.6443 81.4159 59.2803 81.7429C58.7497 82.2211 58.1805 82.599 57.5775 82.8751C56.6597 83.2946 55.6618 83.4781 54.5929 83.4241C52.8207 83.3331 51.3107 82.6082 50.103 81.2679C48.8968 79.9322 48.3308 78.3543 48.4202 76.5805Z" fill="#00B0DC"/>
</g>
</g>
<g id="Group_20">
<path id="Vector_14" d="M0.0710907 48.5905C0.561573 43.2122 3.26386 38.2719 8.10083 33.9084C12.9378 29.5465 18.1495 27.3455 23.5958 27.3656C28.3294 27.3841 32.5941 29.1362 36.2727 32.5758C36.8928 33.1557 37.2444 33.9747 37.2367 34.8231C37.229 35.6714 36.8635 36.4842 36.2342 37.0534L33.3545 39.6508C32.2054 40.6873 30.4625 40.6934 29.3011 39.6646C27.242 37.84 25.0965 36.9439 22.7413 36.9269C19.8909 36.9053 17.039 38.1639 14.2642 40.6657C11.4987 43.1597 9.99952 45.8851 9.80672 48.7617C9.61855 51.629 10.763 54.4593 13.2077 57.1709C16.5794 60.9081 19.9202 62.4613 23.1407 61.7857C26.5309 61.0731 30.5967 58.5513 35.2332 54.2866L36.4794 53.1622C37.7241 52.0393 39.649 52.1396 40.7704 53.3827L50.5615 64.2381C51.1044 64.8412 51.3821 65.6186 51.3389 66.4299C51.2972 67.2412 50.9425 67.9862 50.3394 68.5291L47.4181 71.1635C47.1821 71.3764 46.923 71.5445 46.6485 71.6694C45.4731 72.2062 44.0356 71.9501 43.1256 70.9414L36.7848 63.9112C36.7061 63.8232 36.5704 63.8155 36.4825 63.8896C30.9067 68.654 25.6333 71.2175 20.8102 71.509C15.6802 71.8175 10.7615 69.4052 6.19133 64.3384C1.63972 59.2963 -0.419395 53.9966 0.0710907 48.5905Z" fill="#00B0DC"/>
</g>
<g id="Group_21">
<g id="Group_22">
<path id="Vector_15" d="M0.0706406 48.5904C0.561123 43.212 3.26342 38.2717 8.10038 33.9083C11.0942 31.2075 14.2345 29.3366 17.4828 28.3063C15.9527 29.2286 14.4535 30.3515 12.9882 31.6718C8.15127 36.0352 5.44899 40.974 4.9585 46.3539C4.46802 51.76 6.52713 57.0597 11.0788 62.1064C15.6489 67.1732 20.5676 69.5855 25.6976 69.277C27.1798 69.1876 28.7037 68.8837 30.2646 68.367C26.9639 70.278 23.7989 71.333 20.8082 71.5135C15.6782 71.822 10.7595 69.4097 6.18934 64.3429C1.63927 59.2962 -0.419842 53.9965 0.0706406 48.5904Z" fill="#00B0DC"/>
</g>
</g>
</g>
<g id="Group_23">
<path id="Vector_16" d="M50.1716 43.2966L53.4816 44.3161L61.4033 57.8198L60.8635 60.4311L50.6019 65.5611L49.1613 62.7709L55.6425 57.8198L51.6816 52.4183L50.1515 43.7763L50.1716 43.2966Z" fill="#3E6897"/>
</g>
<g id="Group_24">
<path id="Vector_17" d="M41.0865 42.8827L42.7685 41.0757L44.3903 41.5263L44.8394 43.1481L43.3996 43.4181L42.0448 43.6912L41.0865 42.8827Z" fill="#EAC1A4"/>
</g>
<g id="Group_25">
<path id="Vector_18" d="M49.3021 63.0469L47.6849 63.3787L47.9441 64.3323L46.543 65.9711L48.4642 66.6701L50.3452 65.0669L49.3021 63.0469Z" fill="#E7CAAD"/>
</g>
</g>
</g>
</svg>
