<svg width="91" height="83" viewBox="0 0 91 83" fill="none" xmlns="http://www.w3.org/2000/svg">
<g id="Group 757" filter="url(#filter0_d_256_2971)">
<path id="Vector" d="M19.5689 28.0329C18.0947 28.0329 17.4 26.5475 17.3687 26.4827C17.3017 26.3353 17.3665 26.1611 17.5139 26.0941C17.6613 26.027 17.8355 26.0918 17.9026 26.2392C17.9115 26.2571 18.49 27.4767 19.6135 27.4454C19.7766 27.4365 19.9106 27.5683 19.9151 27.7313C19.9196 27.8944 19.7922 28.0284 19.6292 28.0329C19.6091 28.0329 19.589 28.0329 19.5689 28.0329Z" fill="#00B0DC"/>
<g id="Group">
<path id="Vector_2" d="M5.71788 18.5891C4.86462 18.5891 4.16771 18.1178 4.12751 18.091C3.99349 17.9994 3.95998 17.8162 4.05156 17.6822C4.14314 17.5482 4.3263 17.5147 4.45809 17.6063C4.46926 17.613 5.59726 18.3679 6.54656 17.7626C6.68282 17.6755 6.86375 17.7157 6.95086 17.852C7.03797 17.9882 6.99776 18.1691 6.86151 18.2562C6.47955 18.5042 6.0842 18.5891 5.71788 18.5891Z" fill="#3E6897"/>
<path id="Vector_3" opacity="0.6" d="M5.71788 18.5891C4.86462 18.5891 4.16771 18.1178 4.12751 18.091C3.99349 17.9994 3.95998 17.8162 4.05156 17.6822C4.14314 17.5482 4.3263 17.5147 4.45809 17.6063C4.46926 17.613 5.59726 18.3679 6.54656 17.7626C6.68282 17.6755 6.86375 17.7157 6.95086 17.852C7.03797 17.9882 6.99776 18.1691 6.86151 18.2562C6.47955 18.5042 6.0842 18.5891 5.71788 18.5891Z" fill="white"/>
</g>
<g id="Group_2">
<path id="Vector_4" d="M82.3397 10.7578C81.4864 10.7578 80.7895 10.2865 80.7493 10.2597C80.6153 10.1681 80.5818 9.98492 80.6734 9.8509C80.765 9.71688 80.9481 9.68337 81.0799 9.77495C81.0911 9.78165 82.2191 10.5366 83.1684 9.93131C83.3046 9.8442 83.4856 9.8844 83.5727 10.0207C83.6598 10.1569 83.6196 10.3378 83.4833 10.4249C83.0991 10.6707 82.7038 10.7578 82.3397 10.7578Z" fill="#3E6897"/>
<path id="Vector_5" opacity="0.6" d="M82.3397 10.7578C81.4864 10.7578 80.7895 10.2865 80.7493 10.2597C80.6153 10.1681 80.5818 9.98492 80.6734 9.8509C80.765 9.71688 80.9481 9.68337 81.0799 9.77495C81.0911 9.78165 82.2191 10.5366 83.1684 9.93131C83.3046 9.8442 83.4856 9.8844 83.5727 10.0207C83.6598 10.1569 83.6196 10.3378 83.4833 10.4249C83.0991 10.6707 82.7038 10.7578 82.3397 10.7578Z" fill="white"/>
</g>
<g id="Group_3">
<path id="Vector_6" d="M46.4175 33.8271C45.0482 33.8271 44.3022 32.5003 44.2687 32.44C44.1905 32.297 44.2419 32.1205 44.3848 32.0424C44.5256 31.9642 44.7042 32.0156 44.7824 32.1585C44.7914 32.1764 45.4615 33.3446 46.5783 33.2329C46.7391 33.2173 46.8843 33.3334 46.8999 33.4942C46.9156 33.6551 46.7994 33.8003 46.6386 33.8159C46.5627 33.8248 46.4889 33.8271 46.4175 33.8271Z" fill="#3E6897"/>
<path id="Vector_7" opacity="0.6" d="M46.4175 33.8271C45.0482 33.8271 44.3022 32.5003 44.2687 32.44C44.1905 32.297 44.2419 32.1205 44.3848 32.0424C44.5256 31.9642 44.7042 32.0156 44.7824 32.1585C44.7914 32.1764 45.4615 33.3446 46.5783 33.2329C46.7391 33.2173 46.8843 33.3334 46.8999 33.4942C46.9156 33.6551 46.7994 33.8003 46.6386 33.8159C46.5627 33.8248 46.4889 33.8271 46.4175 33.8271Z" fill="white"/>
</g>
<g id="Group_4">
<path id="Vector_8" d="M8.93454 39.7955C8.80276 39.7955 8.68214 39.7062 8.65087 39.5721C8.6129 39.4158 8.70895 39.2572 8.8653 39.217C8.8787 39.2148 10.1899 38.8708 10.3686 37.7606C10.3954 37.5998 10.545 37.4926 10.7058 37.5172C10.8667 37.5417 10.9739 37.6936 10.9493 37.8522C10.7081 39.351 9.0775 39.7687 9.00826 39.7866C8.98145 39.7933 8.95911 39.7955 8.93454 39.7955Z" fill="#3E6897"/>
<path id="Vector_9" opacity="0.6" d="M8.93454 39.7955C8.80276 39.7955 8.68214 39.7062 8.65087 39.5721C8.6129 39.4158 8.70895 39.2572 8.8653 39.217C8.8787 39.2148 10.1899 38.8708 10.3686 37.7606C10.3954 37.5998 10.545 37.4926 10.7058 37.5172C10.8667 37.5417 10.9739 37.6936 10.9493 37.8522C10.7081 39.351 9.0775 39.7687 9.00826 39.7866C8.98145 39.7933 8.95911 39.7955 8.93454 39.7955Z" fill="black"/>
</g>
<g id="Group_5">
<path id="Vector_10" d="M74.1482 19.4356C74.0164 19.4356 73.8958 19.3463 73.8645 19.2123C73.8265 19.0559 73.9226 18.8973 74.0789 18.8571C74.0923 18.8549 75.4035 18.5109 75.5822 17.4008C75.6068 17.24 75.7586 17.1327 75.9195 17.1573C76.0803 17.1819 76.1875 17.3338 76.1629 17.4924C75.9217 18.9911 74.2911 19.4088 74.2219 19.4267C74.1951 19.4334 74.1705 19.4356 74.1482 19.4356Z" fill="#3E6897"/>
<path id="Vector_11" opacity="0.6" d="M74.1482 19.4356C74.0164 19.4356 73.8958 19.3463 73.8645 19.2123C73.8265 19.0559 73.9226 18.8973 74.0789 18.8571C74.0923 18.8549 75.4035 18.5109 75.5822 17.4008C75.6068 17.24 75.7586 17.1327 75.9195 17.1573C76.0803 17.1819 76.1875 17.3338 76.1629 17.4924C75.9217 18.9911 74.2911 19.4088 74.2219 19.4267C74.1951 19.4334 74.1705 19.4356 74.1482 19.4356Z" fill="black"/>
</g>
<path id="Vector_12" d="M86.1593 30.5703C86.1437 30.5703 86.1258 30.568 86.108 30.5658C86.0365 30.5546 84.3814 30.2486 84.0374 28.7699C84.0016 28.6113 84.0999 28.455 84.2563 28.417C84.4149 28.3813 84.5712 28.4795 84.6092 28.6359C84.8638 29.7326 86.1951 29.9828 86.2085 29.985C86.3671 30.0141 86.4743 30.166 86.4453 30.3246C86.4229 30.4697 86.3001 30.5703 86.1593 30.5703Z" fill="#3E6897"/>
<path id="Vector_13" d="M80.9232 41.3389C80.4742 41.3389 79.9716 41.2227 79.5182 40.8452C79.3931 40.7425 79.3775 40.5571 79.4802 40.432C79.583 40.3069 79.7684 40.2913 79.8935 40.394C80.7579 41.1133 81.9708 40.5102 81.9842 40.5035C82.1294 40.4298 82.3058 40.4879 82.3795 40.6308C82.4532 40.7738 82.3974 40.9502 82.2522 41.0262C82.2142 41.0485 81.6357 41.3389 80.9232 41.3389Z" fill="#00B0DC"/>
<path id="Vector_14" d="M67.2218 4.68444C67.1726 4.68444 67.1235 4.67328 67.0788 4.64647C67.0163 4.61073 65.5577 3.76864 65.7297 2.26092C65.7475 2.1001 65.8927 1.98395 66.0535 2.00181C66.2144 2.01968 66.3305 2.16487 66.3127 2.3257C66.1853 3.44476 67.3558 4.12826 67.3669 4.13496C67.5077 4.21537 67.5568 4.39407 67.4764 4.53479C67.4228 4.63084 67.3223 4.68444 67.2218 4.68444Z" fill="#00B0DC"/>
<path id="Vector_15" d="M8.88715 5.87271C8.73749 5.87271 8.60794 5.75656 8.59454 5.60467C8.58114 5.44385 8.69952 5.30089 8.86258 5.28749C9.98388 5.19144 10.4217 3.90709 10.4239 3.89368C10.4753 3.73956 10.6406 3.65691 10.7947 3.70606C10.9488 3.75743 11.0315 3.92049 10.9823 4.07461C10.96 4.14162 10.4239 5.73869 8.91172 5.87047C8.90502 5.87271 8.89608 5.87271 8.88715 5.87271Z" fill="#3E6897"/>
<g id="Group_6">
<path id="Vector_16" d="M30.6813 14.7112C29.8861 15.0797 29.1892 16.8644 29.4148 19.4242C29.6427 21.984 24.3399 20.1881 23.6207 23.0561C22.3185 28.2472 31.0499 31.3676 34.7711 28.2472C37.0741 26.3173 39.2385 19.9558 38.9213 16.4847C38.5818 12.7523 32.7921 10.2483 30.6813 14.7112Z" fill="#263238"/>
<g id="Group_7">
<path id="Vector_17" d="M39.0605 21.2604C39.1588 21.2336 39.3018 21.189 39.4246 21.1488L39.8088 21.0192C40.0657 20.9299 40.3203 20.8316 40.5727 20.7244C41.0775 20.5144 41.5734 20.2866 42.0447 20.0208C42.9829 19.4936 43.8607 18.8548 44.5263 18.0797C45.1584 17.3292 45.6119 16.3039 45.967 15.2563C46.148 14.7292 46.2998 14.1864 46.4316 13.6347C46.5679 13.0875 46.6818 12.5179 46.7779 11.9751L47.6892 12.0332C47.6937 13.2505 47.5552 14.4321 47.2961 15.6271C47.162 16.2213 46.9901 16.8154 46.7578 17.4007C46.5232 17.9837 46.2373 18.5666 45.8263 19.1094C45.0311 20.157 44.0282 20.9634 42.9538 21.6C42.4155 21.9171 41.8616 22.1986 41.292 22.442C41.0061 22.5604 40.7179 22.6721 40.4253 22.7749C40.2779 22.8262 40.1305 22.8754 39.9808 22.92C39.8267 22.967 39.6882 23.0049 39.505 23.0518L39.0605 21.2604Z" fill="#E8BFBF"/>
<path id="Vector_18" d="M47.6799 12.3391L48.0596 10.9744L46.5519 11.0927C46.5519 11.0927 46.4446 11.9862 46.9651 12.5245L47.6799 12.3391Z" fill="#E8BFBF"/>
<path id="Vector_19" d="M48.2851 9.38843L46.9091 9.74805L46.5518 11.0927L48.0595 10.9743L48.2851 9.38843Z" fill="#E8BFBF"/>
<path id="Vector_20" d="M37.3535 21.6065C38.0481 20.9766 39.8127 20.4941 39.8127 20.4941L41.7448 23.4113C41.7448 23.4113 39.5402 24.8811 38.6021 24.5393C37.6282 24.1842 36.7057 22.1962 37.3535 21.6065Z" fill="#DF88B5"/>
</g>
<path id="Vector_21" d="M30.9895 62.9114L32.1934 64.2338L35.6489 61.77L34.445 60.45L30.9895 62.9114Z" fill="#E8BFBF"/>
<path id="Vector_22" d="M24.1941 68.1361L25.809 68.9358L28.1834 65.4535L26.5685 64.6516L24.1941 68.1361Z" fill="#E8BFBF"/>
<path id="Vector_23" d="M26.0662 68.7393L24.8198 67.1422C24.7751 67.0841 24.6969 67.0685 24.6344 67.1042L23.2294 67.9084C23.0842 67.991 23.0485 68.201 23.1535 68.3328C23.598 68.8822 23.8392 69.1257 24.3865 69.8271C24.7238 70.2582 25.405 71.2656 25.8719 71.8619C26.3275 72.4449 26.9529 72.0295 26.8122 71.7391C26.1823 70.4391 26.1421 69.6663 26.1645 69.0431C26.1689 68.9336 26.1332 68.8242 26.0662 68.7393Z" fill="#263238"/>
<path id="Vector_24" d="M32.5528 64.2585L31.7308 62.2839C31.7018 62.2125 31.6236 62.1678 31.5454 62.179L29.8054 62.4001C29.6245 62.4224 29.5217 62.6056 29.5932 62.7709C29.8925 63.4566 30.0735 63.776 30.4331 64.6449C30.6564 65.1788 31.1746 66.5837 31.4807 67.3208C31.78 68.0423 32.5729 67.8904 32.5148 67.5643C32.2535 66.1013 32.3406 65.1609 32.5595 64.5846C32.602 64.4796 32.5975 64.3635 32.5528 64.2585Z" fill="#263238"/>
<path id="Vector_25" opacity="0.2" d="M35.6462 61.7723L33.8659 63.041L32.519 61.8192L34.4422 60.45L35.6462 61.7723Z" fill="black"/>
<path id="Vector_26" opacity="0.2" d="M26.5693 64.6538L28.1842 65.4557L26.958 67.2493L25.343 66.4474L26.5693 64.6538Z" fill="black"/>
<path id="Vector_27" d="M39.7851 21.8322C39.7851 21.8322 39.841 21.7517 38.8626 32.4264C35.9633 32.6297 32.968 32.8397 31.5585 32.9379C31.4737 29.956 31.697 27.8541 30.3032 21.7316C30.3032 21.7316 31.84 21.4055 33.4147 21.3385C34.6477 21.2849 35.6573 21.2514 36.7406 21.3564C38.1657 21.4926 39.7851 21.8322 39.7851 21.8322Z" fill="#DF88B5"/>
<path id="Vector_28" d="M30.853 23.5007C30.3102 23.2483 29.8344 22.9825 29.3408 22.6989C28.8538 22.4174 28.3803 22.1092 27.9157 21.7875C26.9865 21.1442 26.0953 20.4295 25.2911 19.5941L24.9941 19.2747L24.9181 19.1942C24.8757 19.1429 24.831 19.0915 24.7953 19.0401C24.7193 18.9351 24.6657 18.8302 24.6166 18.7252C24.4379 18.3119 24.4111 17.9523 24.4021 17.6217C24.3954 16.965 24.5094 16.391 24.6434 15.8281C24.9315 14.7113 25.3246 13.6793 25.8183 12.6675L26.6693 12.9958C26.5398 13.5029 26.4124 14.03 26.303 14.546C26.1891 15.0642 26.0975 15.5824 26.0327 16.0917C25.9679 16.5965 25.9322 17.108 25.9746 17.5391C25.9947 17.7513 26.0506 17.9389 26.0997 18.0216C26.1131 18.0394 26.1221 18.0551 26.1288 18.0573C26.131 18.0618 26.1332 18.0595 26.1355 18.0595L26.2025 18.1243L26.4772 18.3879C27.2233 19.0781 28.0631 19.6968 28.932 20.2731C29.3676 20.5612 29.821 20.8271 30.27 21.0929C30.7167 21.3542 31.1947 21.6111 31.6325 21.8322L30.853 23.5007Z" fill="#E8BFBF"/>
<path id="Vector_29" d="M33.1783 22.1382C32.3496 20.9834 30.7302 21.0012 30.7302 21.0012L28.769 23.8983C28.769 23.8983 30.9603 25.3904 31.9006 25.0598C32.8768 24.7136 33.6898 22.8507 33.1783 22.1382Z" fill="#DF88B5"/>
<path id="Vector_30" d="M36.7387 21.3543L33.4128 21.3364C32.9057 21.5419 32.6086 22.8665 35.9837 23.99C38.3223 22.661 37.0782 21.4794 36.7387 21.3543Z" fill="white"/>
<path id="Vector_31" d="M33.7632 17.595C33.9665 18.6649 34.1653 20.6283 33.4148 21.3364C33.4148 21.3364 33.7052 22.4241 35.9857 23.9899C37.5828 22.3884 36.7407 21.3542 36.7407 21.3542C35.5502 21.0639 35.5837 20.1771 35.7959 19.3484L33.7632 17.595Z" fill="#E8BFBF"/>
<path id="Vector_32" d="M40.6591 28.2183C40.6479 28.2183 40.6345 28.2183 40.6234 28.2161C40.3776 28.196 40.1945 27.9815 40.2146 27.7358C40.295 26.7396 39.549 25.9869 38.6845 25.1157C37.6928 24.1173 36.5715 22.9848 36.5246 21.2225C36.5179 20.9768 36.7122 20.7713 36.9601 20.7646C37.2058 20.7579 37.4113 20.9522 37.418 21.2001C37.4538 22.6073 38.4009 23.5634 39.3189 24.4881C40.2526 25.4307 41.2197 26.4046 41.1058 27.8095C41.0857 28.0418 40.8914 28.2183 40.6591 28.2183Z" fill="#007490"/>
<path id="Vector_33" d="M34.1224 30.4809C34.0867 30.4809 34.0509 30.4764 34.0152 30.4675C33.7762 30.4094 33.6287 30.1659 33.6891 29.9269C34.1202 28.1757 33.555 26.8042 32.9564 25.3524C32.4203 24.0524 31.8664 22.7077 32.1367 21.1352C32.1791 20.8917 32.4092 20.7287 32.6526 20.7711C32.8961 20.8136 33.0592 21.0436 33.0167 21.2871C32.7911 22.605 33.2736 23.7754 33.7829 25.0129C34.3815 26.4625 35.0583 28.1087 34.558 30.1413C34.5043 30.3446 34.3234 30.4809 34.1224 30.4809Z" fill="#007490"/>
<path id="Vector_34" opacity="0.2" d="M35.3766 18.9866L34.4719 19.0916C34.4898 19.2166 34.5814 19.5584 34.7266 19.7706C34.903 20.0364 35.2961 20.1548 35.6848 20.1637C35.6759 19.9024 35.7272 19.6209 35.7965 19.3484L35.3766 18.9866Z" fill="black"/>
<path id="Vector_35" d="M31.7864 16.5205C32.4409 18.1869 32.6799 18.9061 33.8213 19.5003C35.5367 20.3959 37.4398 19.2277 37.2969 17.4006C37.1695 15.7566 36.122 13.3085 34.239 13.17C32.385 13.0338 31.1342 14.8542 31.7864 16.5205Z" fill="#E8BFBF"/>
<path id="Vector_36" d="M33.5801 12.9266C34.8533 13.7084 33.7633 18.3098 31.6123 18.0708C29.4613 17.834 31.7016 11.7741 33.5801 12.9266Z" fill="#263238"/>
<path id="Vector_37" d="M33.5337 12.9422C32.5755 13.5788 33.2277 14.6867 36.4576 14.0322C36.4598 14.0322 35.1241 11.8879 33.5337 12.9422Z" fill="#263238"/>
<path id="Vector_38" d="M32.0184 18.1401C32.1659 18.4796 32.4585 18.7209 32.7444 18.8281C33.1732 18.9889 33.4279 18.6137 33.3408 18.1893C33.2626 17.8051 32.9454 17.2601 32.4987 17.2824C32.0586 17.3025 31.8487 17.7515 32.0184 18.1401Z" fill="#E8BFBF"/>
<g id="Group_8">
<path id="Vector_39" d="M38.8609 32.4265C38.8609 32.4265 42.7698 45.1874 43.0848 50.6778C43.4109 56.3893 34.9297 63.1662 34.9297 63.1662L32.8188 60.8499C32.8188 60.8499 39.7097 54.9977 38.7649 50.7582C37.4626 44.9149 33.5135 32.8018 33.5135 32.8018L38.8609 32.4265Z" fill="#263238"/>
<path id="Vector_40" opacity="0.2" d="M36.4281 36.6034C36.0685 35.4821 35.2755 36.2394 34.9985 37.421C35.5502 39.2012 36.1891 41.2986 36.7966 43.3915C37.0312 41.5331 37.1272 38.7924 36.4281 36.6034Z" fill="black"/>
</g>
<path id="Vector_41" d="M32.2515 60.7381L34.9296 63.5012L36.0755 62.869L33.2432 59.7888L32.2515 60.7381Z" fill="#263238"/>
<g id="Group_9">
<path id="Vector_42" d="M36.9336 32.5627C36.9336 32.5627 35.8212 45.069 34.6999 52.0381C33.793 57.6669 27.6505 66.8606 27.6505 66.8606L25.3989 65.8131C25.3989 65.8131 29.529 55.9671 30.1723 52.1408C32.2362 39.8936 29.4463 36.3622 31.5594 32.938L36.9336 32.5627Z" fill="#263238"/>
</g>
<path id="Vector_43" d="M25.2397 65.8352L27.7794 67.0839L28.6126 66.0474L25.6418 64.6492L25.2397 65.8352Z" fill="#263238"/>
<path id="Vector_44" d="M31.4175 32.5182L31.1338 33.195C31.1115 33.2486 31.1763 33.2955 31.2589 33.2888L38.9204 32.7527C38.9852 32.7482 39.0388 32.7125 39.0388 32.6701L39.0589 32.0111C39.0611 31.9665 39.0008 31.9307 38.9293 31.9352L31.5314 32.4534C31.4778 32.4579 31.4309 32.4847 31.4175 32.5182Z" fill="white"/>
<path id="Vector_45" d="M32.4686 33.2754L32.2698 33.2888C32.2296 33.291 32.1983 33.2732 32.2006 33.2486L32.2341 32.3931C32.2341 32.3685 32.2676 32.3462 32.3078 32.3417L32.5066 32.3283C32.5468 32.3261 32.578 32.3439 32.5758 32.3685L32.5423 33.224C32.5423 33.2486 32.5088 33.2732 32.4686 33.2754Z" fill="#263238"/>
<path id="Vector_46" d="M38.3687 32.8621L38.1699 32.8755C38.1297 32.8777 38.0985 32.8598 38.1007 32.8353L38.1342 31.9798C38.1342 31.9552 38.1677 31.9329 38.2079 31.9284L38.4067 31.915C38.4469 31.9127 38.4782 31.9306 38.476 31.9552L38.4424 32.8107C38.4402 32.8375 38.4067 32.8598 38.3687 32.8621Z" fill="#263238"/>
<path id="Vector_47" d="M35.4188 33.0676L35.22 33.081C35.1798 33.0833 35.1485 33.0654 35.1507 33.0408L35.1843 32.1853C35.1843 32.1608 35.2178 32.1384 35.258 32.134L35.4568 32.1205C35.497 32.1183 35.5282 32.1362 35.526 32.1608L35.4925 33.0162C35.4925 33.0431 35.459 33.0654 35.4188 33.0676Z" fill="#263238"/>
<g id="Group_10">
<path id="Vector_48" d="M34.4794 15.8952C34.3722 15.9309 34.3275 16.0917 34.3811 16.2592L34.772 16.1319C34.7184 15.9644 34.5866 15.8594 34.4794 15.8952Z" fill="#263238"/>
<path id="Vector_49" d="M36.1747 15.3545C36.0675 15.3903 36.0228 15.5511 36.0764 15.7186L36.4696 15.5913C36.4137 15.426 36.2819 15.3188 36.1747 15.3545Z" fill="#263238"/>
</g>
<path id="Vector_50" d="M36.1292 15.3792L36.4888 15.1357C36.4888 15.1357 36.386 15.5132 36.1292 15.3792Z" fill="#263238"/>
<path id="Vector_51" d="M35.7471 16.0293C35.7471 16.0293 36.1737 16.5497 36.5266 16.753C36.3993 16.9831 36.0643 17.0054 36.0643 17.0054L35.7471 16.0293Z" fill="#630F0F"/>
<path id="Vector_52" d="M35.7651 17.7C35.7785 17.6888 35.7829 17.671 35.7785 17.6553C35.7718 17.633 35.7472 17.6196 35.7249 17.6285C35.1195 17.8251 34.6974 17.4923 34.6929 17.4878C34.675 17.4722 34.6482 17.4744 34.6326 17.4945C34.617 17.5124 34.6214 17.5392 34.6393 17.5548C34.6572 17.5704 35.0994 17.9189 35.7517 17.7089C35.7561 17.7045 35.7606 17.7022 35.7651 17.7Z" fill="#263238"/>
<path id="Vector_53" d="M33.9129 15.7947C33.9241 15.7858 33.933 15.7724 33.9375 15.759C34.0626 15.3993 34.3664 15.3212 34.3708 15.3189C34.4178 15.3078 34.4446 15.2609 34.4334 15.2162C34.4222 15.1693 34.3753 15.1425 34.3306 15.1536C34.315 15.1581 33.933 15.2564 33.7767 15.7031C33.7611 15.7478 33.7856 15.7969 33.8303 15.8126C33.8593 15.8215 33.8906 15.8126 33.9129 15.7947Z" fill="#263238"/>
<path id="Vector_54" d="M36.5886 14.6912C36.5931 14.6867 36.5953 14.6845 36.5998 14.68C36.6288 14.6421 36.6221 14.5885 36.5864 14.5594C36.2156 14.2668 35.8403 14.3874 35.8247 14.3919C35.78 14.4075 35.7554 14.4544 35.7711 14.4991C35.7867 14.5438 35.8336 14.5684 35.8783 14.5527C35.8917 14.5483 36.1843 14.4589 36.4792 14.6912C36.5127 14.7202 36.5596 14.718 36.5886 14.6912Z" fill="#263238"/>
<path id="Vector_55" d="M27.6412 13.3332C27.5898 13.3332 27.5362 13.3198 27.4871 13.2885L20.69 9.10261C20.5515 9.01773 20.5091 8.8368 20.594 8.69832C20.6788 8.55983 20.8598 8.51739 20.9983 8.60227L27.7953 12.7882C27.9338 12.873 27.9762 13.054 27.8913 13.1924C27.8355 13.284 27.7395 13.3332 27.6412 13.3332Z" fill="#3E6897"/>
<g id="Group_11">
<path id="Vector_56" d="M22.2306 9.56716C22.6104 9.54929 23.0057 9.53142 23.0571 9.18967C23.1085 8.84792 22.7377 8.7139 22.3803 8.58435C22.3512 8.57318 22.3177 8.56201 22.2842 8.54861C22.2775 8.5151 22.2686 8.4816 22.2597 8.44809C22.2865 8.41682 22.3155 8.38778 22.3378 8.36098C22.588 8.084 22.8494 7.7981 22.6483 7.52559C22.4473 7.25308 22.0966 7.41614 21.7593 7.5725C21.7281 7.5859 21.6923 7.60377 21.6543 7.62164C21.6253 7.60377 21.5963 7.5859 21.5672 7.56803C21.565 7.53229 21.5628 7.49655 21.5628 7.46528C21.5449 7.08556 21.527 6.6902 21.1853 6.63883C20.8435 6.58745 20.7095 6.95824 20.58 7.31562C20.5688 7.34466 20.5576 7.37817 20.5442 7.41167C20.5107 7.41837 20.4772 7.42731 20.4437 7.43624C20.4124 7.40944 20.3834 7.3804 20.3566 7.35806C20.0796 7.10789 19.7937 6.84656 19.5212 7.04982C19.2487 7.25085 19.4117 7.60153 19.5681 7.93882C19.5815 7.97009 19.5994 8.00583 19.6172 8.0438C19.5994 8.07284 19.5815 8.10187 19.5636 8.13091C19.5279 8.13315 19.4922 8.13538 19.4609 8.13538C19.0812 8.15325 18.6858 8.17112 18.6344 8.51287C18.5831 8.85462 18.9538 8.98864 19.3112 9.11819C19.3403 9.12936 19.3738 9.14053 19.4073 9.15393C19.414 9.18743 19.4229 9.22094 19.4318 9.25444C19.405 9.28572 19.376 9.31475 19.3537 9.34156C19.1035 9.61853 18.8422 9.90444 19.0454 10.1769C19.2465 10.4495 19.5971 10.2864 19.9344 10.13C19.9657 10.1166 20.0014 10.0988 20.0394 10.0809C20.0684 10.0988 20.0975 10.1166 20.1265 10.1345C20.1288 10.1702 20.131 10.206 20.131 10.2373C20.1489 10.617 20.1667 11.0123 20.5085 11.0637C20.8502 11.1151 20.9842 10.7443 21.1138 10.3869C21.125 10.3579 21.1361 10.3244 21.1495 10.2909C21.183 10.2842 21.2165 10.2752 21.2501 10.2663C21.2813 10.2931 21.3104 10.3199 21.3372 10.3445C21.6141 10.5946 21.9 10.856 22.1726 10.655C22.4473 10.4539 22.2842 10.1032 22.1256 9.76595C22.1122 9.73468 22.0944 9.69894 22.0765 9.66097C22.0944 9.63193 22.1122 9.6029 22.1301 9.57386C22.1659 9.57162 22.2016 9.56939 22.2306 9.56716Z" fill="#3E6897"/>
<path id="Vector_57" opacity="0.7" d="M22.2306 9.56716C22.6104 9.54929 23.0057 9.53142 23.0571 9.18967C23.1085 8.84792 22.7377 8.7139 22.3803 8.58435C22.3512 8.57318 22.3177 8.56201 22.2842 8.54861C22.2775 8.5151 22.2686 8.4816 22.2597 8.44809C22.2865 8.41682 22.3155 8.38778 22.3378 8.36098C22.588 8.084 22.8494 7.7981 22.6483 7.52559C22.4473 7.25308 22.0966 7.41614 21.7593 7.5725C21.7281 7.5859 21.6923 7.60377 21.6543 7.62164C21.6253 7.60377 21.5963 7.5859 21.5672 7.56803C21.565 7.53229 21.5628 7.49655 21.5628 7.46528C21.5449 7.08556 21.527 6.6902 21.1853 6.63883C20.8435 6.58745 20.7095 6.95824 20.58 7.31562C20.5688 7.34466 20.5576 7.37817 20.5442 7.41167C20.5107 7.41837 20.4772 7.42731 20.4437 7.43624C20.4124 7.40944 20.3834 7.3804 20.3566 7.35806C20.0796 7.10789 19.7937 6.84656 19.5212 7.04982C19.2487 7.25085 19.4117 7.60153 19.5681 7.93882C19.5815 7.97009 19.5994 8.00583 19.6172 8.0438C19.5994 8.07284 19.5815 8.10187 19.5636 8.13091C19.5279 8.13315 19.4922 8.13538 19.4609 8.13538C19.0812 8.15325 18.6858 8.17112 18.6344 8.51287C18.5831 8.85462 18.9538 8.98864 19.3112 9.11819C19.3403 9.12936 19.3738 9.14053 19.4073 9.15393C19.414 9.18743 19.4229 9.22094 19.4318 9.25444C19.405 9.28572 19.376 9.31475 19.3537 9.34156C19.1035 9.61853 18.8422 9.90444 19.0454 10.1769C19.2465 10.4495 19.5971 10.2864 19.9344 10.13C19.9657 10.1166 20.0014 10.0988 20.0394 10.0809C20.0684 10.0988 20.0975 10.1166 20.1265 10.1345C20.1288 10.1702 20.131 10.206 20.131 10.2373C20.1489 10.617 20.1667 11.0123 20.5085 11.0637C20.8502 11.1151 20.9842 10.7443 21.1138 10.3869C21.125 10.3579 21.1361 10.3244 21.1495 10.2909C21.183 10.2842 21.2165 10.2752 21.2501 10.2663C21.2813 10.2931 21.3104 10.3199 21.3372 10.3445C21.6141 10.5946 21.9 10.856 22.1726 10.655C22.4473 10.4539 22.2842 10.1032 22.1256 9.76595C22.1122 9.73468 22.0944 9.69894 22.0765 9.66097C22.0944 9.63193 22.1122 9.6029 22.1301 9.57386C22.1659 9.57162 22.2016 9.56939 22.2306 9.56716Z" fill="#F1B7D5"/>
</g>
<path id="Vector_58" d="M25.6127 13.4046L25.3335 11.6155L27.1562 12.5C27.1562 12.5 27.1227 12.8261 26.7005 13.2885C26.5106 13.4962 26.218 13.5811 25.9478 13.5029L25.6127 13.4046Z" fill="#E8BFBF"/>
<path id="Vector_59" d="M26.3565 10.7397L27.2902 11.5617L27.1562 12.4999L25.3335 11.6153L26.3565 10.7397Z" fill="#E8BFBF"/>
<path id="Vector_60" d="M26.6511 69.5945C26.6689 69.5811 26.6868 69.5677 26.7047 69.5499C26.7561 69.4985 26.7561 69.4449 26.7471 69.4091C26.6935 69.1858 26.077 68.9714 26.0078 68.9468C25.9921 68.9423 25.9743 68.9468 25.9631 68.9579C25.9519 68.9713 25.9497 68.9892 25.9564 69.0049C26.0569 69.2238 26.258 69.5945 26.4836 69.6325C26.5416 69.6437 26.5997 69.6303 26.6511 69.5945ZM26.077 69.0629C26.3205 69.1567 26.6354 69.3109 26.6645 69.4293C26.6689 69.4449 26.6689 69.465 26.6444 69.4896C26.5975 69.5387 26.5506 69.5566 26.497 69.5476C26.3741 69.5275 26.2222 69.3488 26.077 69.0629Z" fill="#3E6897"/>
<path id="Vector_61" d="M26.7658 68.9981C26.7815 68.9869 26.7949 68.9758 26.806 68.9646C26.8328 68.9356 26.8664 68.8708 26.8127 68.777C26.777 68.7189 26.7256 68.6832 26.6564 68.6698C26.3995 68.6229 25.9885 68.94 25.9707 68.9534C25.9595 68.9624 25.9528 68.978 25.955 68.9937C25.9573 69.0093 25.9662 69.0227 25.9818 69.0272C26.1471 69.0964 26.5894 69.1165 26.7658 68.9981ZM26.1002 68.9624C26.2454 68.8641 26.4889 68.7256 26.6385 68.7524C26.6832 68.7614 26.7145 68.7837 26.7368 68.8194C26.7658 68.8663 26.7524 68.8909 26.739 68.9065C26.6564 69.0026 26.3012 69.0205 26.0868 68.9691C26.0913 68.9691 26.0957 68.9668 26.1002 68.9624Z" fill="#3E6897"/>
<path id="Vector_62" d="M32.5937 65.2703C32.6562 65.4221 32.7389 65.5562 32.8461 65.6165C32.9198 65.6589 32.9958 65.6656 33.0784 65.6388C33.1387 65.6187 33.1588 65.5763 33.1655 65.545C33.2124 65.3149 32.6272 64.7699 32.5088 64.6627C32.4954 64.6493 32.4753 64.6471 32.4597 64.656C32.4441 64.6649 32.4351 64.6828 32.4374 64.7007C32.4642 64.8593 32.5133 65.0804 32.5937 65.2703ZM33.065 65.4422C33.0784 65.4758 33.0851 65.5048 33.0806 65.5271C33.0784 65.5383 33.0739 65.5495 33.0494 65.5584C32.9935 65.5785 32.9399 65.574 32.8886 65.545C32.7523 65.4646 32.6272 65.1965 32.5468 64.8168C32.7523 65.0156 32.998 65.2837 33.065 65.4422Z" fill="#3E6897"/>
<path id="Vector_63" d="M32.4392 64.7096C32.4415 64.7141 32.4437 64.7185 32.4482 64.723C32.6313 64.9084 33.1786 65.2077 33.3551 65.1049C33.393 65.0826 33.4332 65.0335 33.402 64.9263C33.2858 64.5153 32.504 64.6448 32.4705 64.6515C32.4549 64.6537 32.4415 64.6649 32.437 64.6806C32.4348 64.6917 32.4348 64.7007 32.4392 64.7096ZM33.3104 64.924C33.3148 64.933 33.3171 64.9419 33.3193 64.9508C33.3305 64.9933 33.3282 65.0223 33.3104 65.0312C33.2076 65.0915 32.7944 64.8995 32.5755 64.723C32.7698 64.7051 33.2121 64.6873 33.3104 64.924Z" fill="#3E6897"/>
<path id="Vector_64" d="M34.4341 15.9197L34.7937 15.6763C34.7937 15.6763 34.691 16.0515 34.4341 15.9197Z" fill="#263238"/>
</g>
<g id="Group_12">
<path id="Vector_65" d="M63.6352 74.4328L61.9041 74.435L61.4373 70.4256L63.1683 70.4233L63.6352 74.4328Z" fill="#FFC3BD"/>
<path id="Vector_66" d="M78.5353 66.9947L77.2242 68.1249L74.2556 65.3932L75.5645 64.2629L78.5353 66.9947Z" fill="#FFC3BD"/>
<path id="Vector_67" d="M76.9702 68.0824L78.5673 66.702C78.6209 66.6551 78.6968 66.6551 78.7527 66.6976L79.97 67.6804C80.0973 67.7831 80.0951 67.9819 79.97 68.0869C79.4496 68.5225 79.0497 68.8151 78.402 69.3735C78.0044 69.7175 76.8384 70.7986 76.2867 71.2721C75.7484 71.7367 75.2168 71.2475 75.4022 71.0018C76.2286 69.9006 76.7401 68.929 76.8228 68.3482C76.8384 68.2455 76.892 68.1494 76.9702 68.0824Z" fill="#263238"/>
<path id="Vector_68" d="M61.9144 74.2342L63.8041 74.2319C63.8756 74.2319 63.9359 74.2811 63.9515 74.3503L64.2955 75.8893C64.3312 76.0479 64.2106 76.1998 64.0476 76.1976C63.3663 76.1864 62.3812 76.1484 61.5235 76.1506C60.5206 76.1529 59.9354 76.1775 58.7605 76.1797C58.0502 76.1797 57.8514 75.4627 58.1484 75.3979C59.502 75.1008 60.3285 75.0964 61.4989 74.3726C61.6263 74.2922 61.7648 74.2342 61.9144 74.2342Z" fill="#263238"/>
<path id="Vector_69" d="M56.293 24.6735C55.9445 24.5418 55.6452 24.4167 55.3325 24.2737C55.022 24.1352 54.7182 23.99 54.4145 23.8404C53.8091 23.5366 53.215 23.2083 52.6342 22.8464C52.049 22.4913 51.4839 22.087 50.9344 21.6514C50.7982 21.5397 50.6597 21.4303 50.5256 21.3141L50.1281 20.95C49.9963 20.8294 49.8712 20.6909 49.7439 20.5614C49.6791 20.4921 49.621 20.4385 49.5495 20.3536C49.4781 20.2688 49.4044 20.1861 49.3396 20.1012C49.076 19.7595 48.8839 19.411 48.7231 19.0626C48.56 18.7141 48.4327 18.3679 48.3255 18.0239C48.1133 17.3337 47.9815 16.6525 47.8899 15.9734C47.709 14.6154 47.6867 13.293 47.7916 11.9394L49.0916 11.926C49.1787 12.5313 49.2726 13.1679 49.3976 13.78C49.516 14.3942 49.6478 15.004 49.8086 15.5937C49.9672 16.1834 50.1504 16.7597 50.376 17.2868C50.5927 17.814 50.8719 18.292 51.1622 18.6225L51.2717 18.7342C51.3052 18.77 51.3722 18.8236 51.4213 18.8682C51.5286 18.9598 51.6268 19.0559 51.7408 19.1452C51.9664 19.3239 52.1942 19.5004 52.4377 19.6679C52.9224 20.0052 53.4294 20.3246 53.961 20.6217C54.4926 20.9188 55.0354 21.2047 55.5894 21.4727C55.8663 21.609 56.1433 21.743 56.4225 21.8681C56.6973 21.9931 56.9943 22.1227 57.2445 22.2299L56.293 24.6735Z" fill="#FFC3BD"/>
<path id="Vector_70" d="M56.5651 26.1501C55.1423 25.3036 53.782 24.0684 53.782 24.0684L54.4722 20.5325C54.4722 20.5325 56.6053 21.149 58.3789 21.3857C60.5567 21.6761 58.1175 27.0749 56.5651 26.1501Z" fill="#263238"/>
<path id="Vector_71" d="M49.1162 12.2478L49.2368 10.0432L47.4075 10.6307C47.4075 10.6307 46.9786 12.2099 48.1692 12.6253L49.1162 12.2478Z" fill="#FFC3BD"/>
<path id="Vector_72" d="M49.0187 8.85474L47.5065 9.48463L47.4082 10.6305L49.2398 10.043L49.0187 8.85474Z" fill="#FFC3BD"/>
<path id="Vector_73" opacity="0.2" d="M61.4373 70.428L61.6785 72.4942L63.4096 72.4919L63.1706 70.4258L61.4373 70.428Z" fill="black"/>
<path id="Vector_74" opacity="0.2" d="M75.5668 64.2629L74.2556 65.3954L75.7879 66.8026L77.0968 65.6701L75.5668 64.2629Z" fill="black"/>
<path id="Vector_75" d="M65.035 21.323C65.0507 20.807 64.6464 20.3737 64.1304 20.3625C59.1895 20.2709 55.9753 21.6558 55.7541 21.7451C55.5844 21.8121 55.466 21.9618 55.4347 22.1405C55.2292 23.3779 54.6462 28.5645 57.5031 36.6816C60.2639 36.2885 65.3254 35.567 66.6701 35.3727C66.536 34.0214 64.8295 27.8185 65.035 21.323Z" fill="#BCD0E6"/>
<path id="Vector_76" d="M57.6372 21.1244C57.0944 21.8504 56.8487 23.5234 58.6468 24.7474C60.8581 23.0967 61.9928 21.321 62.3346 20.3962C60.3712 20.5012 58.7697 20.8206 57.6372 21.1244Z" fill="white"/>
<path id="Vector_77" d="M57.2175 21.8033C56.9718 21.8033 56.7708 21.6022 56.7708 21.3565C56.7708 20.988 57.0902 20.6686 57.3582 20.4675C58.2651 19.784 60.0319 19.2859 62.2678 19.9292C62.5046 19.9985 62.6408 20.2442 62.5738 20.4832C62.5046 20.7199 62.2589 20.8562 62.0199 20.7892C59.4288 20.0409 57.834 21.1041 57.6598 21.4101C57.6352 21.6313 57.4476 21.8033 57.2175 21.8033Z" fill="#007490"/>
<path id="Vector_78" d="M60.9304 16.1477C60.8633 17.4365 60.946 19.7685 61.9422 20.4788C61.357 21.2539 60.5774 22.163 59.0965 22.4288C58.2075 22.5874 57.897 22.2568 57.8591 21.8391C57.8211 21.4326 58.0512 21.0417 58.4041 20.8362C59.3668 20.2778 59.1747 19.3798 58.8285 18.5288L60.9304 16.1477Z" fill="#FFC3BD"/>
<path id="Vector_79" d="M57.0811 32.0515C57.032 32.0515 56.9806 32.0425 56.9315 32.0269C56.6992 31.9442 56.5763 31.6896 56.659 31.4573C56.8153 31.0173 56.7371 30.8028 56.6232 30.4812L56.5785 30.3539C56.5383 30.2399 56.4066 30.0948 56.2792 29.954C56.076 29.7307 55.8481 29.4783 55.7722 29.141C55.6896 28.7747 55.8057 28.4307 55.8973 28.1559C55.9464 28.0085 56.0023 27.8388 55.9933 27.7516C55.9799 27.6355 55.8839 27.4657 55.7901 27.3049C55.6404 27.048 55.4729 26.7554 55.4751 26.4159C55.4774 26.0362 55.6717 25.7347 55.828 25.4912C55.904 25.375 55.9956 25.2298 56.0045 25.1561C56.0179 25.0512 55.9866 24.9506 55.933 24.7943C55.8615 24.5798 55.7722 24.314 55.8571 23.9902C55.9576 23.6082 56.2055 23.3893 56.3887 23.2307C56.4713 23.1592 56.5562 23.0855 56.5741 23.0364C56.6121 22.947 56.5987 22.8577 56.5741 22.7058C56.5406 22.5003 56.4959 22.2211 56.6746 21.9374C56.831 21.694 56.8153 21.6292 56.8019 21.5778C56.7885 21.522 56.7662 21.4393 56.7729 21.3366C56.7863 21.0909 56.9962 20.9032 57.2419 20.9122C57.4742 20.9233 57.6574 21.1132 57.6663 21.3433L57.6686 21.3567C57.7334 21.6091 57.749 21.9106 57.4385 22.4043C57.4385 22.4355 57.4497 22.507 57.4586 22.5606C57.4899 22.7527 57.539 23.0453 57.4028 23.3759C57.3023 23.6194 57.1236 23.7757 56.9784 23.903C56.8354 24.0281 56.7528 24.1041 56.7237 24.2135C56.7081 24.2761 56.7349 24.3632 56.7841 24.5106C56.8488 24.7072 56.9315 24.9551 56.8935 25.2633C56.86 25.5403 56.7126 25.7704 56.5808 25.9737C56.478 26.1345 56.3708 26.2998 56.3708 26.4204C56.3708 26.5164 56.4736 26.6974 56.5674 26.856C56.7014 27.0883 56.8533 27.3496 56.8868 27.6511C56.9181 27.9348 56.8287 28.2006 56.7505 28.4374C56.688 28.625 56.6232 28.8193 56.65 28.9444C56.6746 29.0516 56.8198 29.2102 56.9471 29.3532C57.128 29.552 57.3313 29.7753 57.4296 30.0635L57.4698 30.1796C57.6038 30.5527 57.7691 31.015 57.5078 31.7544C57.4385 31.9353 57.2665 32.0515 57.0811 32.0515Z" fill="#007490"/>
<path id="Vector_80" d="M64.9526 21.2495C65.196 21.4706 65.3971 21.6605 65.6048 21.8749C65.8103 22.0849 66.0113 22.2971 66.2101 22.5115C66.6077 22.9404 66.983 23.3916 67.3448 23.8584C68.0641 24.7966 68.723 25.8039 69.2211 26.9655C69.3439 27.2581 69.4556 27.5596 69.5472 27.8768C69.5963 28.0331 69.6343 28.1962 69.6723 28.3593L69.6857 28.4196L69.7058 28.5246C69.7192 28.596 69.7259 28.6697 69.7326 28.7412C69.7415 28.8886 69.7393 29.0361 69.7192 29.179C69.6835 29.4672 69.5919 29.7263 69.478 29.9429C69.3663 30.1596 69.2345 30.3428 69.1005 30.4969C68.8324 30.8074 68.551 31.0285 68.2718 31.2161C67.7134 31.5891 67.1527 31.8371 66.5876 32.0426C66.3062 32.1453 66.0225 32.2324 65.7366 32.3061C65.4484 32.3821 65.1737 32.4491 64.8632 32.5027L64.4612 31.2675C64.6778 31.1424 64.9235 31.0106 65.1491 30.8766C65.377 30.7381 65.6026 30.6019 65.8192 30.4611C66.2526 30.1797 66.6658 29.8782 66.9874 29.5721C67.1438 29.418 67.2756 29.2617 67.3515 29.1366C67.4297 29.0093 67.423 28.9244 67.4007 28.9512C67.3962 28.9556 67.3917 28.9646 67.3895 28.9735C67.3873 28.978 67.3873 28.9825 67.385 28.9847C67.385 28.9847 67.385 28.9914 67.3828 28.9869L67.3694 28.9467C67.3359 28.8417 67.3024 28.7368 67.2599 28.6318C67.1818 28.4196 67.0812 28.2074 66.974 27.9929C66.7596 27.5641 66.5027 27.1374 66.2123 26.722C65.9264 26.3021 65.6137 25.8911 65.2831 25.489C64.957 25.0847 64.6063 24.6916 64.2534 24.3007C64.077 24.1064 63.896 23.9143 63.7129 23.7289C63.5319 23.548 63.3376 23.3447 63.1746 23.1883L64.9526 21.2495Z" fill="#FFC3BD"/>
<path id="Vector_81" d="M64.3768 20.4028C65.3864 20.5503 66.9701 23.0765 66.9701 23.0765L64.3991 26.5209C64.3991 26.5209 63.0277 25.2142 62.6278 24.0638C61.8617 21.8637 62.3933 20.1102 64.3768 20.4028Z" fill="#263238"/>
<path id="Vector_82" d="M63.0305 29.0784C62.8787 29.0784 62.7312 29.0002 62.6464 28.8617C62.4543 28.5401 62.4543 28.1782 62.4565 27.8878C62.4565 27.7315 62.4587 27.555 62.4208 27.4746C62.3716 27.3674 62.2264 27.2379 62.0857 27.1128C61.8623 26.914 61.6122 26.6906 61.5072 26.3667C61.391 26.0049 61.4804 25.6587 61.5519 25.3794C61.5854 25.2454 61.63 25.0779 61.6144 25.0064C61.5921 24.8925 61.4804 24.7362 61.3732 24.5843C61.2056 24.3475 61.0158 24.0772 60.9934 23.7489C60.9689 23.3535 61.152 23.0408 61.2995 22.7906C61.3553 22.6946 61.4402 22.5494 61.4446 22.498C61.4536 22.3685 61.3866 22.1853 61.324 22.0066C61.2257 21.7341 61.1252 21.4527 61.1989 21.1578C61.3687 20.4922 61.6568 20.213 61.7953 20.0812L61.8244 20.0544C61.9964 19.8757 62.2778 19.8712 62.4565 20.0432C62.6352 20.2152 62.6397 20.4967 62.4677 20.6754C62.452 20.691 62.4364 20.7066 62.4163 20.7267C62.3202 20.8205 62.1728 20.9613 62.0656 21.3812C62.0634 21.4259 62.1237 21.5956 62.1661 21.7073C62.2532 21.9485 62.3604 22.2478 62.3381 22.565C62.318 22.8264 62.1885 23.0497 62.0723 23.2463C61.9763 23.4071 61.8802 23.5746 61.8869 23.6953C61.8914 23.7712 62.0165 23.9454 62.1058 24.0728C62.2599 24.2894 62.4319 24.5351 62.4922 24.8344C62.5458 25.1069 62.4788 25.3727 62.4185 25.6073C62.3716 25.7927 62.3225 25.9848 62.3582 26.0987C62.3873 26.1903 62.5503 26.3355 62.6821 26.4516C62.8809 26.6281 63.1065 26.8313 63.2338 27.1061C63.3522 27.3652 63.3522 27.6466 63.35 27.8946C63.35 28.0933 63.3477 28.2988 63.4147 28.4083C63.5421 28.6205 63.4728 28.8952 63.2606 29.0203C63.1891 29.0583 63.1087 29.0784 63.0305 29.0784Z" fill="#007490"/>
<path id="Vector_83" opacity="0.2" d="M60.072 17.1216L58.8279 18.531C58.9195 18.7522 58.9976 18.98 59.0468 19.2056C59.5695 19.0515 60.2195 18.3613 60.1971 17.7939C60.1859 17.5102 60.1368 17.2444 60.072 17.1216Z" fill="black"/>
<path id="Vector_84" d="M57.4609 12.4846C56.9091 13.445 57.2621 14.8098 57.2621 14.8098C57.7736 15.1471 58.2627 14.8567 58.2627 14.8567L58.1064 12.3081L57.4609 12.4846Z" fill="#263238"/>
<path id="Vector_85" d="M61.8122 14.9235C61.3901 16.5876 61.227 17.5838 60.2107 18.2874C58.6851 19.3462 56.7507 18.1802 56.6681 16.4223C56.5922 14.8409 57.298 12.3838 59.0738 12.0242C60.8227 11.6735 62.2344 13.2594 61.8122 14.9235Z" fill="#FFC3BD"/>
<g id="Group_13">
<path id="Vector_86" d="M56.945 16.8624C56.9249 16.8624 56.9048 16.8602 56.8847 16.8557L53.0986 16.0539C52.8909 16.0092 52.7144 15.8886 52.5983 15.7099C52.4821 15.5334 52.4441 15.3212 52.4866 15.1135C52.5312 14.9058 52.6519 14.7293 52.8305 14.6131C53.0092 14.497 53.2192 14.459 53.4269 14.5015C53.5855 14.535 53.686 14.6913 53.6525 14.8499C53.619 15.0085 53.4627 15.1112 53.3041 15.0755C53.2505 15.0643 53.1946 15.0733 53.1477 15.1045C53.1008 15.1336 53.0696 15.1805 53.0584 15.2341C53.0472 15.2877 53.0562 15.3435 53.0874 15.3905C53.1165 15.4374 53.1634 15.4686 53.217 15.4798L57.003 16.2817C57.1616 16.3152 57.2621 16.4715 57.2286 16.6301C57.2018 16.7686 57.0812 16.8624 56.945 16.8624Z" fill="#3E6897"/>
<path id="Vector_87" d="M56.9293 16.9272L56.4714 16.8312L56.6166 16.1499L57.0745 16.2459C57.2621 16.2862 57.3828 16.4715 57.3426 16.6592C57.3024 16.8468 57.117 16.9674 56.9293 16.9272Z" fill="white"/>
</g>
<path id="Vector_88" d="M60.7763 14.0056C60.7763 13.3735 60.2983 12.9111 58.7035 13.0318C57.4013 13.13 56.7691 12.5225 57.1399 11.6759C58.1942 12.2254 58.02 11.5062 60.0303 11.4191C62.0406 11.3319 62.6236 12.1026 62.8358 13.2685C64.0665 15.0934 61.9423 15.8506 61.9423 15.8506L61.1114 16.5766C61.1114 16.5766 60.5619 16.7285 60.1576 16.2706C60.1554 16.2683 59.9923 14.7896 60.7763 14.0056Z" fill="#263238"/>
<g id="Group_14">
<path id="Vector_89" d="M58.6409 11.1044L58.5895 11.1334C58.3795 11.2451 58.3706 11.5422 58.5716 11.6673L63.2355 14.5509C63.4231 14.6671 63.6688 14.5532 63.7023 14.3343C63.747 14.0394 63.613 13.7468 63.3584 13.5904L59.3824 11.1267C59.1568 10.9882 58.8754 10.9793 58.6409 11.1044Z" fill="#343D49"/>
<path id="Vector_90" d="M59.4805 11.4124L60.6755 9.66796C60.747 9.56521 60.8854 9.53394 60.9927 9.59872L64.2851 11.5688C64.4057 11.6403 64.437 11.8033 64.3521 11.915L62.9225 13.8002L59.4805 11.4124Z" fill="#343D49"/>
<g id="Group_15">
<path id="Vector_91" d="M59.4805 11.4125L59.9562 10.5637L63.6328 12.9939L62.9225 13.8025L59.4805 11.4125Z" fill="#343D49"/>
<path id="Vector_92" opacity="0.88" d="M59.4805 11.4125L59.9562 10.5637L63.6328 12.9939L62.9225 13.8025L59.4805 11.4125Z" fill="#BCD0E6"/>
</g>
</g>
<path id="Vector_93" d="M62.0227 16.9652C61.6676 17.2087 61.241 17.2712 60.9059 17.2065C60.4011 17.1104 60.3989 16.5944 60.7496 16.2303C61.0645 15.902 61.71 15.558 62.1166 15.8439C62.5164 16.1254 62.427 16.6882 62.0227 16.9652Z" fill="#FFC3BD"/>
<path id="Vector_94" d="M61.0281 72.0942L63.9586 72.0875C63.9586 72.0875 63.4985 61.6652 62.8664 56.3089C62.6743 54.6783 62.882 52.4446 62.9021 49.9496C62.9289 46.8069 63.0741 43.3827 63.2171 40.6956C63.369 37.8655 63.4963 35.8262 63.4963 35.8262L57.5011 36.6817C57.5011 36.6817 56.9047 51.5221 57.8384 56.7221C58.8078 62.1298 61.0281 72.0942 61.0281 72.0942Z" fill="#263238"/>
<path id="Vector_95" opacity="0.2" d="M62.9022 49.952C62.9291 46.8092 63.0742 43.385 63.2172 40.6979L62.317 39.5029C61.2203 41.5691 61.9864 47.0706 62.9022 49.952Z" fill="black"/>
<path id="Vector_96" d="M60.3582 36.2752C60.3582 36.2752 64.0839 50.9794 65.8507 55.7327C67.7873 60.9394 74.9216 67.0216 74.9216 67.0216L76.722 65.0381C76.722 65.0381 72.9493 59.1569 70.1706 53.4968C68.8394 46.1503 66.6683 35.3706 66.6683 35.3706L60.3582 36.2752Z" fill="#263238"/>
<path id="Vector_97" d="M74.6782 67.3231L77.5016 64.8817L76.7734 64.0374L73.5681 66.711L74.6782 67.3231Z" fill="#263238"/>
<path id="Vector_98" d="M60.6618 72.1634L64.153 72.1589V71.0309L60.2463 70.9773L60.6618 72.1634Z" fill="#263238"/>
<g id="Group_16">
<path id="Vector_99" d="M59.237 14.5973C59.1275 14.5616 58.9957 14.6711 58.9421 14.8386L59.3397 14.9659C59.3911 14.7984 59.3464 14.6331 59.237 14.5973Z" fill="#263238"/>
<path id="Vector_100" d="M57.4945 14.269C57.3783 14.2623 57.2778 14.3986 57.2644 14.575L57.6821 14.6019C57.6933 14.4254 57.6106 14.2757 57.4945 14.269Z" fill="#263238"/>
</g>
<path id="Vector_101" d="M58.0961 14.7783C58.0961 14.7783 57.6337 15.511 57.2183 15.8281C57.4171 16.1006 57.8504 16.0761 57.8504 16.0761L58.0961 14.7783Z" fill="#ED847E"/>
<path id="Vector_102" d="M59.8038 14.4164C59.8172 14.4187 59.8306 14.4187 59.8462 14.4142C59.8886 14.4008 59.9132 14.3561 59.8998 14.3115C59.768 13.8781 59.4062 13.7687 59.3905 13.7642C59.3459 13.7508 59.3012 13.7776 59.29 13.8201C59.2766 13.8625 59.3012 13.9094 59.3459 13.9206C59.357 13.925 59.6385 14.0122 59.7435 14.3584C59.7524 14.3896 59.777 14.4097 59.8038 14.4164Z" fill="#263238"/>
<path id="Vector_103" d="M56.9794 14.0345C57.0062 14.039 57.033 14.0301 57.0531 14.0077C57.2966 13.7397 57.5892 13.7799 57.6004 13.7799C57.645 13.7866 57.6875 13.7553 57.6942 13.7106C57.7009 13.666 57.6718 13.6235 57.6272 13.6168C57.6115 13.6146 57.2363 13.5587 56.9325 13.896C56.9012 13.9295 56.9057 13.9809 56.9392 14.0122C56.9504 14.0256 56.966 14.0323 56.9794 14.0345Z" fill="#263238"/>
<g id="Group_17">
<path id="Vector_104" d="M76.724 68.6945C76.8447 68.5896 76.9541 68.4511 77.0278 68.3506C77.0368 68.3372 77.039 68.3193 77.0301 68.3036C77.0211 68.2902 77.0055 68.2813 76.9898 68.2835C76.9184 68.2947 76.2818 68.3908 76.1969 68.5918C76.1835 68.6231 76.1768 68.6722 76.217 68.728C76.2706 68.804 76.3376 68.842 76.4158 68.842C76.5163 68.842 76.6235 68.7794 76.724 68.6945ZM76.9027 68.3818C76.7173 68.6208 76.5386 68.7593 76.418 68.7593C76.3644 68.7593 76.3197 68.7325 76.284 68.6789C76.2661 68.6521 76.2684 68.6365 76.2728 68.6253C76.3153 68.5181 76.6481 68.4265 76.9027 68.3818Z" fill="#3E6897"/>
<path id="Vector_105" d="M77.021 68.3551C77.0277 68.3506 77.0321 68.3439 77.0344 68.335C77.0388 68.3193 77.0344 68.3037 77.0254 68.2925C77.012 68.2769 76.668 67.9128 76.4134 67.915C76.3464 67.915 76.2905 67.9396 76.2481 67.9888C76.1811 68.0625 76.199 68.1272 76.2168 68.1585C76.3084 68.3327 76.8065 68.4042 77.0031 68.364C77.0098 68.364 77.0165 68.3595 77.021 68.3551ZM76.3196 68.0357C76.3442 68.0133 76.3754 68.0022 76.4134 68.0022C76.5765 67.9999 76.7998 68.192 76.9048 68.2925C76.6859 68.3037 76.3397 68.2233 76.2861 68.1183C76.2816 68.1094 76.2704 68.087 76.3062 68.0468C76.3107 68.0424 76.3151 68.0379 76.3196 68.0357Z" fill="#3E6897"/>
<path id="Vector_106" d="M61.7454 74.473C61.7588 74.4685 61.7699 74.4551 61.7722 74.4395C61.7744 74.4216 61.7655 74.406 61.7498 74.3971C61.6717 74.3568 60.9748 74.0039 60.7648 74.1223C60.7246 74.1446 60.7 74.1826 60.6978 74.2318C60.6911 74.3144 60.7179 74.3814 60.776 74.4306C60.9658 74.5981 61.4617 74.5288 61.7409 74.473C61.7431 74.4752 61.7431 74.4752 61.7454 74.473ZM60.8206 74.1893C60.9502 74.1447 61.3277 74.2876 61.6024 74.4172C61.2205 74.4819 60.9346 74.4641 60.8296 74.3703C60.7916 74.3367 60.776 74.2943 60.7804 74.2385C60.7827 74.2161 60.7894 74.205 60.8072 74.1938C60.8117 74.1938 60.8162 74.1916 60.8206 74.1893Z" fill="#3E6897"/>
<path id="Vector_107" d="M61.7457 74.4731C61.7501 74.4708 61.7524 74.4708 61.7568 74.4686C61.768 74.4597 61.7747 74.4463 61.7747 74.4306C61.7725 74.4105 61.7256 73.9437 61.5044 73.765C61.4374 73.7092 61.3615 73.6868 61.2766 73.6958C61.1649 73.7069 61.1314 73.765 61.1247 73.8097C61.0934 74.0062 61.5089 74.3793 61.7166 74.4731C61.7256 74.4775 61.7367 74.4775 61.7457 74.4731ZM61.2431 73.7851C61.2543 73.7806 61.2677 73.7784 61.2855 73.7762C61.3481 73.7695 61.4017 73.7873 61.4531 73.8275C61.5983 73.9459 61.6608 74.2251 61.6831 74.3614C61.4687 74.2341 61.1873 73.9392 61.2074 73.8231C61.2051 73.8141 61.2096 73.7963 61.2431 73.7851Z" fill="#3E6897"/>
</g>
<g id="Group_18">
<path id="Vector_108" d="M64.6758 31.1602L63.0117 31.6873L64.305 32.9739C64.305 32.9739 65.815 32.3194 65.3414 31.6538L64.6758 31.1602Z" fill="#FFC3BD"/>
<path id="Vector_109" d="M62.3235 33.157L63.5096 33.874L64.3025 32.9738L63.0092 31.6873L62.3235 33.157Z" fill="#FFC3BD"/>
</g>
</g>
</g>
<defs>
<filter id="filter0_d_256_2971" x="0" y="0" width="90.45" height="82.1975" filterUnits="userSpaceOnUse" color-interpolation-filters="sRGB">
<feFlood flood-opacity="0" result="BackgroundImageFix"/>
<feColorMatrix in="SourceAlpha" type="matrix" values="0 0 0 0 0 0 0 0 0 0 0 0 0 0 0 0 0 0 127 0" result="hardAlpha"/>
<feOffset dy="2"/>
<feGaussianBlur stdDeviation="2"/>
<feComposite in2="hardAlpha" operator="out"/>
<feColorMatrix type="matrix" values="0 0 0 0 0 0 0 0 0 0 0 0 0 0 0 0 0 0 0.25 0"/>
<feBlend mode="normal" in2="BackgroundImageFix" result="effect1_dropShadow_256_2971"/>
<feBlend mode="normal" in="SourceGraphic" in2="effect1_dropShadow_256_2971" result="shape"/>
</filter>
</defs>
</svg>
