<svg width="19" height="20" viewBox="0 0 19 20" fill="none" xmlns="http://www.w3.org/2000/svg">
<g id="Group 1000019308">
<path id="Vector" d="M4.0415 18.546V10.1246C4.0415 9.16877 4.0415 8.69084 4.33845 8.39387C4.63541 8.09692 5.11334 8.09692 6.0692 8.09692H13.1662C14.122 8.09692 14.5999 8.09692 14.8969 8.39387C15.1938 8.69084 15.1938 9.16877 15.1938 10.1246V18.546C15.1938 18.8668 15.1938 19.0273 15.0886 19.1033C14.9834 19.1791 14.8311 19.1283 14.5266 19.0268L12.3285 18.2941C12.2413 18.2651 12.1977 18.2505 12.1528 18.2518C12.1078 18.2532 12.0652 18.2703 11.9798 18.3044L9.80595 19.1739C9.71298 19.2111 9.66644 19.2297 9.61768 19.2297C9.56891 19.2297 9.52237 19.2111 9.4294 19.1739L7.25546 18.3044C7.17016 18.2703 7.12751 18.2532 7.08257 18.2518C7.03762 18.2505 6.99405 18.2651 6.9069 18.2941L4.70873 19.0268C4.40426 19.1283 4.25202 19.1791 4.14676 19.1033C4.0415 19.0273 4.0415 18.8668 4.0415 18.546Z" fill="#BBC2C3" fill-opacity="0.06" stroke="#00B0DC" stroke-width="1.5"/>
<path id="Vector_2" d="M14.18 1H5.05535C4.49542 1 4.0415 1.45392 4.0415 2.01385V4.04155C4.0415 4.60148 4.49542 5.0554 5.05535 5.0554H14.18C14.7399 5.0554 15.1938 4.60148 15.1938 4.04155V2.01385C15.1938 1.45392 14.7399 1 14.18 1Z" fill="#BBC2C3" fill-opacity="0.06"/>
<path id="Vector_3" d="M15.7008 12.1524H16.2077C17.1636 12.1524 17.6415 12.1524 17.9385 11.8554C18.2354 11.5585 18.2354 11.0805 18.2354 10.1247V9.11082C18.2354 7.19908 18.2354 6.24322 17.6415 5.64932C17.0476 5.05542 16.0918 5.05542 14.18 5.05542H5.0554C3.14366 5.05542 2.1878 5.05542 1.5939 5.64932C1 6.24322 1 7.19908 1 9.11082V11.1385C1 11.6164 1 11.8554 1.14848 12.0039C1.29695 12.1524 1.53592 12.1524 2.01385 12.1524H3.53462" stroke="#00B0DC" stroke-width="1.5"/>
<path id="Vector_4" d="M7.08301 12.1523H11.1384" stroke="#00B0DC" stroke-width="1.5" stroke-linecap="round"/>
<path id="Vector_5" d="M7.08301 15.1941H12.1523" stroke="#00B0DC" stroke-width="1.5" stroke-linecap="round"/>
<path id="Vector_6" d="M15.1938 5.0554V4.64986C15.1938 2.92929 15.1938 2.06902 14.6593 1.53451C14.1248 1 13.2646 1 11.544 1H7.69136C5.9708 1 5.11053 1 4.57602 1.53451C4.0415 2.06902 4.0415 2.92929 4.0415 4.64986V5.0554" stroke="#00B0DC" stroke-width="1.5"/>
</g>
</svg>
