<svg width="22" height="21" viewBox="0 0 22 21" fill="none" xmlns="http://www.w3.org/2000/svg">
<g id="Group 914">
<path id="Vector" d="M20.0944 5.08248L11.4126 13.7629C10.548 14.6273 7.9817 15.0277 7.40838 14.4544C6.83505 13.8812 7.22637 11.3153 8.09091 10.4509L16.7818 1.76131C16.9961 1.52752 17.2556 1.33959 17.5446 1.20883C17.8335 1.07808 18.146 1.0072 18.4632 1.00052C18.7803 0.99385 19.0955 1.05148 19.3897 1.16996C19.6839 1.28844 19.9511 1.46532 20.1751 1.68989C20.399 1.91445 20.5752 2.18206 20.6929 2.47655C20.8106 2.77106 20.8674 3.08634 20.8599 3.4034C20.8523 3.72046 20.7805 4.03273 20.649 4.3213C20.5174 4.60988 20.3288 4.86883 20.0944 5.08248Z" stroke="#00B0DC" stroke-width="2" stroke-linecap="round" stroke-linejoin="round"/>
<path id="Vector_2" d="M10.3044 3.11145H5.61299C4.61759 3.11145 3.66303 3.50686 2.95918 4.21071C2.25534 4.91456 1.85986 5.86918 1.85986 6.86457V16.2474C1.85986 17.2428 2.25534 18.1974 2.95918 18.9012C3.66303 19.6051 4.61759 20.0005 5.61299 20.0005H15.9341C18.0077 20.0005 18.7489 18.3116 18.7489 16.2474V11.556" stroke="#00B0DC" stroke-width="2" stroke-linecap="round" stroke-linejoin="round"/>
</g>
</svg>
