<svg width="53" height="58" viewBox="0 0 53 58" fill="none" xmlns="http://www.w3.org/2000/svg">
<g id="Group" filter="url(#filter0_d_253_15202)">
<g id="Group_2">
<path id="Vector" d="M45.3887 19.6095C45.181 18.6668 44.6164 17.8572 43.8015 17.3353L30.172 8.64306C29.5915 8.27023 28.9151 8.07316 28.2227 8.07316C27.6208 8.07316 27.0243 8.22763 26.4917 8.51524C26.3372 8.60045 26.1881 8.69633 26.0496 8.80285V8.69632C26.0656 7.72697 25.6981 6.81621 25.027 6.11849C24.3506 5.42609 23.4505 5.03729 22.4811 5.02131L20.9792 5H20.9632H20.9259C19.9778 5 19.0831 5.36217 18.4013 6.02794C17.7089 6.70435 17.3201 7.60446 17.3041 8.57381L17.2509 12.5471C16.191 13.3354 15.3761 14.4006 14.8808 15.6203C14.0712 14.5817 12.8302 13.9212 11.472 13.9212C11.2697 13.9212 11.0673 13.9372 10.8702 13.9639C9.61857 14.1449 8.51607 14.8693 7.83965 15.9452C7.27508 16.8453 7.05138 17.9318 7.20584 18.997L7.27508 19.4923C7.25378 19.7533 7.26442 20.009 7.30171 20.2593L7.63192 22.5655C7.64258 22.6454 7.65856 22.72 7.67454 22.7945C7.67987 22.8638 7.68518 22.933 7.69583 23.0129L10.034 39.2256C10.0447 39.3161 10.066 39.4013 10.0819 39.4706C10.1139 39.8168 10.1991 40.147 10.3216 40.4559L11.5732 43.5238C12.1112 44.85 13.3628 45.7234 14.7849 45.7767C15.1471 47.268 16.436 48.4131 18.0338 48.5356C18.1244 48.5409 18.2202 48.5463 18.3108 48.5463C19.834 48.5463 21.1656 47.5876 21.6928 46.2134C22.2361 47.5556 23.557 48.4877 25.0536 48.4877C25.1601 48.4877 25.272 48.4823 25.3785 48.4717C26.9604 48.3279 28.228 47.1775 28.5795 45.6968C29.5915 45.537 30.4916 44.9511 31.0562 44.067L44.9094 22.3471C45.426 21.5269 45.6018 20.5522 45.3887 19.6095Z" fill="#00B0DC" fill-opacity="0.85"/>
<g id="Group_3">
<g id="Group_4">
<path id="Vector_2" d="M24.9157 40.6263L25.7093 40.5518L24.0635 21.6441L22.0449 22.3737L23.6374 40.7382L24.431 40.6689L25.0489 44.8553L24.9157 40.6263Z" fill="white"/>
<path id="Vector_3" d="M17.5918 40.621L18.3801 40.6796L18.3055 44.9139L18.8701 40.7169L19.6636 40.7808L21.0005 22.3897L18.9713 21.692L17.5918 40.621Z" fill="white"/>
<path id="Vector_4" d="M25.139 18.3685C25.1657 16.5257 23.7915 14.9864 22.002 14.7681L22.0286 12.8081L22.3641 12.8134L22.4227 8.64838L20.9208 8.62708L20.8622 12.7921L21.235 12.7974L21.2084 14.7574C19.4135 14.9279 17.9967 16.4245 17.9754 18.2727C17.9488 20.2487 19.5307 21.8784 21.5066 21.9051C23.488 21.9264 25.1124 20.3445 25.139 18.3685ZM21.5492 19.1728C21.0752 19.1675 20.7024 18.7786 20.7077 18.3099C20.7131 17.8412 21.1019 17.4631 21.5706 17.4684C22.0446 17.4737 22.4174 17.8625 22.4121 18.3312C22.4067 18.7999 22.0179 19.1781 21.5492 19.1728Z" fill="white"/>
</g>
<path id="Vector_5" d="M41.8522 20.3925L28.2227 11.7003L27.999 42.1177L41.8522 20.3925ZM37.4209 20.9038L31.2107 30.6399L31.3118 17.0051L37.4209 20.9038Z" fill="white"/>
<g id="Group_5">
<path id="Vector_6" d="M12.8691 22.2704L11.2876 22.4986L13.6263 38.7093L15.2079 38.4811L12.8691 22.2704Z" fill="white"/>
<path id="Vector_7" d="M14.9284 42.1496L13.6768 39.0818L15.2586 38.8528L14.9284 42.1496Z" fill="white"/>
<path id="Vector_8" d="M12.4717 19.5192L10.8901 19.7474L11.2233 22.0564L12.8048 21.8282L12.4717 19.5192Z" fill="white"/>
<path id="Vector_9" d="M11.3817 17.543H11.3657C10.9769 17.5963 10.7213 18.017 10.7852 18.4751L10.913 19.3539L12.3297 19.1515L12.2019 18.2727C12.138 17.8093 11.7705 17.4844 11.3817 17.543Z" fill="white"/>
</g>
</g>
</g>
</g>
<defs>
<filter id="filter0_d_253_15202" x="0.158203" y="0" width="52.3188" height="57.5463" filterUnits="userSpaceOnUse" color-interpolation-filters="sRGB">
<feFlood flood-opacity="0" result="BackgroundImageFix"/>
<feColorMatrix in="SourceAlpha" type="matrix" values="0 0 0 0 0 0 0 0 0 0 0 0 0 0 0 0 0 0 127 0" result="hardAlpha"/>
<feOffset dy="2"/>
<feGaussianBlur stdDeviation="3.5"/>
<feComposite in2="hardAlpha" operator="out"/>
<feColorMatrix type="matrix" values="0 0 0 0 0 0 0 0 0 0 0 0 0 0 0 0 0 0 0.1 0"/>
<feBlend mode="normal" in2="BackgroundImageFix" result="effect1_dropShadow_253_15202"/>
<feBlend mode="normal" in="SourceGraphic" in2="effect1_dropShadow_253_15202" result="shape"/>
</filter>
</defs>
</svg>
