<svg width="32" height="30" viewBox="0 0 32 30" fill="none" xmlns="http://www.w3.org/2000/svg">
<g id="Group 1000019214">
<path id="Vector" d="M0 26.0895C0 28.2504 1.72506 30 3.85553 30H27.3445C29.4749 30 31.2 28.2504 31.2 26.0895V3.91049C31.2041 1.74965 29.4749 0 27.3445 0H3.85553C1.72506 0 0 1.74965 0 3.91049V26.0895Z" fill="#00B0DC"/>
<g id="Group 1000019213">
<path id="Vector_2" d="M6.6001 18.9255C6.6001 17.7896 6.6001 17.2217 6.85576 16.8045C6.99881 16.5711 7.19509 16.3748 7.42853 16.2317C7.84574 15.9761 8.41366 15.9761 9.5495 15.9761H10.5037C12.1394 15.9761 12.9573 15.9761 13.4655 16.4842C13.9736 16.9924 13.9736 17.8103 13.9736 19.446V20.4002C13.9736 21.5361 13.9736 22.104 13.718 22.5212C13.5749 22.7546 13.3786 22.9509 13.1452 23.0939C12.728 23.3496 12.1601 23.3496 11.0242 23.3496C9.32044 23.3496 8.46856 23.3496 7.84275 22.9661C7.49259 22.7516 7.19818 22.4571 6.98359 22.1069C6.6001 21.4811 6.6001 20.6293 6.6001 18.9255Z" stroke="white" stroke-width="2"/>
<path id="Vector_3" d="M16.5757 8.94941C16.5757 7.81356 16.5757 7.24564 16.8313 6.82844C16.9744 6.59499 17.1707 6.39872 17.4041 6.25566C17.8213 6 18.3892 6 19.5251 6C21.2289 6 22.0808 6 22.7065 6.38349C23.0567 6.59808 23.3512 6.89249 23.5657 7.24265C23.9492 7.86846 23.9492 8.72034 23.9492 10.4241C23.9492 11.56 23.9492 12.1279 23.6936 12.5451C23.5505 12.7785 23.3542 12.9748 23.1208 13.1179C22.7036 13.3735 22.1357 13.3735 20.9998 13.3735H20.0456C18.4099 13.3735 17.592 13.3735 17.0838 12.8654C16.5757 12.3572 16.5757 11.5394 16.5757 9.90363V8.94941Z" stroke="white" stroke-width="2"/>
<path id="Vector_4" d="M19.1794 9.68688C19.1794 9.23978 19.1794 9.01623 19.2914 8.85838C19.331 8.80268 19.3796 8.75405 19.4353 8.71454C19.5931 8.60254 19.8167 8.60254 20.2638 8.60254C20.7109 8.60254 20.9344 8.60254 21.0923 8.71454C21.148 8.75405 21.1966 8.80268 21.2361 8.85838C21.3481 9.01623 21.3481 9.23978 21.3481 9.68688C21.3481 10.134 21.3481 10.3575 21.2361 10.5154C21.1966 10.5711 21.148 10.6197 21.0923 10.6592C20.9344 10.7712 20.7109 10.7712 20.2638 10.7712C19.8167 10.7712 19.5931 10.7712 19.4353 10.6592C19.3796 10.6197 19.331 10.5711 19.2914 10.5154C19.1794 10.3575 19.1794 10.134 19.1794 9.68688Z" fill="white"/>
<path id="Vector_5" d="M15.9248 23.3496C15.9248 23.7089 16.2161 24.0002 16.5754 24.0002C16.9347 24.0002 17.226 23.7089 17.226 23.3496H15.9248ZM21.3465 15.3254H19.6116V16.6266H21.3465V15.3254ZM15.9248 20.7471V23.3496H17.226V20.7471H15.9248ZM19.6116 15.3254C19.016 15.3254 18.5203 15.3247 18.1204 15.3653C17.7096 15.4071 17.3286 15.498 16.985 15.7275L17.7079 16.8094C17.802 16.7465 17.9443 16.6912 18.2521 16.6599C18.5708 16.6274 18.9889 16.6266 19.6116 16.6266V15.3254ZM17.226 19.0122C17.226 18.3895 17.2268 17.9714 17.2592 17.6527C17.2906 17.3449 17.3459 17.2027 17.4088 17.1085L16.3269 16.3857C16.0973 16.7292 16.0064 17.1103 15.9647 17.521C15.924 17.9209 15.9248 18.4166 15.9248 19.0122H17.226ZM16.985 15.7275C16.7245 15.9015 16.5009 16.1252 16.3269 16.3857L17.4088 17.1085C17.4879 16.9901 17.5895 16.8885 17.7079 16.8094L16.985 15.7275Z" fill="white"/>
<path id="Vector_6" d="M24.5998 15.976C24.5998 15.6167 24.3085 15.3254 23.9492 15.3254C23.5899 15.3254 23.2986 15.6167 23.2986 15.976H24.5998ZM19.6118 24.0002H21.3468V22.699H19.6118V24.0002ZM24.5998 19.0122V15.976H23.2986V19.0122H24.5998ZM21.3468 24.0002C21.7421 24.0002 22.0711 24.0005 22.3404 23.9821C22.6154 23.9634 22.8752 23.923 23.1272 23.8186L22.6292 22.6164C22.5623 22.6441 22.4606 22.6697 22.2518 22.684C22.0371 22.6986 21.7599 22.699 21.3468 22.699V24.0002ZM23.2986 20.7471C23.2986 21.1602 23.2982 21.4375 23.2836 21.6522C23.2693 21.861 23.2438 21.9626 23.216 22.0296L24.4182 22.5275C24.5226 22.2756 24.563 22.0158 24.5817 21.7407C24.6001 21.4715 24.5998 21.1425 24.5998 20.7471H23.2986ZM23.1272 23.8186C23.7117 23.5765 24.1761 23.112 24.4182 22.5275L23.216 22.0296C23.106 22.2952 22.8949 22.5063 22.6292 22.6164L23.1272 23.8186Z" fill="white"/>
<path id="Vector_7" d="M6.6001 10.4241C6.6001 8.72034 6.6001 7.86846 6.98359 7.24265C7.19818 6.89249 7.49259 6.59808 7.84275 6.38349C8.46856 6 9.32044 6 11.0242 6C12.1601 6 12.728 6 13.1452 6.25566C13.3786 6.39872 13.5749 6.59499 13.718 6.82844C13.9736 7.24564 13.9736 7.81356 13.9736 8.94941V9.90363C13.9736 11.5394 13.9736 12.3572 13.4655 12.8654C12.9573 13.3735 12.1394 13.3735 10.5037 13.3735H9.5495C8.41366 13.3735 7.84574 13.3735 7.42853 13.1179C7.19509 12.9748 6.99881 12.7785 6.85576 12.5451C6.6001 12.1279 6.6001 11.56 6.6001 10.4241Z" stroke="white" stroke-width="2"/>
<path id="Vector_8" d="M9.20264 9.68688C9.20264 9.23978 9.20264 9.01623 9.31464 8.85838C9.35415 8.80268 9.40278 8.75405 9.45848 8.71454C9.61633 8.60254 9.83987 8.60254 10.287 8.60254C10.7341 8.60254 10.9576 8.60254 11.1155 8.71454C11.1712 8.75405 11.2198 8.80268 11.2593 8.85838C11.3713 9.01623 11.3713 9.23978 11.3713 9.68688C11.3713 10.134 11.3713 10.3575 11.2593 10.5154C11.2198 10.5711 11.1712 10.6197 11.1155 10.6592C10.9576 10.7712 10.7341 10.7712 10.287 10.7712C9.83987 10.7712 9.61633 10.7712 9.45848 10.6592C9.40278 10.6197 9.35415 10.5711 9.31464 10.5154C9.20264 10.3575 9.20264 10.134 9.20264 9.68688Z" fill="white"/>
<path id="Vector_9" d="M9.20264 19.6627C9.20264 19.2156 9.20264 18.9921 9.31464 18.8342C9.35415 18.7785 9.40278 18.7299 9.45848 18.6904C9.61633 18.5784 9.83987 18.5784 10.287 18.5784C10.7341 18.5784 10.9576 18.5784 11.1155 18.6904C11.1712 18.7299 11.2198 18.7785 11.2593 18.8342C11.3713 18.9921 11.3713 19.2156 11.3713 19.6627C11.3713 20.1098 11.3713 20.3334 11.2593 20.4912C11.2198 20.5469 11.1712 20.5955 11.1155 20.6351C10.9576 20.7471 10.7341 20.7471 10.287 20.7471C9.83987 20.7471 9.61633 20.7471 9.45848 20.6351C9.40278 20.5955 9.35415 20.5469 9.31464 20.4912C9.20264 20.3334 9.20264 20.1098 9.20264 19.6627Z" fill="white"/>
<path id="Vector_10" d="M18.7458 19.6626C18.7458 19.0535 18.7459 18.7489 18.892 18.53C18.9553 18.4353 19.0366 18.354 19.1314 18.2907C19.3502 18.1445 19.6548 18.1445 20.2639 18.1445C20.8731 18.1445 21.1776 18.1445 21.3965 18.2907C21.4912 18.354 21.5725 18.4353 21.6358 18.53C21.782 18.7489 21.782 19.0535 21.782 19.6626C21.782 20.2717 21.782 20.5763 21.6358 20.7952C21.5725 20.8899 21.4912 20.9712 21.3965 21.0345C21.1776 21.1807 20.8731 21.1807 20.2639 21.1807C19.6548 21.1807 19.3502 21.1807 19.1314 21.0345C19.0366 20.9712 18.9553 20.8899 18.892 20.7952C18.7459 20.5763 18.7458 20.2717 18.7458 19.6626Z" fill="white"/>
</g>
</g>
</svg>
