<svg width="71" height="100" viewBox="0 0 71 100" fill="none" xmlns="http://www.w3.org/2000/svg">
<g id="XMLID_59_" opacity="0.12">
<path id="XMLID_118_" d="M66.9654 24.7247C66.722 24.6902 66.5545 24.6378 66.3941 24.6542C66.0267 24.6936 65.6611 24.7993 65.2971 24.8152C65.1515 24.8228 64.9587 24.6932 64.8702 24.5712C64.7563 24.4126 64.8847 24.2441 65.0405 24.1258C65.4039 23.8443 65.8398 23.7306 66.2847 23.7052C67.4844 23.6353 68.6318 23.8376 69.7116 24.2865C69.8395 24.3393 69.9553 24.4364 70.0418 24.5388C70.1883 24.7094 70.2338 24.9363 70.0646 25.1015C69.9583 25.2021 69.7309 25.2438 69.57 25.2319C69.3947 25.2164 69.2386 25.0975 69.0674 25.0403C68.6959 24.9186 68.3203 24.8044 67.8897 24.6711C67.6218 25.19 67.3833 25.6571 67.1411 26.1192C66.0702 28.1704 65.3189 30.313 64.7916 32.5185C64.7337 32.7538 64.6889 32.9952 64.6613 33.2352C64.5348 34.3685 65.0833 35.2271 66.2115 35.6545C66.4805 35.7538 66.7652 35.8198 67.0471 35.8907C69.5754 36.5093 71.2483 38.0743 72.4952 40.1009C72.8896 40.7386 72.9579 41.4471 72.8361 42.1895C72.5596 43.8713 71.8657 45.3853 70.6288 46.6859C70.4317 46.8944 70.232 47.1016 69.9789 47.3685C70.1664 47.4551 70.3083 47.5643 70.4661 47.5873C72.2116 47.8475 73.9673 47.9158 75.7538 47.6864C78.3434 47.3506 80.8728 46.7904 83.332 45.9077C83.9257 45.6952 84.5316 45.5133 85.1338 45.3266C88.1941 44.369 91.1287 43.1348 93.9585 41.6621C94.3175 41.4753 94.6628 41.2604 95.0005 41.0358C95.6192 40.6227 95.9217 40.0137 96.0762 39.3644C96.2908 38.4526 95.7108 37.6669 94.7203 37.4777C94.2908 37.3948 93.8497 37.3439 93.4086 37.3336C91.5619 37.2981 89.73 37.3412 87.9143 37.9003C85.5967 38.6144 83.3709 39.5145 81.212 40.5921C80.2179 41.0876 79.2176 41.5709 78.1986 42.0175C77.0563 42.5194 75.8686 42.0926 75.3914 41.033C75.2507 40.7246 75.1851 40.3824 75.0873 40.0564C74.9363 39.5343 75.0285 39.0528 75.3467 38.5727C75.9609 37.6458 76.6604 36.7772 77.4774 35.997C79.7426 33.8392 82.2887 32.0669 85.3354 31C85.5065 30.9418 85.6689 30.8639 85.8216 30.8034C85.8297 30.5108 85.6084 30.5302 85.4563 30.4912C85.177 30.4215 84.8721 30.4086 84.6193 30.298C84.4941 30.2464 84.4045 30.0335 84.3974 29.8836C84.3922 29.8 84.5714 29.652 84.6928 29.6176C84.8998 29.554 85.1321 29.5209 85.3443 29.5409C86.1931 29.6147 87.0157 29.7638 87.6985 30.2694C87.9217 30.4381 88.1902 30.5558 88.4312 30.7046C88.6514 30.8437 88.8155 31.0412 88.7795 31.296C88.7587 31.4486 88.6578 31.6266 88.5302 31.7299C88.4475 31.7947 88.231 31.7882 88.123 31.7352C87.8395 31.5918 87.5852 31.4026 87.2576 31.1921C86.6949 31.4251 86.1177 31.6608 85.5454 31.905C84.9663 32.1555 84.376 32.3851 83.8205 32.6808C81.4133 33.9588 79.3017 35.5792 77.5295 37.5747C77.1467 38.0063 76.8065 38.4731 76.4859 38.9459C76.0709 39.556 76.3587 40.7122 77.012 41.0265C77.1785 41.1096 77.4576 41.1043 77.6397 41.0324C78.3241 40.7527 78.9939 40.4349 79.6676 40.1221C81.1785 39.4222 82.6625 38.6538 84.2079 38.0323C85.6141 37.465 87.0842 37.0458 88.5332 36.5826C88.9192 36.4582 89.3313 36.3865 89.7355 36.3517C91.3591 36.2124 92.9744 36.1285 94.5961 36.2941C96.476 36.4853 97.9924 38.0655 97.0418 40.2814C96.7431 40.9764 96.2929 41.5734 95.6143 41.9994C95.2095 42.2554 94.8021 42.5103 94.3735 42.7273C92.2573 43.7934 90.1186 44.8179 87.8615 45.5818C85.1178 46.5141 82.4115 47.5603 79.5792 48.2084C76.4819 48.918 73.3787 49.2787 70.2256 48.8114C68.1644 48.5053 66.3927 47.7463 64.8531 46.5142C64.2758 46.0542 63.7436 45.5494 63.1868 45.0708C62.9758 44.8922 62.7552 44.7248 62.4112 44.4505C62.0369 45.1106 61.762 45.6419 61.4402 46.1516C61.1198 46.6587 60.7579 47.1405 60.3768 47.6852C60.6209 47.8229 60.8465 47.9177 61.0202 48.0634C61.1051 48.1339 61.148 48.319 61.1128 48.4276C61.0776 48.5361 60.9386 48.6653 60.8198 48.7009C60.6477 48.7494 60.448 48.7538 60.2733 48.72C59.72 48.6235 59.2432 48.369 58.8364 48.0314C58.6973 47.9172 58.6799 47.6814 58.5893 47.4586C58.7816 47.3977 58.9204 47.3151 59.0484 47.3212C59.3387 47.3367 59.54 47.2425 59.7188 47.0256C60.7342 45.7912 61.5648 44.4652 62.0162 42.9733C62.4738 41.4532 62.3542 39.9597 61.7991 38.5272C61.6185 38.0632 61.2903 37.6277 60.9348 37.2576C60.197 36.4894 59.3649 35.8587 58.4407 35.3788L58.8946 34.665C59.9076 35.1796 60.7788 35.869 61.5869 36.6291C62.2925 37.2919 62.7356 38.0986 62.9437 39.0184C63.2002 40.1602 63.3135 41.3169 63.068 42.492C62.9727 42.944 63.0772 43.2699 63.4493 43.5759C64.2347 44.2195 64.9599 44.9287 65.7493 45.571C66.4807 46.1709 67.2875 46.6839 68.2229 47.0223C70.3178 45.7966 71.3168 44.0055 71.6745 41.8558C71.7399 41.468 71.698 41.0898 71.4931 40.7613C71.2042 40.2971 70.9224 39.8144 70.5495 39.4113C70.0269 38.8549 69.4652 38.3209 68.8429 37.865C68.3961 37.5401 67.8369 37.338 67.3072 37.1246C66.9392 36.9796 66.5383 36.9099 66.1517 36.8093C64.2444 36.3184 63.1929 34.8687 63.5274 33.0266C63.8491 31.2534 64.3537 29.5053 65.1987 27.8584C65.7305 26.8217 66.3445 25.8199 66.9654 24.7247Z" fill="#00B0DC"/>
<path id="XMLID_110_" d="M40.1034 34.1917C38.9888 34.7811 37.9454 35.3376 36.8958 35.8819C35.7318 36.4829 34.4924 36.8738 33.2036 37.1136C31.2658 37.4696 29.3756 37.4221 27.5119 36.88C26.0525 36.4559 25.0654 35.5993 24.4426 34.3323C23.5165 32.4495 23.5829 30.5593 24.5906 28.6471C25.2555 27.3807 26.0516 26.1967 27.0856 25.1509C28.1278 24.0964 29.346 23.2952 30.7987 22.8245C32.432 22.2965 34.0791 21.8312 35.7802 21.5848C38.9536 21.1177 41.9777 21.4545 44.8319 22.7077C45.9944 23.2198 47.0535 23.8563 48.0069 24.6504C49.4183 25.8219 50.7822 27.031 51.7919 28.5394C52.1167 29.0242 52.409 29.5316 52.7107 30.0339C52.961 30.4468 53.2058 30.8634 53.4481 31.2789C53.7205 31.7457 54.1488 32.0188 54.6621 32.2466C55.9461 32.8117 57.2132 33.4066 58.4677 34.0239C58.5121 34.0444 58.5577 34.0686 58.5993 34.094L58.1442 34.8099C57.2623 34.3491 56.2912 34.0224 55.2331 33.8432C54.8432 33.7757 54.4254 33.7922 54.0266 33.8332C53.7927 33.8565 53.5706 34.0042 53.3612 34.0889C53.4109 34.5186 53.7735 34.367 53.9687 34.476C54.1314 34.5668 54.2782 34.6565 54.2784 34.8538C54.2783 35.104 54.0994 35.2278 53.8695 35.2905C52.806 35.5687 51.6158 35.1345 51.1311 34.2692C51.061 34.1429 51.0647 33.9037 51.1517 33.7969C51.2318 33.6962 51.4755 33.6555 51.6339 33.6724C51.8385 33.695 52.0311 33.8028 52.242 33.8783C52.5762 33.4571 52.5359 33.063 52.3965 32.6638C51.6898 30.6322 50.6446 28.7851 49.0432 27.263C48.335 26.5884 47.5958 25.934 46.8191 25.328C44.8472 23.791 42.5275 22.9725 39.9404 22.6781C37.5778 22.4061 35.2879 22.7965 33.0095 23.4049C32.4323 23.5574 31.8695 23.7542 31.2983 23.9251C30.2428 24.2414 29.3145 24.7636 28.5161 25.4865C27.0272 26.8353 25.9375 28.4154 25.3072 30.2485C24.7882 31.7576 25.1897 33.1069 25.9751 34.3834C26.4132 35.0927 27.1267 35.4787 27.9407 35.7454C29.5729 36.2775 31.2599 36.3406 32.9678 36.0066C33.9478 35.8118 34.924 35.5308 35.865 35.1897C36.9829 34.7865 38.0604 34.2801 39.154 33.8093C39.3219 33.7398 39.4736 33.6348 39.6449 33.5418C39.707 33.095 39.4244 32.8205 39.1615 32.5519C38.9358 32.3225 38.7135 32.1102 38.828 31.722C39.2282 31.5159 39.6151 31.5539 39.9461 31.8069C41.1653 32.7364 41.6611 33.9541 41.4235 35.4431C41.4049 35.569 41.3216 35.7276 41.2146 35.8002C41.0739 35.8916 40.8731 35.9553 40.7133 35.9408C40.6089 35.9333 40.4801 35.7768 40.448 35.6649C40.3824 35.4376 40.3878 35.1898 40.3358 34.9561C40.2791 34.7015 40.1876 34.4559 40.1034 34.1917Z" fill="#00B0DC"/>
<path id="XMLID_104_" d="M31.3318 32.1591C31.2586 32.2188 31.0625 32.1594 30.926 32.1337C30.8617 32.1197 30.7947 32.07 30.7528 32.0164C30.2452 31.3831 29.9276 30.6693 29.8638 29.867C29.8311 29.4904 29.9585 29.1441 30.4099 28.8633C30.5943 29.2445 30.7478 29.5585 30.8952 29.8603C31.0235 29.8136 31.1005 29.7993 31.1585 29.7606C32.9859 28.5759 35 27.9074 37.1666 27.5835C39.6051 27.2201 41.9538 27.4727 44.2537 28.0892C45.2734 28.3637 46.2475 28.7824 47.0575 29.4151C48.6854 30.6841 49.2175 32.3976 48.9639 34.3621C48.8426 35.2939 48.4526 36.1671 47.9517 36.9984C47.8163 37.2257 47.628 37.4535 47.7051 37.8038C48.0447 37.755 48.3275 37.7079 48.6138 37.6719C50.9125 37.3873 53.1001 37.5997 55.1195 38.6414C56.3833 39.2904 57.2638 40.233 57.7178 41.5053C58.381 43.3697 58.0467 45.1754 56.8732 46.8397C55.3096 49.0531 53.2296 50.7413 50.6085 51.8088C50.2659 51.9498 49.9209 52.0834 49.5808 52.2317C47.4743 53.1443 45.2735 53.5863 42.993 53.6768C42.5501 53.6936 42.1057 53.7189 41.6676 53.7909C40.8924 53.919 40.1246 53.9414 39.3507 53.8645C38.9164 53.8198 38.4663 53.855 38.0253 53.857C37.8642 53.8574 37.7385 53.9053 37.7168 54.129C39.2182 55.3895 40.9658 56.3025 42.9825 56.7757C45.492 57.3643 47.9356 57.1715 50.3189 56.0254C51.6856 55.3695 53.0797 54.7637 54.4537 54.1237C54.7016 54.0107 54.9986 53.9328 55.1926 53.6485C54.9032 53.5335 54.6665 53.4647 54.4589 53.3502C54.2448 53.2357 54.2621 52.9445 54.4766 52.8442C54.6415 52.7676 54.819 52.6688 54.9923 52.6585C56.4511 52.5812 57.6512 53.0356 58.5561 54.0799C58.5968 54.1298 58.6446 54.2018 58.6414 54.2595C58.6235 54.407 58.6305 54.5973 58.5507 54.6975C58.5451 54.7074 58.5343 54.7149 58.5275 54.7211C58.4216 54.8093 58.1659 54.8377 58.029 54.7838C57.8373 54.7108 57.6923 54.538 57.5276 54.4058C57.3461 54.2627 57.1659 54.1172 56.9367 53.9366C54.9266 55.8721 52.4388 56.9015 49.8257 57.7639C49.8179 58.9414 50.4731 59.7488 51.2488 60.5058C51.7572 60.4197 52.1446 60.1997 52.5266 59.9834C53.2661 59.5708 54.0021 59.1472 54.7304 58.7139C56.3997 57.721 57.7246 56.3977 58.9392 54.9735C59.0612 54.8336 59.1807 54.6924 59.2989 54.5476C59.5476 54.2479 59.7388 53.8875 59.877 53.5338C60.0152 53.18 60.1042 52.7973 60.1241 52.4263C60.1655 51.6757 59.7536 51.3079 58.9245 51.3052C58.6697 51.3029 58.4104 51.3607 58.1527 51.3695C57.727 51.3848 57.6291 51.2679 57.583 50.7355C57.6348 50.6847 57.6776 50.6265 57.7344 50.5842C58.4625 50.0355 59.3077 49.7838 60.2006 49.6509C61.116 49.5189 61.9532 49.1888 62.788 48.7298C62.6244 48.5203 62.4747 48.3732 62.3786 48.2011C62.2026 47.8861 62.4387 47.5682 62.8359 47.574C62.9798 47.575 63.1393 47.5832 63.2656 47.6384C64.0585 47.9828 64.6753 48.9968 64.5841 49.8179C64.5669 49.9813 64.4953 50.1539 64.4035 50.2985C64.2811 50.4913 64.0692 50.5929 63.8338 50.5621C63.6039 50.5276 63.4231 50.4005 63.3883 50.1725C63.3546 49.9481 63.3515 49.7161 63.3341 49.44C62.3333 49.8037 61.3969 50.1409 60.4656 50.4806C60.4296 50.492 60.3932 50.5157 60.3752 50.5417C60.3572 50.5676 60.3626 50.6044 60.3492 50.6917C61.3862 51.5726 61.2766 52.7155 60.8457 53.8751C60.6533 54.394 60.3606 54.9101 59.9967 55.3435C58.5769 57.0312 57.0532 58.6242 55.0661 59.7663C54.3301 60.1899 53.603 60.627 52.8823 61.0701C52.7382 61.1562 52.6308 61.2936 52.4593 61.4513C53.5907 62.1077 54.5561 62.8776 55.8419 63.1692C55.9666 62.9494 56.1042 62.7761 56.1658 62.5864C56.6019 61.2671 57.3721 60.1114 58.3172 59.0583C58.8952 58.4153 59.5545 57.8316 60.1775 57.225C60.7555 56.663 61.4007 56.1851 62.1837 55.8985C62.4309 55.81 62.6111 55.6658 62.7868 55.4602C63.955 54.0832 65.4162 53.0753 67.1877 52.4755C69.5733 51.6669 72.0267 51.2948 74.512 51.4048C76.9366 51.5117 79.3555 51.7157 81.7608 51.9726C83.953 52.2059 86.1521 52.3458 88.3631 52.3665C91.0863 52.387 93.7369 51.9159 96.2754 50.832C97.471 50.3215 98.4061 49.5754 99.1065 48.4155C98.7749 48.4213 98.5273 48.4005 98.2872 48.436C98.0311 48.4767 97.7875 48.5761 97.5346 48.6401C97.2405 48.713 96.9639 48.6912 96.647 48.4857C96.8365 48.3021 96.9523 48.1094 97.128 48.0254C98.4454 47.381 99.7626 47.3162 101.043 47.97C101.29 48.0964 101.509 48.2943 101.684 48.5025C101.807 48.6498 101.869 48.8653 101.889 49.0615C101.916 49.2921 101.773 49.4506 101.433 49.4774C100.995 49.0509 100.501 48.6139 99.7083 48.547C99.5384 48.777 99.3546 48.9913 99.2083 49.226C98.4894 50.3898 97.4548 51.1896 96.1539 51.77C93.6299 52.8979 90.9871 53.4131 88.2642 53.3804C86.167 53.3561 84.0757 53.1881 81.9864 53.0397C79.606 52.8722 77.2339 52.6088 74.851 52.4744C72.4009 52.337 69.982 52.6659 67.6274 53.4545C66.8506 53.7128 66.0982 54.0322 65.4486 54.5237C65.3213 54.6207 65.1116 54.6953 65.1783 54.9598C65.2934 54.9942 65.4235 55.0543 65.5591 55.064C67.6422 55.2002 69.5709 55.8228 71.4696 56.5158C71.8102 56.6388 72.1497 56.7582 72.4919 56.8726C74.2395 57.4615 76.0251 57.9371 77.86 58.2734C78.4324 58.3757 79.0244 58.4434 79.6081 58.4387C80.0374 58.4344 80.4846 58.3231 80.9022 58.1887C81.1157 58.119 81.2788 57.8952 81.5283 57.6926C79.09 56.0462 76.3983 55.5822 73.4928 55.8079C73.2389 56.6785 73.2389 56.6785 72.5491 56.737C72.1521 55.868 72.2415 55.0212 72.8277 54.2075C72.9935 53.9787 73.1974 53.7176 73.5314 53.7596C73.935 53.812 73.8328 54.1544 73.8587 54.4156C73.8659 54.4782 73.9116 54.5366 73.9572 54.6356C74.4095 54.6544 74.8838 54.6865 75.3631 54.6865C77.3581 54.6885 79.2111 55.161 80.9357 56.0104C81.5374 56.31 82.1076 56.6824 82.6332 57.0872C83.1304 57.4726 83.0969 57.8965 82.6275 58.3248C81.7568 59.1193 80.7471 59.5973 79.5185 59.5348C79.0427 59.5113 78.5524 59.5248 78.0935 59.4251C76.5647 59.0931 75.0333 58.7598 73.5323 58.344C72.8178 58.1449 72.1151 57.9077 71.4167 57.663C70.8879 57.4781 70.3605 57.2906 69.8316 57.1118C68.3558 56.611 66.8472 56.226 65.2528 56.1254C64.9999 56.1083 64.7297 56.0521 64.485 56.1073C63.3173 56.3659 62.1707 56.7089 61.311 57.5708C60.5169 58.3634 59.7523 59.1851 59.0006 60.0128C58.3586 60.7166 57.958 61.5506 57.5916 62.3879C57.4164 62.7838 57.2016 63.2205 57.4254 63.729C57.6819 63.6356 57.9257 63.5705 58.1458 63.4603C59.1805 62.944 60.0682 62.2353 60.9432 61.5144C61.9592 60.6779 63.0414 59.9561 64.2568 59.3644C65.5768 58.7212 66.9024 58.439 68.3323 58.5634C69.0999 58.6281 69.8634 58.7002 70.6401 58.7721C70.8263 58.5652 71.0098 58.3633 71.2043 58.1477C71.3416 58.2298 71.446 58.2656 71.5111 58.3361C71.607 58.4334 71.677 58.553 71.7525 58.6689C72.1753 59.3128 71.7489 60.4123 71.1979 60.834C71.0775 60.9249 70.8497 60.9443 70.6854 60.9215C70.4817 60.8928 70.4082 60.7155 70.4354 60.5286C70.4731 60.2999 70.5267 60.0722 70.5831 59.7991C68.9424 59.4559 67.3704 59.2348 65.7685 59.9004C65.4967 60.0149 65.2088 60.1 64.9224 60.1766C64.2244 60.3653 63.6268 60.7188 63.0994 61.1857C62.4481 61.7668 61.7879 62.3407 61.1494 62.934C60.5858 63.459 59.9844 63.9291 59.2522 64.2361C58.002 64.7619 57.1139 65.645 56.4736 66.7453C55.9369 67.6629 55.426 68.5987 54.97 69.5536C54.1277 71.3055 53.3639 73.0811 53.0477 74.9762C53.0204 75.1287 52.8839 75.3057 53.243 75.512C53.3771 75.4493 53.609 75.3413 53.8383 75.2322C54.937 74.6957 56.0479 74.1897 57.1228 73.6141C57.8324 73.2313 58.5085 72.78 59.1601 72.3082C60.8258 71.1017 62.3204 69.7165 63.8047 68.3203C64.4108 67.7495 65.0016 67.1591 65.6026 66.5797C66.1804 66.0239 66.5038 65.3724 66.4992 64.6161C66.4928 63.8341 66.5947 63.0117 65.8365 62.4497C65.7823 62.4122 65.7582 62.3388 65.7258 62.2802C65.6149 62.0763 65.6703 61.8744 65.7923 61.6939C65.9281 61.4948 66.135 61.4252 66.3724 61.4756C66.5861 61.5214 66.7879 61.6114 67.0034 61.6424C69.6102 62.036 72.1517 62.655 74.6756 63.3281C76.0801 63.7056 77.4912 64.0426 78.9697 64.1332C79.9369 64.1935 80.8857 64.1299 81.8163 63.8087C82.7696 63.4823 83.5441 62.927 84.0056 62.0899C84.3463 61.4775 84.5424 60.8015 84.7892 60.152C84.8066 60.104 84.743 60.0309 84.6923 59.9234C84.423 60.0047 84.1504 60.1032 83.8697 60.1699C83.6354 60.2299 83.4318 60.1546 83.2979 59.9681C83.198 59.8316 83.303 59.5654 83.5171 59.4368C84.3521 58.9311 85.2341 58.7651 86.1598 59.0897C86.3191 59.1446 86.4684 59.2634 86.5847 59.3825C86.7622 59.5674 86.6355 59.8952 86.3601 59.9582C86.1566 60.0044 85.9443 59.9967 85.7722 60.0107C85.4304 60.7815 85.1079 61.4833 84.8077 62.1923C84.2801 63.4413 83.3159 64.2675 81.9933 64.7473C81.1088 65.0681 80.1913 65.1866 79.2612 65.1653C78.0052 65.1337 76.7786 64.9693 75.5694 64.6758C73.1669 64.0898 70.7581 63.5321 68.3495 62.9683C68.1124 62.9117 67.8664 62.8013 67.6377 63.0135C67.6259 63.0517 67.6089 63.0875 67.6105 63.1194C67.6182 63.2912 67.6192 63.463 67.6455 63.631C67.8732 65.1634 67.3554 66.4761 66.1728 67.6065C64.178 69.5148 62.1975 71.4329 59.9876 73.1359C59.2333 73.7193 58.4474 74.2601 57.577 74.6777C56.1085 75.38 54.6314 76.0628 53.1618 76.7553C52.9285 76.8657 52.7028 76.9858 52.4665 77.1073C52.4053 77.3252 52.3355 77.5236 52.2948 77.7229C51.9212 79.6382 51.8326 81.5605 51.9952 83.4741C52.111 84.8333 52.7046 86.033 53.611 87.0748C53.9229 87.4338 54.2642 87.7815 54.8886 87.8268C54.9713 87.3508 55.0606 86.9153 55.1184 86.4777C55.4757 83.7976 56.6731 81.4369 58.4708 79.2911C59.6574 77.8758 61.0083 76.605 62.5151 75.4935C64.0153 74.382 65.593 73.3655 67.1251 72.2905C67.9666 71.7038 68.8148 71.117 69.5977 70.4658C70.0387 70.0992 70.3674 69.6121 70.7173 69.1629C70.8179 69.0318 70.8933 68.8235 70.861 68.6777C70.7102 67.9537 70.5221 67.2373 70.3306 66.4634C70.0686 66.601 69.8493 66.7272 69.6214 66.8339C69.2891 66.9858 68.9585 66.9204 68.8481 66.698C68.718 66.4354 68.8999 66.242 69.0541 66.0453C69.0761 66.018 69.1059 65.9944 69.1357 65.9708C69.9264 65.3232 70.8485 65.1445 71.8376 65.2646C72.1848 65.3066 72.4232 65.4883 72.5285 65.7426C72.3551 66.2453 71.8187 66.0101 71.5667 66.333C71.5534 66.866 71.7614 67.3734 71.8922 67.9013C71.9996 68.3372 72.2762 68.6021 72.6967 68.7869C73.8503 69.2885 74.9997 69.7975 76.2316 70.1264C77.3717 70.4317 78.5344 70.5292 79.7158 70.1711C81.7747 69.5451 83.4739 68.4476 84.7088 66.7617C86.1732 64.758 86.9821 62.5265 87.4954 60.2082C87.636 59.5782 87.5506 58.9124 87.5452 58.2618C87.5411 57.8984 87.3541 57.6376 86.9929 57.4583C86.5133 57.2212 86.0632 56.9323 85.6115 56.652C85.4057 56.5227 85.1991 56.3775 85.033 56.2073C84.7864 55.9532 84.952 55.5279 85.3148 55.4961C85.5994 55.4748 85.905 55.4975 86.1731 55.5746C87.468 55.9544 88.7944 56.1743 90.1631 56.233C92.1303 56.3187 94.0724 56.1187 95.9767 55.5335C97.685 55.0105 99.1759 54.1471 100.368 52.884C104.121 48.9175 104.872 44.5245 102.995 39.7846C102.937 39.6391 102.817 39.5151 102.697 39.3444C102.597 39.4915 102.526 39.5708 102.485 39.6609C102.349 39.963 102.218 40.2639 102.084 40.5636L101.476 40.3512C101.719 39.8122 101.894 39.2384 102.012 38.6356C102.097 38.2136 102.002 37.8364 101.757 37.4706C100.576 35.7194 99.2031 34.1225 97.5197 32.7717C96.9445 32.3097 96.3128 31.9183 95.6093 31.6246C94.5906 31.1978 93.541 31.1961 92.4852 31.5468C91.6416 31.8303 90.821 32.1774 90.0044 32.5233C88.5601 33.1308 87.2565 33.9592 85.9616 34.8071C85.627 35.0265 85.2706 35.2266 84.9023 35.3899C84.6866 35.4866 84.4622 35.4017 84.3243 35.2165C84.1761 35.0203 84.2317 34.8122 84.4174 34.6643C84.7914 34.3695 85.1615 34.0699 85.5709 33.8227C87.4345 32.7014 89.347 31.6619 91.3806 30.8373C91.79 30.6711 92.2044 30.5134 92.587 30.3598C92.8108 29.8087 92.5065 29.4594 92.1829 29.1386C91.139 28.1018 89.9335 27.246 88.6181 26.5201C87.0588 25.6629 85.3497 25.4346 83.5255 25.7046C81.9254 25.9442 80.4537 26.5422 79.0048 27.21C78.738 27.333 78.4933 27.5098 78.2618 27.6864C77.65 28.1518 77.0483 28.6281 76.4455 29.1007C74.8755 30.3295 73.7986 31.864 73.0842 33.6219C73.0342 33.739 73.0272 33.8729 72.9915 34.0403C73.1722 34.0863 73.3041 34.1317 73.4421 34.1487C73.6605 34.1747 73.8838 34.1688 74.0994 34.1998C74.3753 34.24 74.5937 34.5091 74.5994 34.7828C74.608 35.0049 74.3982 35.2072 74.079 35.2374C73.6738 35.2746 73.2677 35.2959 72.8623 35.2988C71.4186 35.3145 70.2444 34.7567 69.213 33.9064C68.9686 33.7063 68.9347 33.4071 69.0877 33.1662C69.266 32.8807 69.5959 32.762 69.9496 32.891C70.3228 33.026 70.6735 33.2067 71.0439 33.3466C71.2345 33.4159 71.4462 33.442 71.6441 33.4866C71.8822 33.0668 72.1064 32.706 72.2954 32.3321C73.3543 30.2503 74.7357 28.4046 76.7754 27.0249C76.882 26.9526 76.9418 26.8182 77.0355 26.6994C76.9118 26.5644 76.8295 26.4547 76.7254 26.3661C75.7534 25.5153 74.7884 24.6521 73.796 23.8198C71.693 22.0571 69.2018 20.9036 66.5124 20.0823C65.4717 19.7638 64.3792 19.6176 63.2602 19.64C62.0036 19.6673 60.8464 20.0117 59.7862 20.6657C58.9926 21.1562 58.7266 21.7875 58.9183 22.6364C58.9484 22.7687 58.989 22.8996 59.0377 23.0281C59.3176 23.8024 59.4421 24.6078 59.573 25.4192C59.8219 26.9489 59.8939 28.478 59.6325 30.0275C59.6239 30.089 59.664 30.1574 59.6958 30.2749C59.9126 30.3095 60.1611 30.3402 60.4013 30.3857C60.6847 30.4417 60.9857 30.4841 61.1176 30.8536C60.9858 30.9703 60.8537 31.1742 60.675 31.2288C60.2884 31.3432 59.8808 31.4136 59.4784 31.4459C58.3968 31.5354 57.4721 31.1395 56.5871 30.6623C56.4794 30.6032 56.4355 30.3679 56.4561 30.2216C56.4691 30.1466 56.6814 30.0327 56.8031 30.0266C57.119 30.0136 57.4346 30.0534 57.7931 30.0755C58.1016 29.2302 58.1903 28.4079 58.309 27.5964C58.3695 27.1944 58.3438 26.7649 58.2468 26.3742C57.9906 25.3148 57.6786 24.267 57.3731 23.2192C57.3187 23.0257 57.1895 22.8539 57.095 22.6732C56.5693 21.6607 55.6824 20.9551 54.6737 20.4238C50.8091 18.3805 46.6627 17.1294 42.1075 16.9236C38.3342 16.7517 34.7467 17.4103 31.292 18.9405C29.2786 19.8337 27.447 20.9853 25.8698 22.4757C24.5595 23.7154 23.4608 25.1089 22.9149 26.7608C21.9448 29.6877 22.026 32.6077 22.8822 35.4867C22.9908 35.8453 23.1459 36.1912 23.3173 36.5259C24.2517 38.3347 25.444 39.9667 26.9951 41.3654C28.5922 42.8103 30.479 43.8717 32.3876 44.912C32.512 44.982 32.6473 45.0445 32.7862 45.0774C34.347 45.4399 35.9135 45.7924 37.56 45.6678C39.9794 45.4887 42.302 44.8318 44.614 44.1357C45.0274 44.0088 45.4423 43.8389 45.8542 43.4308C45.7709 43.2708 45.6564 43.0964 45.5807 42.9056C45.521 42.7503 45.4608 42.5729 45.4805 42.4106C45.5013 42.2582 45.5897 42.0559 45.715 41.9798C45.8414 41.9073 46.076 41.9221 46.2207 41.9796C46.5817 42.1245 46.7565 42.4358 46.806 42.7828C46.979 43.9658 47.1864 45.146 46.9043 46.3557C46.8672 46.5255 46.8416 46.7038 46.7536 46.8532C46.6458 47.0434 46.4633 47.1742 46.2097 47.135C45.9588 47.097 45.8168 46.9535 45.8164 46.7227C45.8151 46.5165 45.8653 46.3122 45.8773 46.1058C45.8998 45.736 45.9091 45.3664 45.9262 44.9193C45.5928 45.0209 45.3465 45.0847 45.11 45.1718C44.6211 45.345 44.1475 45.5781 43.647 45.7022C42.0618 46.0951 40.4741 46.4807 38.8779 46.8061C37.7641 47.0334 36.7556 47.4745 35.7713 47.9829C35.449 48.1519 35.1741 48.4051 34.8817 48.6254C34.6218 48.8232 34.5595 49.078 34.6134 49.3708C34.7627 50.1846 35.0844 50.9315 35.4994 51.6529C35.7769 52.1363 36.1286 52.4077 36.7736 52.4282C38.499 52.4772 40.2103 52.719 41.9521 52.4264C42.3145 52.3663 42.6889 52.3834 43.0583 52.3514C43.6845 52.3009 44.3116 52.2602 44.9362 52.1778C46.6055 51.9609 48.1671 51.4013 49.7291 50.7889C51.8568 49.9547 53.6191 48.6994 55.0878 47.0529C55.7154 46.3455 56.2417 45.5852 56.5094 44.6961C57.2093 42.3674 56.0571 40.352 54.2379 39.6116C54.0371 39.5313 53.852 39.4178 53.6468 39.3511C51.2136 38.5702 48.8153 38.382 46.4132 39.7812C44.0194 41.1718 41.408 41.979 38.6448 42.2953C38.3493 42.3302 38.0515 42.3516 37.7605 42.4073C36.8384 42.5861 35.9221 42.5462 35.0081 42.4326C34.8056 42.4076 34.5923 42.4307 34.3889 42.4303C34.3728 42.7251 34.3993 42.9679 34.3417 43.1968C34.2685 43.4996 33.8747 43.6325 33.6421 43.4347C33.4636 43.2806 33.2784 43.086 33.21 42.8768C32.83 41.6823 32.9774 40.5132 33.6516 39.388C33.7214 39.2706 33.8278 39.164 33.9353 39.0671C34.1011 38.9194 34.4419 38.8742 34.5366 39.0083C34.6249 39.1363 34.6904 39.3161 34.671 39.4661C34.6538 39.6296 34.5118 39.7759 34.4484 39.9398C34.3764 40.1247 34.3292 40.3179 34.2654 40.5346C34.4619 40.5818 34.5988 40.6357 34.7411 40.6453C37.5354 40.8357 40.2854 40.5194 42.9293 39.5217C44.8207 38.8089 46.3271 37.6287 47.1933 35.8287C48.4461 33.2255 47.7123 30.3968 44.3591 29.2815C43.6772 29.0538 42.9661 28.8719 42.2551 28.7305C38.8753 28.0672 35.5885 28.4502 32.4177 29.937C31.9511 30.1578 31.4935 30.3859 31.1364 30.813C31.2157 30.9743 31.2847 31.1246 31.3578 31.2737C31.4281 31.4276 31.5526 31.5786 31.5517 31.7309C31.5523 31.8745 31.4525 32.0621 31.3318 32.1591ZM105.166 45.1341C105.081 47.6347 104.167 49.936 102.67 52.0555C100.577 55.0121 97.6304 56.6992 93.9416 57.2643C92.5828 57.4719 91.221 57.5691 89.8546 57.4835C89.5686 57.4667 89.278 57.4696 88.9284 57.4609C88.9175 57.6365 88.8855 57.7682 88.9053 57.8896C89.0925 59.1633 88.949 60.4183 88.56 61.6659C88.0179 63.4037 87.3453 65.0937 86.3671 66.6799C85.0391 68.837 83.1111 70.3149 80.6539 71.2151C79.1333 71.7718 77.6038 71.8289 76.0838 71.4293C75.3833 71.246 74.7019 71.0061 74.0302 70.7489C73.3259 70.4798 72.6184 70.2279 71.9632 69.9938C71.8219 70.0751 71.7367 70.098 71.6967 70.1512C70.8178 71.319 69.6321 72.1769 68.4068 72.9946C67.4284 73.6491 66.4323 74.2766 65.4641 74.942C63.4577 76.3152 61.5867 77.8257 59.9918 79.6195C58.1488 81.6946 56.9292 84.0076 56.5899 86.6617C56.5384 87.0711 56.4762 87.4818 56.4115 87.8913C56.2223 89.0472 55.1025 89.5398 54.1126 89.1201C53.6463 88.9234 53.2238 88.6784 52.8873 88.3049C51.6789 86.9678 50.8364 85.46 50.533 83.6964C50.0342 80.7892 50.2624 77.8968 51.1725 75.0295C52.0205 72.3641 53.0385 69.7523 54.5408 67.3112C54.8584 66.7972 55.2073 66.2977 55.5328 65.7874C55.7412 65.466 56.0187 65.1735 56.1139 64.7625C55.8251 64.6291 55.5783 64.5027 55.3189 64.3985C53.5683 63.6991 51.9753 62.7796 50.5568 61.6104C49.5292 60.765 48.7923 59.7485 48.517 58.4621C48.4964 58.3654 48.4465 58.2738 48.3855 58.1209C48.1886 58.1266 47.9764 58.1128 47.7707 58.1455C44.4237 58.6753 41.4119 57.9825 38.6485 56.3479C37.3853 55.5995 36.2735 54.7058 35.3354 53.6214C33.7216 51.7543 32.9518 49.6319 33.2718 47.1683C33.287 47.0662 33.2798 46.9632 33.2869 46.7826C32.8196 46.5357 32.321 46.2743 31.8267 46.0054C31.3569 45.7511 30.8942 45.4845 30.4245 45.2301C28.5039 44.1936 26.7535 42.9553 25.2555 41.4283C24.0028 40.1518 23.0131 38.7069 22.2052 37.1497C21.651 36.0773 21.3077 34.9341 21.1524 33.7374C20.9881 32.4462 20.972 31.1487 21.0249 29.8394C21.1624 26.4875 22.7072 23.7108 25.3098 21.3789C26.0645 20.7022 26.889 20.0702 27.7582 19.5273C32.2862 16.6948 37.2066 15.4052 42.5591 15.7798C45.5576 15.9865 48.4408 16.5296 51.1757 17.6181C52.4101 18.1102 53.6472 18.6036 54.8492 19.1587C55.8263 19.6068 56.7324 20.1686 57.5119 20.971C57.6885 20.8563 57.8882 20.7647 58.0327 20.6257C59.5661 19.1431 61.4508 18.5115 63.5741 18.5073C65.1018 18.5054 66.5595 18.8296 67.9613 19.3335C69.5968 19.9174 71.1369 20.6754 72.6282 21.5137C73.1508 21.808 73.6438 22.1603 74.1015 22.5399C75.2614 23.4994 76.3914 24.4886 77.5335 25.4679C77.7725 25.6717 78.0074 25.8769 78.2837 26.1135C78.5654 26.0161 78.844 25.936 79.1115 25.8289C80.2809 25.353 81.4737 24.969 82.719 24.7183C85.2121 24.2181 87.4908 24.5536 89.5689 25.8218C90.5386 26.4161 91.4603 27.0661 92.278 27.8301C92.9996 28.503 93.6066 29.2507 93.7463 30.2781C93.9838 30.3224 94.191 30.3682 94.4025 30.4004C95.8096 30.6171 97.0186 31.2004 98.1163 32.0033C100.49 33.735 102.301 35.896 103.636 38.4068C104.751 40.5048 105.244 42.7675 105.166 45.1341Z" fill="#00B0DC"/>
<g id="XMLID_79_">
<g id="XMLID_80_">
<g id="XMLID_100_">
<path id="XMLID_102_" d="M31.3677 37.2058C31.3766 37.4264 31.5468 37.6459 31.3324 37.8672C31.1655 37.9472 31.0287 38.0379 31.1216 38.2376C31.5772 38.3531 32.0462 38.2835 32.5066 38.235C33.7216 38.1104 34.9438 38.0078 36.1531 37.8241C37.5444 37.6144 38.9016 37.2226 40.2257 36.7278C40.4588 36.6407 40.6972 36.5559 40.9365 36.4809C41.0675 36.4409 41.13 36.5386 41.181 36.6217C41.2496 36.7317 41.3439 36.8598 41.2203 36.9848C41.0981 37.1074 40.9577 37.2216 40.8025 37.3101C40.3286 37.5783 39.8101 37.7348 39.2866 37.8829C38.3863 38.1399 37.4508 38.2802 36.5831 38.6588L36.5054 38.6513C36.3651 38.6212 36.2334 38.6453 36.1053 38.7149L36.1279 38.7097C35.7817 38.5691 35.4206 38.6853 35.0702 38.7248C33.6531 38.8819 32.2403 39.1351 30.7699 39.0575C30.8988 39.2862 31.0049 39.4511 31.0908 39.6287C31.1423 39.734 31.0558 39.8227 30.9652 39.8783C30.8774 39.9288 30.7384 40.006 30.6801 39.976C30.1925 39.7266 29.7053 39.4709 29.2444 39.1804C28.9706 39.0105 28.9002 38.7021 28.8359 38.4059C28.7954 38.2178 28.8564 38.0702 29.0419 37.9862C29.6319 37.7213 30.2269 37.465 30.8192 37.2075C30.9178 37.1149 31.0403 37.0897 31.1685 37.0891C31.2649 37.0927 31.3294 37.1349 31.3677 37.2058Z" fill="#00B0DC"/>
</g>
<g id="XMLID_96_">
<path id="XMLID_98_" d="M74.0425 51.4039C74.0142 51.3091 73.9994 51.2078 73.9576 51.1194C73.825 50.838 74.0185 50.6942 74.2409 50.5575C74.231 50.3956 74.1017 50.4147 73.9838 50.4139C72.3702 50.3724 70.7598 50.603 69.1489 50.7013C68.9683 50.7125 68.7903 50.7249 68.6121 50.7435C68.3115 50.775 68.1569 50.6188 68.0542 50.389C67.9759 50.2144 68.0543 50.0302 68.2356 50.0005C68.4128 49.972 68.5897 49.9559 68.7691 49.941C70.1643 49.8346 71.558 49.7308 72.9452 49.6271C73.1608 49.3865 72.874 49.2607 72.8449 49.0805C72.8068 48.8584 72.9866 48.7965 73.1049 48.681C73.1427 48.6607 73.1846 48.639 73.2224 48.6187C73.4011 48.5877 73.578 48.6063 73.7591 48.6173C73.8517 48.6222 73.9386 48.637 74.0267 48.6556C74.3044 48.7048 74.4973 48.8975 74.7384 49.0055C75.2199 49.2052 75.7297 49.3205 76.2468 49.4171C76.4192 49.4493 76.5985 49.4752 76.7496 49.5448C77.0831 49.6984 77.1117 50.1396 76.8194 50.3763C76.5121 50.6218 76.165 50.7987 75.7904 50.9314C75.4561 51.0512 75.0932 51.1169 74.8253 51.3743C74.5638 51.4584 74.3024 51.467 74.0425 51.4039Z" fill="#00B0DC"/>
</g>
<g id="XMLID_93_">
<path id="XMLID_94_" d="M57.5802 78.1077C57.765 77.7818 57.8495 77.6385 57.9303 77.4903C58.7062 76.0367 59.9111 74.9358 61.2677 73.9544C62.4145 73.1267 63.6575 72.4423 64.9075 71.7796C66.6056 70.8786 67.8898 69.564 69.0763 68.1485C69.2516 67.9419 69.3598 67.6827 69.4855 67.4439C69.5471 67.324 69.569 67.1887 69.628 67.0676C69.7111 66.8926 69.8824 66.8295 70.0631 66.8294C70.2307 66.8295 70.3995 67.0837 70.3573 67.2776C70.2728 67.6714 70.1598 68.0583 69.898 68.395C69.6224 68.75 69.3594 69.1171 69.0397 69.4364C68.3963 70.0761 67.7303 70.693 67.058 71.304C66.6169 71.7063 66.0926 72.0053 65.5645 72.2994C64.3595 72.9736 63.1215 73.5923 61.9976 74.3966C61.1902 74.973 60.4357 75.5923 59.7547 76.2982C59.4872 76.5766 59.2708 76.8786 59.1031 77.197C59.2388 77.3617 59.3673 77.2602 59.4869 77.2258C59.6617 77.1735 59.8374 77.131 59.9615 77.2934C60.0955 77.4666 60.1132 77.6572 59.9482 77.8346C59.7588 78.0377 59.5617 78.2374 59.3546 78.4262C58.7883 78.9469 58.2234 79.4652 57.6471 79.9752C57.3812 80.211 57.1282 80.1622 56.9807 79.8591C56.908 79.7143 56.8292 79.5573 56.822 79.3994C56.7898 78.6425 56.6936 77.8962 56.5517 77.1566C56.5268 77.0184 56.5963 76.8959 56.7604 76.8511C56.9127 76.8101 57.0598 76.8409 57.1187 76.9702C57.2632 77.2842 57.3813 77.6108 57.5802 78.1077Z" fill="#00B0DC"/>
</g>
<g id="XMLID_85_">
<path id="XMLID_86_" d="M53.4038 24.8312C52.1922 23.9796 50.8686 23.2907 49.4782 22.7192C46.2962 21.4133 42.9535 20.7206 39.3871 21.0184C35.7901 21.318 32.434 22.3526 29.4289 24.4033C29.2887 24.4995 29.1561 24.6401 28.9221 24.548C28.9936 24.1555 29.273 23.8839 29.6022 23.6637C30.1407 23.3067 30.6748 22.9287 31.2508 22.6332C35.9128 20.2271 40.7647 19.4627 45.8133 20.5887C48.2475 21.1307 50.5663 21.9221 52.6315 23.2238C52.835 23.3523 53.0525 23.462 53.2685 23.5742C53.3297 23.6056 53.4009 23.6195 53.4691 23.6383C53.6709 23.4918 53.5344 23.3437 53.4921 23.1981C53.4354 23.0081 53.3442 22.8211 53.3262 22.6268C53.3096 22.4647 53.3907 22.2814 53.5662 22.1984C53.7458 22.1141 53.9283 22.1636 54.0591 22.2869C54.1782 22.4017 54.3049 22.5263 54.3724 22.674C54.8504 23.7044 55.2368 24.7683 55.5011 25.8735C55.5413 26.0402 55.5406 26.2038 55.4642 26.3672C55.3836 26.5381 55.2283 26.684 55.0486 26.6295C54.2459 26.3793 53.4494 26.1068 52.6586 25.8242C52.4883 25.7647 52.4014 25.6048 52.455 25.412C52.4932 25.2752 52.5744 25.1613 52.726 25.1146C52.8293 25.0834 52.9348 25.0658 53.0402 25.0482C53.1471 25.0281 53.2537 25.0142 53.3592 24.9966C53.4502 25.0102 53.49 24.975 53.4759 24.8897C53.4714 24.8687 53.4429 24.8492 53.4038 24.8312Z" fill="#00B0DC"/>
</g>
<g id="XMLID_83_">
<path id="XMLID_84_" d="M51.967 45.9462C51.6478 45.8149 51.273 45.8386 51.2129 45.4808C51.1917 45.3465 51.1869 45.1948 51.3516 45.1398C52.1018 44.9026 52.8568 44.6739 53.6103 44.4538C53.7654 44.41 53.8722 44.5027 53.9503 44.6228C54.0818 44.8265 54.1235 45.045 54.058 45.2859C53.8842 45.9346 53.7181 46.587 53.5326 47.2335C53.4933 47.3711 53.3466 47.4344 53.2011 47.4671C53.0251 47.5076 52.9467 47.3936 52.872 47.2845C52.7141 47.053 52.8233 46.7638 52.733 46.4762C52.3288 46.6546 52.0396 46.9513 51.7381 47.2237C50.3215 48.512 48.6807 49.4107 46.7847 49.8711C46.4034 49.9635 46.0236 50.0876 45.6493 50.2019C45.1954 50.3418 44.736 50.3827 44.2711 50.3587C44.0969 50.3502 43.9199 50.3124 43.7579 50.2596C43.5103 50.1799 43.3267 49.9304 43.3481 49.744C43.3649 49.5773 43.6601 49.436 43.9719 49.5172C44.5436 49.6682 45.0972 49.5648 45.654 49.4099C46.2068 49.2563 46.7597 49.1028 47.3081 48.9285C49.1362 48.3527 50.6139 47.2887 51.967 45.9462Z" fill="#00B0DC"/>
</g>
<g id="XMLID_81_">
<path id="XMLID_82_" d="M66.8457 41.094C66.6691 39.9726 66.4041 38.8796 65.7761 37.9054C65.1007 36.8528 64.2498 35.9645 63.135 35.3035C62.8397 35.1298 62.5501 34.9462 62.2839 34.7388C62.0832 34.5836 62.0416 34.3162 62.1722 34.2192C62.3315 34.1008 62.5048 34.1021 62.6765 34.1811C62.7702 34.2243 62.8693 34.2636 62.9573 34.3167C65.1565 35.6403 66.6815 37.4392 67.2946 39.8772C67.3592 40.1332 67.4063 40.3969 67.4735 40.6541C67.5383 40.9039 67.5092 41.1859 67.6984 41.4018C67.9471 41.4032 67.9651 41.2041 68.031 41.071C68.1513 40.8247 68.226 40.5606 68.349 40.3155C68.4117 40.1936 68.5621 40.1371 68.7157 40.1325C68.8827 40.1276 68.9679 40.2203 69.0267 40.3479C69.0989 40.5037 69.1301 40.6626 69.0602 40.8316C68.767 41.5262 68.4724 42.2233 68.1699 42.9168C68.1308 43.0087 68.0562 43.0938 67.9846 43.1676C67.8417 43.3092 67.6804 43.3387 67.5056 43.2362C67.4758 43.2193 67.4434 43.2013 67.4244 43.1769C67.0057 42.6949 66.5704 42.2305 66.0463 41.8415C65.8891 41.7252 65.8073 41.5053 65.9762 41.3065C66.1077 41.1502 66.2898 41.1649 66.4665 41.218C66.6599 41.3919 66.773 41.3026 66.8457 41.094Z" fill="#00B0DC"/>
</g>
</g>
</g>
</g>
</svg>
