<svg width="24" height="24" viewBox="0 0 24 24" fill="none" xmlns="http://www.w3.org/2000/svg">
<g id="Iconly/Light/Chat">
<g id="Chat">
<path id="Stroke 4" fill-rule="evenodd" clip-rule="evenodd" d="M19.2735 18.288C16.3427 21.2191 12.0029 21.8524 8.45143 20.21C7.92714 19.9989 7.4973 19.8283 7.08867 19.8283C5.95046 19.835 4.53373 20.9386 3.79742 20.2032C3.06111 19.4668 4.16558 18.049 4.16558 16.9039C4.16558 16.4952 4.00174 16.073 3.79067 15.5477C2.14746 11.9968 2.78162 7.65558 5.71242 4.72542C9.45374 0.982719 15.5322 0.98272 19.2735 4.72446C23.0216 8.47294 23.0148 14.5463 19.2735 18.288Z" stroke="#BBC2C3" stroke-width="1.7" stroke-linecap="round" stroke-linejoin="round"/>
<g id="Stroke 11">
<path fill-rule="evenodd" clip-rule="evenodd" d="M16.2701 11.9041H16.2787H16.2701Z" fill="#ADAEB5"/>
<path d="M16.2701 11.9041H16.2787" stroke="#ADAEB5" stroke-width="1.7" stroke-linecap="round" stroke-linejoin="round"/>
</g>
<g id="Stroke 13">
<path fill-rule="evenodd" clip-rule="evenodd" d="M12.4254 11.9041H12.434H12.4254Z" fill="#ADAEB5"/>
<path d="M12.4254 11.9041H12.434" stroke="#ADAEB5" stroke-width="1.7" stroke-linecap="round" stroke-linejoin="round"/>
</g>
<g id="Stroke 15">
<path fill-rule="evenodd" clip-rule="evenodd" d="M8.58065 11.9041H8.58928H8.58065Z" fill="#ADAEB5"/>
<path d="M8.58065 11.9041H8.58928" stroke="#ADAEB5" stroke-width="1.7" stroke-linecap="round" stroke-linejoin="round"/>
</g>
</g>
</g>
</svg>
