<svg width="24" height="24" viewBox="0 0 24 24" fill="none" xmlns="http://www.w3.org/2000/svg">
<g id="Iconsax/Linear/receiptedit">
<path id="Vector" d="M20.5 11.3003V7.04031C20.5 3.0103 19.56 2.00031 15.78 2.00031H8.22C4.44 2.00031 3.5 3.0103 3.5 7.04031V18.3003C3.5 20.9603 4.96 21.5903 6.73 19.6903L6.74 19.6803C7.56 18.8103 8.81 18.8803 9.52 19.8303L10.53 21.1803M8 7.00031H16M9 11.0003H15" stroke="#ADAEB5" stroke-width="1.5" stroke-linecap="round" stroke-linejoin="round"/>
<path id="Vector_2" d="M18.211 14.7703L14.671 18.3103C14.531 18.4503 14.401 18.7103 14.371 18.9003L14.181 20.2503C14.111 20.7403 14.451 21.0803 14.941 21.0103L16.291 20.8203C16.481 20.7903 16.751 20.6603 16.881 20.5203L20.421 16.9803C21.031 16.3703 21.321 15.6603 20.421 14.7603C19.531 13.8703 18.821 14.1603 18.211 14.7703Z" stroke="#ADAEB5" stroke-width="1.5" stroke-miterlimit="10" stroke-linecap="round" stroke-linejoin="round"/>
<path id="Vector_3" d="M17.7002 15.2803C18.0002 16.3603 18.8402 17.2003 19.9202 17.5003" stroke="#ADAEB5" stroke-width="1.5" stroke-miterlimit="10" stroke-linecap="round" stroke-linejoin="round"/>
</g>
</svg>
