<svg width="25" height="25" viewBox="0 0 25 25" fill="none" xmlns="http://www.w3.org/2000/svg">
<g id="Group 1000019213">
<path id="Vector" d="M0.999512 17.5159C0.999512 16.0645 0.999512 15.3388 1.32619 14.8058C1.50899 14.5075 1.75979 14.2566 2.05808 14.0739C2.59118 13.7472 3.31687 13.7472 4.76824 13.7472H5.98753C8.07764 13.7472 9.1227 13.7472 9.77201 14.3965C10.4213 15.0459 10.4213 16.0909 10.4213 18.181V19.4003C10.4213 20.8517 10.4213 21.5774 10.0947 22.1104C9.91188 22.4087 9.66105 22.6596 9.36275 22.8423C8.82966 23.169 8.10397 23.169 6.6526 23.169C4.47554 23.169 3.38701 23.169 2.58736 22.679C2.13993 22.4048 1.76373 22.0286 1.48953 21.5812C0.999512 20.7815 0.999512 19.693 0.999512 17.5159Z" stroke="#ADAEB5" stroke-width="1.7"/>
<path id="Vector_2" d="M13.7461 4.76872C13.7461 3.31736 13.7461 2.59167 14.0728 2.05857C14.2555 1.76027 14.5064 1.50948 14.8047 1.32668C15.3377 1 16.0634 1 17.5148 1C19.6919 1 20.7804 1 21.5801 1.49002C22.0275 1.76422 22.4037 2.14042 22.6779 2.58785C23.1679 3.3875 23.1679 4.47603 23.1679 6.65309C23.1679 8.10446 23.1679 8.83015 22.8412 9.36324C22.6585 9.66154 22.4076 9.91237 22.1093 10.0952C21.5763 10.4218 20.8506 10.4218 19.3992 10.4218H18.1799C16.0898 10.4218 15.0448 10.4218 14.3954 9.77249C13.7461 9.12319 13.7461 8.07813 13.7461 5.98802V4.76872Z" stroke="#ADAEB5" stroke-width="1.7"/>
<path id="Vector_3" d="M17.0728 5.71088C17.0728 5.13957 17.0728 4.85393 17.2159 4.65223C17.2664 4.58106 17.3285 4.51892 17.3996 4.46843C17.6014 4.32532 17.887 4.32532 18.4583 4.32532C19.0296 4.32532 19.3153 4.32532 19.517 4.46843C19.5882 4.51892 19.6502 4.58106 19.7008 4.65223C19.8439 4.85393 19.8439 5.13957 19.8439 5.71088C19.8439 6.28218 19.8439 6.56783 19.7008 6.76952C19.6502 6.8407 19.5882 6.90284 19.517 6.95333C19.3153 7.09644 19.0296 7.09644 18.4583 7.09644C17.887 7.09644 17.6014 7.09644 17.3996 6.95333C17.3285 6.90284 17.2664 6.8407 17.2159 6.76952C17.0728 6.56783 17.0728 6.28218 17.0728 5.71088Z" fill="#ADAEB5"/>
<path id="Vector_4" d="M12.9146 23.169C12.9146 23.6281 13.2868 24.0003 13.7459 24.0003C14.205 24.0003 14.5772 23.6281 14.5772 23.169H12.9146ZM19.8424 12.9158H17.6255V14.5785H19.8424V12.9158ZM12.9146 19.8436V23.169H14.5772V19.8436H12.9146ZM17.6255 12.9158C16.8644 12.9158 16.231 12.9148 15.72 12.9668C15.1952 13.0201 14.7082 13.1363 14.2693 13.4296L15.193 14.8121C15.3132 14.7317 15.495 14.661 15.8883 14.621C16.2955 14.5795 16.8298 14.5785 17.6255 14.5785V12.9158ZM14.5772 17.6267C14.5772 16.8311 14.5782 16.2968 14.6197 15.8896C14.6597 15.4963 14.7304 15.3145 14.8108 15.1943L13.4283 14.2706C13.135 14.7095 13.0189 15.1965 12.9655 15.7213C12.9136 16.2323 12.9146 16.8657 12.9146 17.6267H14.5772ZM14.2693 13.4296C13.9364 13.652 13.6507 13.9377 13.4283 14.2706L14.8108 15.1943C14.9119 15.0429 15.0417 14.9131 15.193 14.8121L14.2693 13.4296Z" fill="#ADAEB5"/>
<path id="Vector_5" d="M23.9996 13.7472C23.9996 13.288 23.6273 12.9158 23.1682 12.9158C22.7091 12.9158 22.3369 13.288 22.3369 13.7472H23.9996ZM17.626 24.0003H19.8429V22.3376H17.626V24.0003ZM23.9996 17.6267V13.7472H22.3369V17.6267H23.9996ZM19.8429 24.0003C20.348 24.0003 20.7684 24.0008 21.1125 23.9773C21.464 23.9533 21.796 23.9017 22.1179 23.7683L21.4816 22.2321C21.396 22.2676 21.2661 22.3003 20.9993 22.3185C20.725 22.3372 20.3707 22.3376 19.8429 22.3376V24.0003ZM22.3369 19.8436C22.3369 20.3715 22.3364 20.7257 22.3177 21.0001C22.2995 21.2669 22.2668 21.3968 22.2314 21.4824L23.7676 22.1186C23.9009 21.7967 23.9526 21.4647 23.9765 21.1133C24 20.7692 23.9996 20.3488 23.9996 19.8436H22.3369ZM22.1179 23.7683C22.8647 23.459 23.4582 22.8655 23.7676 22.1186L22.2314 21.4824C22.0908 21.8218 21.821 22.0915 21.4816 22.2321L22.1179 23.7683Z" fill="#ADAEB5"/>
<path id="Vector_6" d="M0.999512 6.65327C0.999512 4.47621 0.999512 3.38768 1.48953 2.58804C1.76373 2.1406 2.13993 1.7644 2.58736 1.49021C3.38701 1.00018 4.47554 1.00018 6.6526 1.00018C8.10397 1.00018 8.82966 1.00018 9.36275 1.32686C9.66105 1.50966 9.91188 1.76046 10.0947 2.05875C10.4213 2.59185 10.4213 3.31754 10.4213 4.76891V5.9882C10.4213 8.07831 10.4213 9.12337 9.77201 9.77268C9.1227 10.422 8.07764 10.422 5.98753 10.422H4.76824C3.31687 10.422 2.59118 10.422 2.05808 10.0953C1.75979 9.91255 1.50899 9.66172 1.32619 9.36343C0.999512 8.83033 0.999512 8.10464 0.999512 6.65327Z" stroke="#ADAEB5" stroke-width="1.7"/>
<path id="Vector_7" d="M4.3252 5.71088C4.3252 5.13957 4.3252 4.85393 4.46831 4.65223C4.5188 4.58106 4.58094 4.51892 4.65211 4.46843C4.8538 4.32532 5.13945 4.32532 5.71076 4.32532C6.28206 4.32532 6.56771 4.32532 6.7694 4.46843C6.84058 4.51892 6.90272 4.58106 6.95321 4.65223C7.09632 4.85393 7.09632 5.13957 7.09632 5.71088C7.09632 6.28218 7.09632 6.56783 6.95321 6.76952C6.90272 6.8407 6.84058 6.90284 6.7694 6.95333C6.56771 7.09644 6.28206 7.09644 5.71076 7.09644C5.13945 7.09644 4.8538 7.09644 4.65211 6.95333C4.58094 6.90284 4.5188 6.8407 4.46831 6.76952C4.3252 6.56783 4.3252 6.28218 4.3252 5.71088Z" fill="#ADAEB5"/>
<path id="Vector_8" d="M4.3252 18.4581C4.3252 17.8868 4.3252 17.6011 4.46831 17.3994C4.5188 17.3282 4.58094 17.2662 4.65211 17.2156C4.8538 17.0725 5.13945 17.0725 5.71076 17.0725C6.28206 17.0725 6.56771 17.0725 6.7694 17.2156C6.84058 17.2662 6.90272 17.3282 6.95321 17.3994C7.09632 17.6011 7.09632 17.8868 7.09632 18.4581C7.09632 19.0294 7.09632 19.315 6.95321 19.5167C6.90272 19.5879 6.84058 19.65 6.7694 19.7005C6.56771 19.8436 6.28206 19.8436 5.71076 19.8436C5.13945 19.8436 4.8538 19.8436 4.65211 19.7005C4.58094 19.65 4.5188 19.5879 4.46831 19.5167C4.3252 19.315 4.3252 19.0294 4.3252 18.4581Z" fill="#ADAEB5"/>
<path id="Vector_9" d="M16.5186 18.4579C16.5186 17.6796 16.5186 17.2904 16.7053 17.0107C16.7862 16.8897 16.8901 16.7858 17.0112 16.7049C17.2908 16.5181 17.68 16.5181 18.4583 16.5181C19.2367 16.5181 19.6259 16.5181 19.9055 16.7049C20.0266 16.7858 20.1304 16.8897 20.2114 17.0107C20.3981 17.2904 20.3981 17.6796 20.3981 18.4579C20.3981 19.2363 20.3981 19.6254 20.2114 19.9051C20.1304 20.0261 20.0266 20.13 19.9055 20.2109C19.6259 20.3977 19.2367 20.3977 18.4583 20.3977C17.68 20.3977 17.2908 20.3977 17.0112 20.2109C16.8901 20.13 16.7862 20.0261 16.7053 19.9051C16.5186 19.6254 16.5186 19.2363 16.5186 18.4579Z" fill="#ADAEB5"/>
</g>
</svg>
