<svg width="24" height="24" viewBox="0 0 24 24" fill="none" xmlns="http://www.w3.org/2000/svg">
<path id="Vector" d="M13.0286 18.8434C13.0286 18.2754 12.568 17.8149 12 17.8149C11.432 17.8149 10.9714 18.2754 10.9714 18.8434H13.0286ZM10.9714 18.8571C10.9714 19.4252 11.432 19.8857 12 19.8857C12.568 19.8857 13.0286 19.4252 13.0286 18.8571H10.9714ZM10.9714 14.7429C10.9714 15.3109 11.432 15.7714 12 15.7714C12.568 15.7714 13.0286 15.3109 13.0286 14.7429H10.9714ZM12 6.17143C12.568 6.17143 13.0286 5.71092 13.0286 5.14286C13.0286 4.5748 12.568 4.11429 12 4.11429V6.17143ZM6.89262 7.86725C6.74471 8.41573 7.06943 8.98025 7.6179 9.12816C8.16638 9.27607 8.7309 8.95134 8.87881 8.40288L6.89262 7.86725ZM2.05714 17.4857C2.05714 16.9177 1.59663 16.4571 1.02857 16.4571C0.460512 16.4571 0 16.9177 0 17.4857H2.05714ZM0 12C0 12.568 0.460512 13.0286 1.02857 13.0286C1.59663 13.0286 2.05714 12.568 2.05714 12H0ZM15.8848 5.83011C15.507 5.40594 14.8568 5.3684 14.4326 5.74626C14.0085 6.12411 13.9709 6.7743 14.3487 7.19846L15.8848 5.83011ZM10.9714 18.8434V18.8571H13.0286V18.8434H10.9714ZM15.0857 9.13247C15.0857 9.95259 14.5754 10.3861 13.4777 11.1346C12.5502 11.767 10.9714 12.7432 10.9714 14.7429H13.0286C13.0286 13.9997 13.5069 13.6044 14.6366 12.8342C15.596 12.1801 17.1429 11.1799 17.1429 9.13247H15.0857ZM8.87881 8.40288C9.21241 7.16582 10.48 6.17143 12 6.17143V4.11429C9.62441 4.11429 7.4871 5.66281 6.89262 7.86725L8.87881 8.40288ZM6.51429 2.05714H17.4857V0H6.51429V2.05714ZM21.9429 6.51429V17.4857H24V6.51429H21.9429ZM17.4857 21.9429H6.51429V24H17.4857V21.9429ZM6.51429 21.9429C4.05267 21.9429 2.05714 19.9473 2.05714 17.4857H0C0 21.0835 2.91655 24 6.51429 24V21.9429ZM21.9429 17.4857C21.9429 19.9473 19.9473 21.9429 17.4857 21.9429V24C21.0835 24 24 21.0835 24 17.4857H21.9429ZM17.4857 2.05714C19.9473 2.05714 21.9429 4.05267 21.9429 6.51429H24C24 2.91655 21.0835 0 17.4857 0V2.05714ZM6.51429 0C2.91655 0 0 2.91655 0 6.51429H2.05714C2.05714 4.05267 4.05267 2.05714 6.51429 2.05714V0ZM2.05714 12V6.51429H0V12H2.05714ZM14.3487 7.19846C14.8112 7.71758 15.0857 8.39188 15.0857 9.13247H17.1429C17.1429 7.86929 16.6707 6.71233 15.8848 5.83011L14.3487 7.19846Z" fill="#ADAEB5"/>
</svg>
