<svg width="24" height="25" viewBox="0 0 24 25" fill="none" xmlns="http://www.w3.org/2000/svg">
<g id="icons/Curved/3 User">
<g id="3 User">
<path id="Stroke 1" fill-rule="evenodd" clip-rule="evenodd" d="M11.9728 20.3841C8.7338 20.3841 5.9668 19.8941 5.9668 17.9321C5.9668 15.9701 8.7158 14.2621 11.9728 14.2621C15.2118 14.2621 17.9788 15.9541 17.9788 17.9151C17.9788 19.8761 15.2298 20.3841 11.9728 20.3841Z" stroke="#ADAEB5" stroke-width="1.7" stroke-linecap="round" stroke-linejoin="round"/>
<path id="Stroke 3" fill-rule="evenodd" clip-rule="evenodd" d="M11.9726 11.4646C14.0986 11.4646 15.8226 9.74162 15.8226 7.61562C15.8226 5.48962 14.0986 3.76562 11.9726 3.76562C9.84657 3.76562 8.12257 5.48962 8.12257 7.61562C8.11657 9.73362 9.82657 11.4576 11.9456 11.4646H11.9726Z" stroke="#ADAEB5" stroke-width="1.7" stroke-linecap="round" stroke-linejoin="round"/>
<path id="Stroke 5" d="M18.3623 10.4075C19.5993 10.0765 20.5113 8.94853 20.5113 7.60553C20.5113 6.20453 19.5183 5.03453 18.1963 4.76453" stroke="#ADAEB5" stroke-width="1.7" stroke-linecap="round" stroke-linejoin="round"/>
<path id="Stroke 7" d="M18.9434 13.5603C20.6974 13.5603 22.1954 14.7493 22.1954 15.8113C22.1954 16.4363 21.6784 17.1173 20.8944 17.3013" stroke="#ADAEB5" stroke-width="1.7" stroke-linecap="round" stroke-linejoin="round"/>
<path id="Stroke 9" d="M5.58408 10.4075C4.34608 10.0765 3.43408 8.94853 3.43408 7.60553C3.43408 6.20453 4.42808 5.03453 5.74908 4.76453" stroke="#ADAEB5" stroke-width="1.7" stroke-linecap="round" stroke-linejoin="round"/>
<path id="Stroke 11" d="M5.002 13.5603C3.248 13.5603 1.75 14.7493 1.75 15.8113C1.75 16.4363 2.267 17.1173 3.052 17.3013" stroke="#ADAEB5" stroke-width="1.7" stroke-linecap="round" stroke-linejoin="round"/>
</g>
</g>
</svg>
