<svg width="252" height="175" viewBox="0 0 252 175" fill="none" xmlns="http://www.w3.org/2000/svg">
<g opacity="0.5">
<path d="M190.325 48.4067C190.521 48.2145 191.011 48.0907 191.216 48.2031C191.534 48.3732 191.903 48.7646 191.936 49.0962C191.995 49.7861 191.845 50.489 191.772 51.3061C193.379 51.1539 194.735 50.7756 196.093 50.3764C197.368 49.9943 198.652 49.6094 199.95 49.3141C205.599 48.0595 211.074 46.3855 215.945 43.1063C217.251 42.2231 218.687 41.5262 220.047 40.7152C221.049 40.1187 222.066 39.5223 223.007 38.8417C225.308 37.1858 226.841 35.0842 227.813 32.6579L229.198 33.2021C228.786 34.2577 228.373 35.3133 227.93 36.3537C227.156 38.1611 225.895 39.5997 224.332 40.764C223.397 41.4626 222.451 42.1552 221.469 42.7847C219.638 43.9465 217.727 44.9852 215.94 46.207C211.864 48.9864 207.243 50.3848 202.564 51.6484C199.189 52.56 195.776 53.3698 192.386 54.2365C192.162 54.2941 191.972 54.4894 191.708 54.654C191.824 55.3057 191.992 55.9459 192.033 56.5969C192.073 57.1793 191.575 57.7267 191.024 57.8798C190.453 58.0446 190.059 57.7604 189.728 57.3514C189.525 57.0899 189.303 56.8192 189.196 56.5168C188.655 55.0106 188.35 53.4678 188.487 51.8515C188.605 50.435 189.34 49.3495 190.325 48.4067Z" fill="white"/>
<path d="M149.282 -7.96061C148.73 -8.05528 148.35 -8.19014 147.988 -8.15769C147.161 -8.07885 146.341 -7.83877 145.52 -7.81658C145.191 -7.80472 144.75 -8.12818 144.544 -8.42854C144.279 -8.81899 144.56 -9.22224 144.906 -9.50254C145.712 -10.1695 146.69 -10.426 147.693 -10.4674C150.398 -10.5825 152.999 -10.0389 155.459 -8.89984C155.75 -8.76582 156.017 -8.52458 156.217 -8.27201C156.557 -7.85103 156.671 -7.29786 156.297 -6.90442C156.062 -6.66487 155.551 -6.57412 155.187 -6.61034C154.791 -6.65582 154.432 -6.95164 154.043 -7.09852C153.198 -7.4108 152.344 -7.70526 151.366 -8.04863C150.787 -6.80056 150.272 -5.67725 149.748 -4.56596C147.434 0.366633 145.846 5.5358 144.767 10.8679C144.648 11.4368 144.559 12.0209 144.509 12.6024C144.28 15.3489 145.562 17.4589 148.13 18.5483C148.743 18.8017 149.389 18.9749 150.029 19.1599C155.768 20.7772 159.623 24.6541 162.54 29.6324C163.463 31.1989 163.653 32.9227 163.415 34.7201C162.876 38.7918 161.385 42.4368 158.659 45.5391C158.224 46.0364 157.784 46.5307 157.226 47.1671C157.654 47.386 157.979 47.6576 158.337 47.7207C162.291 48.432 166.258 48.6778 170.279 48.202C176.108 47.5042 181.79 46.2589 187.297 44.2271C188.627 43.7381 189.986 43.324 191.336 42.8979C198.197 40.7115 204.759 37.8479 211.073 34.4C211.874 33.9628 212.643 33.4567 213.394 32.9265C214.77 31.9514 215.422 30.4862 215.738 28.9163C216.177 26.7119 214.828 24.7774 212.582 24.273C211.609 24.0521 210.61 23.9084 209.614 23.8633C205.443 23.6932 201.309 23.7144 197.239 24.9896C192.043 26.6184 187.063 28.7029 182.244 31.2216C180.024 32.3798 177.79 33.508 175.513 34.5462C172.959 35.7132 170.256 34.6226 169.126 32.0276C168.792 31.2724 168.627 30.4382 168.39 29.6421C168.023 28.3673 168.207 27.2022 168.901 26.0507C170.241 23.8278 171.776 21.75 173.581 19.8926C178.586 14.7553 184.245 10.5672 191.069 8.11487C191.452 7.98116 191.815 7.7995 192.157 7.65943C192.16 6.94917 191.661 6.98629 191.316 6.88459C190.682 6.7026 189.993 6.65739 189.417 6.37746C189.132 6.24647 188.919 5.72519 188.895 5.36087C188.879 5.15778 189.276 4.80633 189.549 4.72829C190.013 4.58339 190.536 4.51367 191.015 4.57186C192.935 4.7897 194.8 5.18906 196.367 6.44817C196.879 6.86777 197.491 7.16596 198.043 7.53818C198.547 7.88609 198.928 8.3731 198.859 8.99024C198.82 9.35994 198.601 9.78766 198.318 10.0327C198.135 10.1862 197.646 10.1608 197.399 10.0272C196.752 9.66598 196.168 9.19498 195.418 8.6687C194.16 9.2091 192.868 9.75516 191.589 10.3222C190.294 10.9041 188.973 11.4349 187.734 12.1277C182.364 15.1218 177.678 18.9609 173.778 23.7265C172.936 24.7572 172.191 25.8754 171.491 27.0089C170.585 28.4718 171.293 31.2927 172.784 32.0855C173.164 32.295 173.794 32.2949 174.201 32.1286C175.732 31.4803 177.228 30.7392 178.733 30.0101C182.109 28.3792 185.421 26.5806 188.878 25.1415C192.024 23.8278 195.322 22.8766 198.57 21.8176C199.435 21.5332 200.361 21.3777 201.272 21.3116C204.931 21.0472 208.573 20.917 212.242 21.3929C216.496 21.9428 219.999 25.8493 217.965 31.1873C217.325 32.8616 216.339 34.2909 214.828 35.2945C213.928 35.898 213.021 36.4983 212.064 37.0057C207.34 39.4985 202.564 41.8893 197.507 43.6418C191.36 45.7811 185.303 48.1987 178.941 49.6436C171.985 51.2262 164.997 51.9609 157.856 50.6827C153.187 49.8453 149.149 47.9216 145.611 44.8594C144.285 43.716 143.058 42.466 141.777 41.2782C141.291 40.835 140.785 40.4184 139.994 39.7365C139.183 41.3227 138.589 42.6004 137.888 43.8235C137.19 45.0406 136.398 46.1942 135.565 47.4996C136.123 47.845 136.637 48.0855 137.036 48.4474C137.232 48.6223 137.338 49.0739 137.264 49.3359C137.19 49.5978 136.882 49.9053 136.616 49.9864C136.23 50.0962 135.779 50.098 135.383 50.0078C134.129 49.7484 133.04 49.1085 132.105 48.2701C131.785 47.9866 131.734 47.4131 131.518 46.8679C131.949 46.7287 132.258 46.5346 132.547 46.5552C133.203 46.6061 133.653 46.3865 134.046 45.8678C136.276 42.9161 138.084 39.7337 139.028 36.1313C139.985 32.4604 139.639 28.8281 138.314 25.324C137.883 24.1889 137.12 23.1163 136.299 22.2014C134.595 20.3024 132.684 18.7327 130.574 17.5252L131.562 15.8124C133.875 17.1083 135.877 18.8221 137.739 20.7047C139.366 22.3464 140.407 24.3258 140.923 26.5689C141.559 29.3534 141.873 32.1676 141.378 35.0102C141.186 36.1037 141.438 36.8999 142.294 37.6599C144.099 39.2585 145.772 41.014 147.587 42.6096C149.268 44.0996 151.115 45.3822 153.244 46.2466C157.912 43.3654 160.077 39.0611 160.776 33.8568C160.904 32.9179 160.79 31.9977 160.311 31.1904C159.636 30.05 158.975 28.865 158.113 27.8691C156.905 26.494 155.61 25.1718 154.182 24.0363C153.157 23.2269 151.885 22.7107 150.678 22.1683C149.84 21.7993 148.931 21.6118 148.054 21.35C143.723 20.0711 141.276 16.5028 141.939 12.0443C142.575 7.75262 143.626 3.53048 145.451 -0.430763C146.599 -2.924 147.935 -5.32895 149.282 -7.96061Z" fill="white"/>
<path d="M89.909 15.2095C87.428 16.5861 85.106 17.8866 82.7693 19.157C80.1777 20.5595 77.4058 21.4499 74.515 21.9721C70.1684 22.7463 65.9085 22.5455 61.6836 21.1482C58.3751 20.0549 56.1088 17.9357 54.6425 14.8392C52.4619 10.2378 52.5165 5.66315 54.6901 1.07843C56.124 -1.95829 57.8575 -4.7893 60.1339 -7.27501C62.4284 -9.78144 65.1319 -11.6663 68.3801 -12.7403C72.0323 -13.9448 75.7189 -14.9968 79.5378 -15.5163C86.6619 -16.5034 93.4903 -15.5504 99.9818 -12.3862C102.626 -11.0931 105.043 -9.50379 107.231 -7.53757C110.469 -4.63639 113.601 -1.64665 115.951 2.05205C116.707 3.24093 117.391 4.48287 118.096 5.71305C118.68 6.72424 119.253 7.74428 119.819 8.76128C120.456 9.90429 121.435 10.5849 122.602 11.1598C125.523 12.5867 128.407 14.0849 131.263 15.6366C131.364 15.6883 131.468 15.7489 131.563 15.8125L130.574 17.5253C128.564 16.3695 126.361 15.5342 123.969 15.0523C123.087 14.871 122.147 14.8921 121.251 14.9733C120.725 15.0191 120.232 15.3667 119.765 15.5623C119.898 16.6051 120.707 16.2545 121.153 16.5272C121.524 16.7545 121.859 16.9785 121.869 17.4561C121.881 18.0621 121.485 18.3538 120.97 18.4953C118.589 19.1207 115.886 18.0152 114.751 15.8976C114.587 15.5886 114.583 15.0096 114.773 14.7547C114.949 14.5146 115.496 14.4272 115.853 14.4753C116.315 14.5393 116.755 14.809 117.233 15.0015C117.965 13.9966 117.854 13.0405 117.52 12.0675C115.827 7.11547 113.38 2.59514 109.696 -1.16374C108.067 -2.82931 106.369 -4.44775 104.59 -5.95058C100.071 -9.76201 94.8048 -11.8494 88.9631 -12.6798C83.6281 -13.4458 78.49 -12.6043 73.3888 -11.2342C72.0963 -10.8911 70.8387 -10.4402 69.5607 -10.0522C67.1993 -9.33409 65.1346 -8.1118 63.3728 -6.39725C60.087 -3.19871 57.712 0.578337 56.3846 4.98889C55.2913 8.61971 56.2635 11.9057 58.0966 15.0325C59.119 16.77 60.7455 17.7372 62.5924 18.4199C66.2954 19.7825 70.0984 20.0119 73.9282 19.2806C76.1258 18.8534 78.3103 18.2172 80.4127 17.434C82.9103 16.5082 85.3118 15.3308 87.7513 14.2404C88.1259 14.0797 88.4624 13.8322 88.8435 13.6149C88.961 12.5356 88.3107 11.858 87.7051 11.1958C87.1851 10.6299 86.6736 10.1058 86.9122 9.17096C87.803 8.68981 88.6764 8.79942 89.4346 9.42724C92.2274 11.7334 93.4055 14.7049 92.9452 18.2998C92.9095 18.6039 92.7299 18.9842 92.4925 19.1551C92.1802 19.3701 91.7311 19.5151 91.3704 19.473C91.1349 19.4499 90.837 19.0651 90.759 18.7928C90.6 18.2392 90.5996 17.6393 90.4706 17.0711C90.3301 16.452 90.1119 15.8531 89.909 15.2095Z" fill="white"/>
<path d="M68.8796 9.54617C68.7171 9.68791 68.2708 9.53454 67.9611 9.466C67.8152 9.42882 67.6612 9.30503 67.5639 9.1728C66.3847 7.60991 65.631 5.85999 65.4463 3.90645C65.3534 2.98936 65.6238 2.15326 66.6297 1.49113C67.0657 2.42633 67.4286 3.19671 67.7768 3.93711C68.0643 3.82937 68.2377 3.79814 68.3669 3.70683C72.4369 0.909539 76.9547 -0.624133 81.8346 -1.31284C87.3272 -2.08537 92.6477 -1.36431 97.8764 0.239289C100.195 0.953275 102.417 2.01556 104.28 3.59078C108.022 6.75034 109.312 10.9405 108.837 15.7052C108.61 17.9653 107.773 20.0705 106.683 22.0689C106.388 22.6153 105.974 23.1605 106.166 24.0159C106.931 23.9126 107.568 23.8111 108.213 23.7365C113.394 23.1491 118.348 23.7653 122.965 26.3898C125.853 28.0253 127.891 30.3572 128.981 33.4712C130.574 38.0343 129.909 42.4092 127.341 46.4024C123.919 51.7126 119.304 55.7225 113.434 58.1986C112.667 58.5257 111.895 58.8348 111.133 59.1799C106.419 61.3027 101.468 62.2772 96.3184 62.3934C95.3185 62.4139 94.3153 62.4553 93.329 62.6103C91.5835 62.8865 89.8494 62.9061 88.0966 62.6839C87.113 62.5553 86.0976 62.6205 85.101 62.6052C84.7369 62.5988 84.4554 62.7096 84.4175 63.2525C87.8741 66.3855 91.8698 68.6849 96.4512 69.9273C102.152 71.4726 107.665 71.1151 112.993 68.437C116.048 66.9046 119.168 65.4952 122.241 64.0018C122.796 63.7383 123.463 63.5625 123.887 62.88C123.227 62.5874 122.689 62.4093 122.214 62.1213C121.724 61.8332 121.749 61.1261 122.228 60.8919C122.597 60.7132 122.993 60.4812 123.384 60.4639C126.677 60.3424 129.412 61.502 131.51 64.0821C131.604 64.2054 131.716 64.3825 131.712 64.5227C131.679 64.8806 131.704 65.3434 131.529 65.5835C131.517 65.6072 131.493 65.6249 131.478 65.6397C131.243 65.8494 130.666 65.9067 130.354 65.7695C129.917 65.5834 129.581 65.1565 129.202 64.8276C128.785 64.4716 128.37 64.1096 127.843 63.66C123.398 68.2743 117.828 70.6637 111.966 72.6415C112.008 75.5039 113.529 77.4968 115.32 79.3727C116.465 79.1864 117.329 78.6692 118.182 78.1609C119.832 77.1914 121.474 76.195 123.098 75.1745C126.82 72.8365 129.748 69.6794 132.421 66.2723C132.689 65.9375 132.952 65.5997 133.212 65.253C133.759 64.5358 134.173 63.6682 134.467 62.8145C134.762 61.9607 134.944 61.0342 134.97 60.1331C135.026 58.3102 134.076 57.3971 132.202 57.3527C131.627 57.3354 131.043 57.4643 130.461 57.4738C129.5 57.4917 129.273 57.2031 129.142 55.9066C129.256 55.7853 129.35 55.6459 129.477 55.5456C131.094 54.2446 132.992 53.6713 135.003 53.3886C137.065 53.1094 138.94 52.345 140.804 51.267C140.423 50.7502 140.078 50.3858 139.852 49.9629C139.438 49.1891 139.956 48.4269 140.854 48.4592C141.179 48.4681 141.54 48.4954 141.828 48.6354C143.637 49.5087 145.082 52.0023 144.918 53.9943C144.887 54.391 144.734 54.8074 144.534 55.1547C144.267 55.6178 143.793 55.8551 143.26 55.7696C142.738 55.6752 142.323 55.3579 142.233 54.802C142.146 54.255 142.127 53.6908 142.073 53.0188C139.83 53.8574 137.731 54.6347 135.644 55.418C135.563 55.4441 135.482 55.5001 135.442 55.5624C135.403 55.6247 135.417 55.7144 135.391 55.926C137.779 58.115 137.589 60.8887 136.674 63.6886C136.265 64.9412 135.63 66.1828 134.829 67.2199C131.706 71.2585 128.343 75.0622 123.91 77.7486C122.268 78.7451 120.647 79.7745 119.04 80.819C118.719 81.022 118.483 81.351 118.104 81.7265C120.694 83.3742 122.914 85.29 125.835 86.0573C126.105 85.5286 126.408 85.1136 126.537 84.6552C127.456 81.4675 129.139 78.6927 131.221 76.1753C132.495 74.6383 133.955 73.2492 135.333 71.8026C136.611 70.4626 138.045 69.33 139.8 68.6689C140.354 68.4651 140.754 68.1226 141.141 67.6308C143.711 64.3361 146.962 61.952 150.936 60.5744C156.286 58.7172 161.812 57.9241 167.434 58.3047C172.919 58.6751 178.395 59.2813 183.844 60.0155C188.81 60.6825 193.787 61.1228 198.784 61.2738C204.94 61.4476 210.906 60.4228 216.588 57.9031C219.264 56.7164 221.34 54.9451 222.864 52.1569C222.115 52.1559 221.554 52.094 221.014 52.1695C220.437 52.2567 219.891 52.4873 219.323 52.6313C218.662 52.7952 218.036 52.7297 217.309 52.2156C217.728 51.7778 217.98 51.3146 218.373 51.1183C221.318 49.6117 224.291 49.5141 227.219 51.1619C227.783 51.4805 228.288 51.9717 228.692 52.4858C228.979 52.8496 229.129 53.3762 229.184 53.8543C229.256 54.416 228.943 54.7951 228.175 54.8446C227.164 53.7877 226.025 52.7027 224.231 52.5039C223.858 53.0555 223.454 53.5681 223.135 54.1322C221.569 56.9289 219.271 58.8264 216.361 60.1781C210.714 62.8055 204.767 63.9379 198.612 63.7344C193.871 63.5798 189.137 63.0761 184.408 62.6202C179.02 62.1044 173.646 61.356 168.254 60.9207C162.71 60.4751 157.26 61.1645 151.979 62.9746C150.236 63.5672 148.552 64.3096 147.109 65.475C146.826 65.7051 146.356 65.8768 146.52 66.523C146.782 66.612 147.079 66.7639 147.386 66.7936C152.1 67.2196 156.49 68.8214 160.816 70.5926C161.592 70.9072 162.365 71.2129 163.144 71.5067C167.123 73.018 171.183 74.2556 175.347 75.1569C176.645 75.4316 177.986 75.6232 179.305 75.6385C180.275 75.6475 181.28 75.3972 182.217 75.0896C182.696 74.9299 183.053 74.3931 183.607 73.9118C178.014 69.7978 171.907 68.5472 165.353 68.9636C164.823 71.0686 164.823 71.0687 163.267 71.1795C162.326 69.0488 162.485 66.994 163.769 65.0422C164.132 64.4935 164.579 63.8679 165.336 63.9854C166.251 64.1312 166.038 64.9589 166.109 65.5953C166.129 65.7477 166.235 65.8919 166.343 66.1346C167.366 66.2009 168.44 66.3004 169.523 66.3224C174.031 66.4182 178.243 67.6512 182.183 69.7949C183.558 70.5508 184.865 71.4822 186.074 72.4902C187.217 73.4499 187.162 74.4791 186.123 75.499C184.195 77.3911 181.938 78.5071 179.158 78.2992C178.082 78.2205 176.974 78.2311 175.932 77.9677C172.46 77.0908 168.983 76.2108 165.57 75.1315C163.945 74.6149 162.345 74.0061 160.754 73.3795C159.55 72.9057 158.349 72.426 157.144 71.9671C153.784 70.6823 150.355 69.6774 146.747 69.3603C146.175 69.3072 145.561 69.1582 145.011 69.2814C142.385 69.8568 139.811 70.6387 137.912 72.6951C136.157 74.5858 134.471 76.5488 132.814 78.527C131.399 80.2089 130.535 82.2184 129.749 84.2375C129.373 85.192 128.91 86.2441 129.442 87.4906C130.017 87.2751 130.564 87.128 131.056 86.87C133.368 85.662 135.339 83.9792 137.28 82.2663C139.533 80.2788 141.943 78.5732 144.66 77.1899C147.61 75.6864 150.592 75.0606 153.829 75.428C155.567 75.6202 157.296 75.8303 159.055 76.0407C159.466 75.5461 159.87 75.0634 160.299 74.5481C160.613 74.754 160.851 74.8458 161.002 75.0203C161.223 75.2611 161.388 75.5551 161.564 75.8402C162.552 77.4252 161.644 80.0789 160.42 81.0792C160.152 81.2946 159.639 81.3316 159.266 81.2684C158.804 81.1895 158.629 80.7551 158.681 80.302C158.755 79.7475 158.865 79.1964 158.978 78.535C155.253 77.6258 151.69 77.0166 148.103 78.562C147.495 78.8279 146.848 79.0218 146.205 79.1949C144.637 79.622 143.304 80.4542 142.136 81.5654C140.693 82.9487 139.23 84.3139 137.817 85.7273C136.57 86.9781 135.235 88.0937 133.596 88.8066C130.797 90.0281 128.834 92.1347 127.443 94.7808C126.276 96.9874 125.169 99.2393 124.186 101.54C122.371 105.761 120.735 110.043 120.116 114.637C120.062 115.006 119.762 115.43 120.584 115.948C120.884 115.802 121.403 115.55 121.915 115.295C124.371 114.041 126.856 112.861 129.257 111.511C130.841 110.612 132.346 109.546 133.795 108.428C137.498 105.571 140.806 102.271 144.09 98.944C145.431 97.5837 146.736 96.1752 148.065 94.7939C149.343 93.4688 150.041 91.8996 149.992 90.0607C149.938 88.1591 150.127 86.1643 148.385 84.7633C148.261 84.6696 148.203 84.49 148.127 84.346C147.866 83.8452 147.981 83.3568 148.247 82.9236C148.544 82.4458 149.008 82.286 149.547 82.4194C150.032 82.5403 150.493 82.7684 150.982 82.8535C156.893 83.9293 162.667 85.5499 168.405 87.3015C171.598 88.2833 174.804 89.1667 178.15 89.4545C180.339 89.645 182.48 89.5337 184.567 88.7951C186.705 88.045 188.427 86.73 189.428 84.7159C190.166 83.2425 190.576 81.6079 191.101 80.04C191.138 79.9239 190.99 79.7435 190.87 79.4797C190.265 79.6651 189.655 79.8922 189.023 80.0415C188.497 80.1768 188.033 79.9845 187.721 79.525C187.488 79.1886 187.712 78.546 188.19 78.2431C190.051 77.0517 192.036 76.6882 194.144 77.5196C194.507 77.6603 194.851 77.9559 195.119 78.2509C195.53 78.7084 195.26 79.4997 194.641 79.6402C194.183 79.7434 193.703 79.715 193.315 79.7412C192.581 81.5997 191.888 83.2913 191.245 85.0014C190.116 88.0141 187.979 89.9788 185.014 91.0853C183.031 91.8249 180.964 92.0712 178.861 91.977C176.021 91.8431 173.241 91.3875 170.493 90.6187C165.034 89.0846 159.562 87.619 154.091 86.1385C153.552 85.9902 152.99 85.7105 152.484 86.2161C152.46 86.3084 152.423 86.3946 152.428 86.4722C152.454 86.8903 152.465 87.3082 152.533 87.7177C153.125 91.4537 152.021 94.6219 149.405 97.3163C144.994 101.865 140.615 106.438 135.707 110.478C134.031 111.862 132.283 113.141 130.337 114.117C127.053 115.758 123.75 117.35 120.464 118.967C119.942 119.225 119.438 119.507 118.91 119.791C118.783 120.318 118.635 120.798 118.553 121.28C117.805 125.92 117.702 130.59 118.166 135.25C118.496 138.56 119.899 141.503 121.999 144.078C122.722 144.965 123.511 145.826 124.925 145.964C125.087 144.811 125.267 143.756 125.376 142.694C126.048 136.195 128.635 130.51 132.589 125.374C135.199 121.988 138.188 118.959 141.537 116.325C144.872 113.691 148.386 111.292 151.794 108.748C153.666 107.36 155.553 105.972 157.29 104.424C158.268 103.553 158.986 102.384 159.754 101.307C159.975 100.993 160.135 100.49 160.054 100.134C159.677 98.367 159.216 96.6169 158.744 94.7263C158.159 95.0491 157.67 95.346 157.16 95.5949C156.417 95.9491 155.666 95.775 155.406 95.2294C155.098 94.5849 155.499 94.1231 155.838 93.6517C155.886 93.5865 155.953 93.5304 156.019 93.4743C157.773 91.9357 159.848 91.5432 162.089 91.8805C162.876 91.9982 163.424 92.451 163.675 93.0741C163.308 94.2883 162.084 93.692 161.531 94.4658C161.528 95.761 162.023 97.0041 162.346 98.2934C162.61 99.3583 163.249 100.015 164.208 100.483C166.841 101.755 169.464 103.045 172.264 103.901C174.856 104.695 177.489 104.985 180.141 104.168C184.762 102.74 188.547 100.149 191.252 96.1065C194.461 91.3016 196.176 85.9128 197.219 80.2999C197.505 78.7745 197.278 77.1519 197.233 75.5697C197.206 74.6861 196.77 74.0433 195.945 73.591C194.849 72.9928 193.817 72.2699 192.782 71.5679C192.311 71.2442 191.837 70.8816 191.452 70.4602C190.882 69.8312 191.235 68.8048 192.053 68.7438C192.695 68.705 193.387 68.7741 193.997 68.9738C196.943 69.9563 199.951 70.5513 203.047 70.7563C207.497 71.0544 211.876 70.6565 216.15 69.3205C219.984 68.1266 223.31 66.0954 225.941 63.0787C234.221 53.6057 235.696 42.9591 231.217 31.3497C231.077 30.9933 230.8 30.6863 230.52 30.2658C230.302 30.619 230.145 30.8085 230.056 31.0255C229.766 31.754 229.485 32.4796 229.197 33.2021L227.812 32.658C228.334 31.3587 228.699 29.9713 228.937 28.5112C229.107 27.4891 228.874 26.5677 228.301 25.6671C225.544 21.3558 222.361 17.4105 218.489 14.0498C217.165 12.9004 215.718 11.9199 214.113 11.1738C211.79 10.0897 209.418 10.0378 207.049 10.8424C205.157 11.4933 203.32 12.2999 201.492 13.1035C198.259 14.5149 195.355 16.4695 192.471 18.472C191.726 18.9904 190.931 19.4605 190.107 19.8407C189.624 20.0661 189.113 19.8494 188.792 19.3928C188.447 18.9091 188.562 18.4058 188.974 18.0545C189.804 17.3549 190.626 16.6433 191.538 16.0609C195.694 13.4196 199.963 10.9793 204.517 9.06695C205.434 8.68154 206.363 8.31713 207.22 7.96101C207.697 6.63143 206.992 5.76831 206.245 4.97346C203.833 2.40528 201.066 0.269509 198.056 -1.55516C194.489 -3.71032 190.615 -4.34329 186.506 -3.76976C182.902 -3.26018 179.607 -1.87327 176.366 -0.315749C175.769 -0.0288326 175.225 0.389889 174.711 0.808884C173.352 1.9124 172.016 3.04299 170.678 4.1646C167.192 7.08074 164.835 10.7625 163.31 15.004C163.203 15.2866 163.194 15.6118 163.121 16.017C163.532 16.1372 163.832 16.2534 164.145 16.3011C164.64 16.3743 165.144 16.3701 165.633 16.4552C166.259 16.5655 166.766 17.2298 166.792 17.8956C166.823 18.436 166.359 18.9182 165.639 18.9771C164.725 19.0492 163.809 19.0824 162.893 19.0709C159.631 19.0435 156.949 17.6337 154.575 15.5195C154.013 15.0219 153.921 14.2928 154.255 13.714C154.643 13.0282 155.383 12.7545 156.189 13.0844C157.039 13.4295 157.841 13.8847 158.685 14.2417C159.119 14.4189 159.599 14.492 160.048 14.6096C160.565 13.5997 161.054 12.7328 161.462 11.8323C163.75 6.81887 166.779 2.39434 171.319 -0.867126C171.556 -1.03801 171.684 -1.36214 171.89 -1.64673C171.603 -1.98067 171.412 -2.25105 171.172 -2.47114C168.933 -4.58409 166.708 -6.72675 164.424 -8.79536C159.582 -13.1768 153.894 -16.0949 147.775 -18.2141C145.407 -19.036 142.931 -19.4411 140.403 -19.4378C137.565 -19.4284 134.967 -18.6438 132.604 -17.102C130.835 -15.9456 130.266 -14.4229 130.742 -12.3502C130.816 -12.0272 130.915 -11.707 131.031 -11.3925C131.703 -9.49711 132.025 -7.53333 132.362 -5.55451C133.001 -1.82398 133.241 1.89683 132.729 5.65244C132.713 5.80151 132.806 5.96952 132.884 6.25674C133.376 6.35086 133.939 6.43669 134.484 6.55816C135.127 6.70741 135.81 6.82418 136.127 7.72844C135.835 8.00625 135.547 8.49599 135.145 8.62058C134.278 8.88109 133.36 9.03371 132.452 9.09389C130.012 9.26216 127.903 8.25766 125.878 7.05697C125.632 6.90843 125.521 6.33439 125.56 5.9796C125.586 5.79779 126.06 5.53062 126.334 5.52124C127.048 5.50401 127.763 5.61513 128.574 5.68536C129.229 3.64414 129.388 1.64905 129.615 -0.318558C129.732 -1.29338 129.652 -2.33867 129.413 -3.29293C128.78 -5.88035 128.022 -8.44209 127.279 -11.0037C127.146 -11.4765 126.846 -11.9001 126.623 -12.3438C125.384 -14.8295 123.344 -16.5854 121.038 -17.923C112.201 -23.067 102.767 -26.2974 92.4628 -27.0052C83.9269 -27.5951 75.8525 -26.1572 68.1225 -22.5942C63.6175 -20.5143 59.5364 -17.7976 56.0473 -14.2459C53.1488 -11.2914 50.7361 -7.95342 49.5857 -3.96202C47.5412 3.10993 47.8719 10.213 49.9522 17.2517C50.2156 18.1286 50.5837 18.9766 50.9879 19.7981C53.1908 24.2386 55.9677 28.2606 59.5435 31.732C63.2257 35.3177 67.5432 37.9843 71.9089 40.6005C72.1938 40.7762 72.5027 40.9343 72.8182 41.0208C76.3638 41.9731 79.9216 42.9015 83.6363 42.6735C89.0949 42.3483 94.3106 40.8569 99.5004 39.2698C100.428 38.98 101.357 38.5858 102.267 37.6124C102.071 37.2196 101.804 36.7903 101.623 36.3231C101.48 35.9427 101.335 35.5087 101.372 35.115C101.411 34.7453 101.6 34.2577 101.88 34.0782C102.162 33.9077 102.693 33.9545 103.022 34.1008C103.846 34.4696 104.256 35.2344 104.386 36.0802C104.836 38.9644 105.365 41.8433 104.788 44.7717C104.713 45.1828 104.664 45.6151 104.473 45.9744C104.239 46.4318 103.833 46.7414 103.258 46.6346C102.689 46.5308 102.361 46.1756 102.348 45.6144C102.335 45.1129 102.438 44.6184 102.455 44.1172C102.487 43.2192 102.489 42.3209 102.505 41.2347C101.757 41.4665 101.204 41.6106 100.673 41.8116C99.5775 42.2102 98.5189 42.7555 97.3941 43.0345C93.8315 43.9175 90.263 44.7826 86.672 45.5012C84.1664 46.0031 81.9095 47.0296 79.7108 48.2208C78.9909 48.617 78.3824 49.2202 77.7329 49.7423C77.1555 50.2115 77.0274 50.8281 77.164 51.5426C77.5425 53.5278 78.3073 55.3584 79.2816 57.1313C79.9331 58.3192 80.7416 58.9952 82.2002 59.0745C86.102 59.272 89.9815 59.9378 93.903 59.3059C94.7189 59.1762 95.566 59.2348 96.3992 59.1739C97.8117 59.0796 99.227 59.0093 100.634 58.8374C104.396 58.3859 107.897 57.0965 111.396 55.6786C116.162 53.7473 120.081 50.7755 123.317 46.8394C124.7 45.1481 125.851 43.3235 126.411 41.1739C127.875 35.544 125.17 30.5915 121.021 28.7085C120.563 28.5043 120.139 28.2198 119.672 28.0483C114.134 26.0389 108.705 25.472 103.347 28.7647C98.0069 32.0366 92.1463 33.8801 85.9177 34.5234C85.2515 34.5948 84.5797 34.6333 83.925 34.7555C81.8501 35.1481 79.7772 35.0094 77.706 34.6916C77.2471 34.6217 76.7661 34.6679 76.3066 34.6577C76.285 35.3738 76.3571 35.9654 76.2385 36.5193C76.0885 37.2521 75.2052 37.5572 74.6696 37.0658C74.2584 36.6829 73.8301 36.2015 73.6648 35.6896C72.7459 32.7682 73.02 29.9326 74.4867 27.2274C74.6385 26.9453 74.8737 26.6908 75.1116 26.4603C75.479 26.1085 76.2469 26.0142 76.4676 26.3446C76.6736 26.6599 76.8307 27.1 76.7945 27.4638C76.7639 27.8604 76.4503 28.2097 76.3153 28.6054C76.1619 29.0516 76.065 29.5192 75.9318 30.0433C76.3783 30.1668 76.6904 30.304 77.0124 30.3339C83.3369 30.924 89.5356 30.2804 95.4603 27.9749C99.6986 26.3282 103.043 23.5272 104.91 19.1903C107.61 12.9183 105.809 6.00749 98.1746 3.14294C96.6222 2.55845 95.0061 2.08378 93.3921 1.70763C85.7206 -0.0589959 78.312 0.722549 71.2215 4.19304C70.1781 4.70858 69.1554 5.2422 68.3699 6.26451C68.5573 6.6602 68.721 7.02881 68.8936 7.39452C69.0602 7.77211 69.3492 8.14488 69.3547 8.515C69.3634 8.86426 69.1473 9.31588 68.8796 9.54617ZM236.393 44.4548C236.327 50.5305 234.377 56.0842 231.101 61.169C226.519 68.2621 219.946 72.2298 211.638 73.4357C208.578 73.8788 205.506 74.0531 202.413 73.7825C201.766 73.7288 201.11 73.7226 200.319 73.6854C200.303 74.112 200.237 74.4308 200.288 74.7267C200.776 77.8321 200.515 80.8767 199.699 83.8924C198.561 88.0928 197.127 92.1711 194.996 95.9832C192.104 101.167 187.821 104.673 182.313 106.749C178.905 108.034 175.451 108.103 171.996 107.062C170.404 106.585 168.852 105.97 167.321 105.314C165.716 104.628 164.104 103.983 162.612 103.384C162.296 103.575 162.105 103.627 162.017 103.755C160.09 106.554 157.454 108.586 154.726 110.518C152.548 112.065 150.329 113.545 148.174 115.119C143.709 118.366 139.557 121.954 136.043 126.242C131.983 131.203 129.344 136.772 128.711 143.209C128.615 144.202 128.495 145.198 128.369 146.19C128 148.992 125.494 150.139 123.236 149.073C122.172 148.574 121.205 147.959 120.426 147.035C117.628 143.73 115.648 140.025 114.873 135.723C113.599 128.633 113.969 121.611 115.881 114.681C117.663 108.239 119.831 101.935 123.103 96.0685C123.795 94.8334 124.559 93.6348 125.268 92.4089C125.723 91.6371 126.335 90.9386 126.53 89.9436C125.87 89.6061 125.306 89.2875 124.715 89.0224C120.723 87.2423 117.077 84.9342 113.812 82.0268C111.447 79.9246 109.731 77.4196 109.044 74.2795C108.992 74.0433 108.875 73.8184 108.729 73.444C108.284 73.4488 107.804 73.4055 107.341 73.4758C99.8038 74.6113 92.9626 72.7897 86.635 68.6898C83.7427 66.8126 81.1849 64.5892 79.0103 61.9098C75.269 57.2968 73.4223 52.1017 74.0211 46.1264C74.0503 45.879 74.0288 45.6281 74.0358 45.1895C72.9672 44.5677 71.8273 43.9095 70.6966 43.2334C69.6222 42.5937 68.563 41.9243 67.4886 41.2845C63.0959 38.677 59.0778 35.5865 55.6153 31.8058C52.72 28.6452 50.4104 25.0871 48.5061 21.2642C47.1996 18.6317 46.3661 15.8365 45.9546 12.9199C45.5183 9.77321 45.4164 6.61772 45.4699 3.43682C45.6114 -4.70636 48.9625 -11.3871 54.7264 -16.9382C56.3978 -18.5491 58.2293 -20.0481 60.1662 -21.3283C70.2561 -28.009 81.3107 -30.9202 93.4256 -29.7658C100.212 -29.1266 106.755 -27.6749 112.991 -24.904C115.806 -23.6511 118.626 -22.3953 121.371 -20.9909C123.601 -19.8569 125.677 -18.4498 127.479 -16.4633C127.873 -16.7342 128.32 -16.9479 128.639 -17.2792C132.029 -20.814 136.257 -22.2638 141.055 -22.1774C144.507 -22.1124 147.818 -21.2578 151.011 -19.9687C154.737 -18.4746 158.256 -16.5616 161.668 -14.4556C162.864 -13.7163 163.996 -12.8373 165.05 -11.8933C167.719 -9.50777 170.323 -7.0512 172.953 -4.61826C173.504 -4.11175 174.045 -3.60233 174.681 -3.01445C175.313 -3.23836 175.938 -3.42055 176.538 -3.66865C179.156 -4.77236 181.832 -5.65171 184.634 -6.20459C190.243 -7.30731 195.41 -6.38773 200.17 -3.20972C202.391 -1.72069 204.507 -0.0983374 206.394 1.79644C208.058 3.46532 209.468 5.3109 209.835 7.81527C210.374 7.9337 210.845 8.05447 211.324 8.14251C214.515 8.7333 217.277 10.2065 219.798 12.2086C225.249 16.5272 229.452 21.8637 232.594 28.0289C235.22 33.1807 236.449 38.7043 236.393 44.4548Z" fill="white"/>
<path d="M70.1048 22.5191C70.1386 23.0536 70.5365 23.5945 70.066 24.1184C69.6942 24.3029 69.3908 24.515 69.6131 25.0035C70.6488 25.3086 71.7037 25.1662 72.7401 25.0744C75.476 24.8403 78.2293 24.66 80.9487 24.2824C84.0774 23.852 87.1177 22.979 90.0768 21.8546C90.5979 21.6565 91.1309 21.4645 91.6667 21.2964C91.96 21.2066 92.107 21.4467 92.2275 21.6508C92.3891 21.9209 92.61 22.2363 92.3387 22.5322C92.0703 22.8222 91.7604 23.0909 91.4153 23.2966C90.362 23.9195 89.2008 24.2698 88.0278 24.5991C86.011 25.1712 83.9072 25.459 81.9712 26.3273L81.7953 26.3048C81.4767 26.2242 81.1808 26.2752 80.8958 26.4367L80.9466 26.4252C80.1561 26.0657 79.3479 26.3267 78.5593 26.403C75.3691 26.7045 72.1947 27.239 68.8696 26.9693C69.1747 27.5302 69.4246 27.9354 69.6295 28.3701C69.7524 28.6279 69.5624 28.838 69.3613 28.9675C69.1662 29.085 68.8571 29.2642 68.7235 29.1883C67.6073 28.5572 66.4912 27.9111 65.4325 27.182C64.8038 26.7553 64.6257 26.0046 64.4623 25.2838C64.3592 24.8262 64.4878 24.4723 64.9015 24.2791C66.2173 23.6706 67.5449 23.0831 68.8665 22.4926C69.0834 22.2738 69.3585 22.2196 69.6479 22.2253C69.8657 22.2393 70.0139 22.3451 70.1048 22.5191Z" fill="white"/>
<path d="M166.164 57.5195C166.094 57.289 166.055 57.044 165.955 56.8282C165.639 56.1418 166.066 55.8055 166.559 55.4878C166.527 55.0966 166.237 55.1356 165.971 55.1272C162.335 54.9381 158.722 55.4059 155.101 55.5542C154.695 55.5713 154.295 55.5914 153.894 55.6265C153.219 55.6859 152.862 55.3005 152.616 54.7401C152.429 54.3146 152.595 53.8744 153.001 53.8126C153.399 53.7536 153.796 53.7245 154.199 53.6984C157.334 53.5187 160.467 53.3449 163.584 53.171C164.055 52.6024 163.401 52.283 163.325 51.8465C163.225 51.3084 163.626 51.1689 163.886 50.8967C163.97 50.8498 164.063 50.7999 164.147 50.7529C164.547 50.688 164.947 50.7425 165.355 50.7791C165.564 50.796 165.76 50.8366 165.96 50.8862C166.588 51.0204 167.035 51.4961 167.584 51.7698C168.681 52.2784 169.836 52.5847 171.006 52.8463C171.396 52.9334 171.802 53.0059 172.146 53.1822C172.907 53.5713 172.998 54.6375 172.354 55.1926C171.677 55.7683 170.907 56.1759 170.071 56.4755C169.325 56.7461 168.512 56.8848 167.925 57.4911C167.341 57.6797 166.753 57.6861 166.164 57.5195Z" fill="white"/>
<path d="M129.126 122.635C129.53 121.845 129.715 121.498 129.892 121.138C131.584 117.611 134.283 114.974 137.337 112.639C139.919 110.67 142.73 109.057 145.559 107.499C149.402 105.38 152.269 102.222 154.907 98.8118C155.296 98.3141 155.529 97.6836 155.803 97.1042C155.937 96.813 155.979 96.4821 156.107 96.1878C156.287 95.7627 156.676 95.6171 157.091 95.6269C157.476 95.6365 157.879 96.27 157.794 96.7437C157.624 97.7061 157.388 98.6499 156.808 99.4623C156.197 100.319 155.615 101.206 154.901 101.972C153.463 103.508 151.972 104.986 150.466 106.449C149.478 107.413 148.293 108.118 147.099 108.812C144.374 110.401 141.57 111.852 139.039 113.765C137.221 115.136 135.527 116.615 134.007 118.311C133.41 118.98 132.931 119.71 132.566 120.483C132.888 120.894 133.176 120.652 133.449 120.574C133.847 120.456 134.247 120.361 134.542 120.767C134.86 121.199 134.913 121.668 134.545 122.095C134.122 122.583 133.682 123.063 133.218 123.515C131.95 124.762 130.685 126.004 129.394 127.225C128.797 127.789 128.214 127.655 127.857 126.903C127.681 126.543 127.491 126.153 127.464 125.765C127.344 123.905 127.078 122.067 126.707 120.243C126.641 119.902 126.793 119.605 127.167 119.504C127.515 119.412 127.854 119.496 127.997 119.816C128.348 120.595 128.639 121.404 129.126 122.635Z" fill="white"/>
<path d="M170.713 23.0657C171.136 23.1323 171.365 23.1822 171.601 23.2052C172.048 23.2542 172.336 23.4837 172.466 23.9176C172.608 24.4024 172.333 24.7043 171.955 24.8858C170.624 25.524 169.523 26.4598 168.422 27.4105C167.848 27.9036 167.127 27.685 166.841 27.0138C166.774 26.8669 166.704 26.7111 166.684 26.5587C166.515 25.1903 166.205 23.8623 165.755 22.5599C165.638 22.2305 165.73 21.9478 166.096 21.7901C166.423 21.6499 166.736 21.6826 167.008 21.8821C167.468 22.2147 167.461 22.9309 168.181 23.239C168.956 22.0614 169.772 20.8753 170.536 19.6617C173.232 15.4042 176.306 11.4755 180.181 8.21083C183.769 5.18224 187.732 2.95994 192.492 2.38949C195.653 2.01306 198.592 2.7 201.402 4.10797C202.065 4.43944 202.655 4.86875 202.895 5.61411C202.959 5.81168 202.938 6.1308 202.815 6.26992C202.676 6.42382 202.347 6.54014 202.165 6.48473C201.707 6.34019 201.273 6.10337 200.849 5.87857C196.439 3.49471 191.978 3.74561 187.537 5.70081C185.157 6.74707 183.028 8.22839 181.075 9.95012C177.596 13.0275 174.748 16.63 172.276 20.5375C171.801 21.2911 171.346 22.0479 170.713 23.0657Z" fill="white"/>
<path d="M213.611 49.0266C214.254 48.9431 214.817 48.6767 215.308 48.2605C216.066 47.9512 216.885 47.7708 217.52 47.2037C219.116 46.6187 220.701 46.0127 222.302 45.4606C224.626 44.6556 226.963 43.97 229.241 45.1731C230.027 44.7357 230.019 43.9896 230.382 43.4707C230.639 43.1 231.019 42.9573 231.425 42.97C231.774 42.9763 232.189 43.6606 232.143 44.1168C232.113 44.4388 232.029 44.7484 231.958 45.0641C231.694 46.1659 231.445 47.2678 231.157 48.3574C230.925 49.2357 230.408 49.6009 229.58 49.4917C228.617 49.3664 227.666 49.2172 226.713 49.0442C226.486 49.0033 226.219 48.8814 226.089 48.7101C225.906 48.4667 225.742 48.1428 225.724 47.8412C225.707 47.4949 226.016 47.2709 226.345 47.2143C226.659 47.1576 226.984 47.1815 227.303 47.1725C227.519 47.088 227.764 47.0634 227.921 46.8589C227.523 46.6851 227.213 46.2644 226.698 46.4506C225.296 46.3928 223.991 46.8342 222.715 47.3208C219.624 48.4828 216.536 49.6687 213.632 51.2562C209.946 53.2751 205.99 54.6768 202.157 56.366C201.72 56.5619 201.244 56.6709 200.772 56.7889C200.428 56.8752 200.154 56.7354 199.939 56.4528C199.476 55.8636 199.67 55.2804 200.188 55.0733C202.357 54.2042 204.508 53.2961 206.671 52.4239C209.067 51.4464 211.391 50.334 213.611 49.0266Z" fill="white"/>
<path d="M179.913 80.2669C179.378 80.0828 178.828 79.8986 178.471 79.4238C178.22 79.0931 178.063 78.7127 178.314 78.3091C178.505 78.0095 178.846 77.8992 179.153 77.9588C179.949 78.1035 180.744 78.2631 181.515 78.5001C182.827 78.9092 184.121 79.369 185.418 79.8227C185.718 79.924 186.019 80.0551 186.295 80.2189C186.796 80.528 186.906 81.2662 186.472 81.659C185.208 82.7963 183.929 83.9035 182.639 85.0047C182.344 85.2586 181.99 85.5119 181.569 85.1767C181.089 84.7962 180.968 84.2997 181.254 83.7115C181.324 83.5748 181.495 83.4899 181.574 83.3503C181.756 83.0088 181.58 82.6938 181.207 82.7202C180.565 82.7739 179.919 82.8634 179.277 82.9171C175.926 83.2112 172.676 82.5601 169.42 81.9061C168.89 81.7996 168.616 81.3972 168.417 80.9357C168.21 80.4622 168.591 79.863 169.083 79.9272C169.48 79.9727 169.866 80.1106 170.257 80.1829C173.516 80.8012 176.781 81.3778 180.125 80.9821C180.498 80.6185 180.513 80.356 179.913 80.2669Z" fill="white"/>
<path d="M119.766 -7.07452C116.99 -9.19247 113.97 -10.9247 110.809 -12.3777C103.572 -15.6982 96.0123 -17.5503 88.0091 -17.028C79.9373 -16.5033 72.4518 -14.1945 65.8177 -9.41852C65.5082 -9.19459 65.2186 -8.86303 64.6865 -9.09778C64.8236 -10.0396 65.4355 -10.6785 66.1625 -11.191C67.352 -12.0216 68.5301 -12.9029 69.8078 -13.5834C80.1468 -19.1247 91.0128 -20.7007 102.436 -17.7113C107.944 -16.2722 113.208 -14.2386 117.931 -10.9893C118.397 -10.6686 118.893 -10.3924 119.386 -10.1102C119.525 -10.0313 119.686 -9.99403 119.841 -9.94484C120.286 -10.2869 119.97 -10.651 119.865 -11.0041C119.727 -11.465 119.51 -11.9206 119.458 -12.3897C119.41 -12.7811 119.582 -13.2182 119.971 -13.4086C120.37 -13.6018 120.784 -13.4726 121.085 -13.1684C121.36 -12.8853 121.653 -12.5781 121.814 -12.2185C122.951 -9.70993 123.885 -7.12567 124.547 -4.44845C124.647 -4.04461 124.656 -3.65059 124.494 -3.26114C124.323 -2.85387 123.982 -2.51085 123.575 -2.65193C121.754 -3.2986 119.946 -3.99887 118.151 -4.72292C117.764 -4.87574 117.559 -5.26563 117.668 -5.7272C117.745 -6.05476 117.921 -6.32471 118.259 -6.429C118.489 -6.49848 118.726 -6.53508 118.962 -6.57168C119.201 -6.61422 119.44 -6.64182 119.676 -6.67842C119.882 -6.64069 119.969 -6.72345 119.932 -6.92972C119.921 -6.98056 119.855 -7.02892 119.766 -7.07452Z" fill="white"/>
<path d="M116.455 44.295C115.721 43.9569 114.87 43.9937 114.711 43.1178C114.655 42.789 114.634 42.4187 115.005 42.2939C116.697 41.7575 118.399 41.2421 120.099 40.7476C120.449 40.6494 120.698 40.8816 120.883 41.1787C121.195 41.683 121.303 42.2183 121.169 42.802C120.815 44.3744 120.477 45.956 120.096 47.5223C120.015 47.8558 119.685 48.0019 119.357 48.0735C118.959 48.1623 118.773 47.88 118.597 47.6098C118.223 47.0362 118.453 46.3371 118.23 45.6307C117.322 46.043 116.683 46.7503 116.014 47.3977C112.873 50.4603 109.198 52.5599 104.914 53.5765C104.053 53.7804 103.197 54.0619 102.353 54.3196C101.329 54.6354 100.287 54.7093 99.2282 54.6248C98.8316 54.5942 98.4266 54.492 98.0549 54.3542C97.4868 54.146 97.0538 53.5271 97.0909 53.0738C97.1185 52.6682 97.7811 52.3401 98.4954 52.5557C99.8048 52.9559 101.057 52.7348 102.314 52.3884C103.562 52.0448 104.809 51.7013 106.046 51.3069C110.167 50.0053 113.462 47.4933 116.455 44.295Z" fill="white"/>
<path d="M150.065 32.2441C149.598 29.5239 148.934 26.8675 147.458 24.4782C145.87 21.8968 143.897 19.7027 141.343 18.0435C140.667 17.6074 140.002 17.1476 139.389 16.6316C138.927 16.2453 138.817 15.5966 139.106 15.3695C139.457 15.0922 139.848 15.1048 140.24 15.3054C140.454 15.4149 140.68 15.5155 140.882 15.6487C145.921 18.9695 149.47 23.4016 151.003 29.3281C151.164 29.9503 151.286 30.5901 151.454 31.2154C151.615 31.8228 151.567 32.5028 152.007 33.0351C152.568 33.0523 152.596 32.5721 152.736 32.2541C152.993 31.6655 153.145 31.0313 153.407 30.4458C153.541 30.1545 153.876 30.0263 154.222 30.0236C154.599 30.0211 154.796 30.2498 154.937 30.5615C155.109 30.9421 155.189 31.3278 155.042 31.7324C154.424 33.3949 153.802 35.0634 153.163 36.7227C153.081 36.9428 152.918 37.1442 152.761 37.3188C152.447 37.6532 152.086 37.7155 151.685 37.458C151.617 37.4156 151.543 37.3702 151.498 37.3101C150.525 36.1222 149.515 34.9757 148.309 34.0064C147.948 33.7166 147.75 33.1805 148.118 32.7094C148.405 32.339 148.817 32.3847 149.218 32.5227C149.665 32.9536 149.914 32.7441 150.065 32.2441Z" fill="white"/>
</g>
</svg>
