<svg width="314" height="172" viewBox="0 0 314 172" fill="none" xmlns="http://www.w3.org/2000/svg">
<g opacity="0.5">
<path d="M76.6767 124.042C75.8203 123.872 75.1443 124.366 75.2388 125.229C75.2971 125.755 75.4455 126.376 75.7893 126.75C77.599 128.737 79.4094 130.748 81.3772 132.582C83.0953 134.191 84.973 133.509 85.5445 131.195C85.8369 130.024 86.0083 128.825 86.272 127.641C86.3681 127.232 86.5949 126.855 86.7669 126.458C87.0877 126.619 87.3177 126.661 87.3754 126.775C88.0867 128.388 88.7674 130.004 89.4372 131.568C87.8459 132.986 78.3974 137.528 75.532 138.223C73.5234 133.942 71.5577 129.757 69.5215 125.423C70.3139 124.878 70.9194 124.235 71.6599 124.002C74.3572 123.131 76.5875 121.399 79.0606 120.133C80.3029 119.494 81.5389 118.882 82.8125 118.652C83.655 119.065 83.7894 119.691 83.6444 120.356C83.1284 122.713 82.5602 125.057 82.0048 127.437C80.8466 127.505 80.4739 126.641 79.9245 126.097C78.9861 125.163 78.0244 124.317 76.6767 124.042Z" fill="white"/>
<path d="M98.4275 164.395C99.4024 164.195 100.226 163.758 100.484 162.75C100.681 161.947 100.683 161.089 100.786 160.265C100.927 159.157 101.087 158.058 101.228 156.95C101.272 156.68 101.296 156.401 101.4 155.601C103.318 158.382 104.122 160.874 104.909 163.515C104.377 163.861 103.967 164.234 103.489 164.426C101.507 165.233 99.4882 165.942 97.5128 166.747C95.7054 167.49 93.9358 168.315 92.1405 169.069C91.2953 169.427 90.4149 169.711 89.4843 170.053C88.0895 168.763 87.9574 166.89 87.1592 165.364C86.341 163.807 85.6456 162.172 84.8275 160.615C84.0189 159.062 83.0126 157.597 82.7695 155.638C83.2494 155.366 83.7006 155.081 84.182 154.857C87.5444 153.289 90.9319 151.767 94.2789 150.157C95.5016 149.573 96.6042 149.851 97.8509 150.219C97.4867 152.449 97.1778 154.634 96.4429 156.85C94.7542 155.667 93.539 154.001 91.5896 153.558C90.7227 153.9 90.7338 154.579 90.9249 155.208C91.0749 155.724 91.4006 156.2 91.7229 156.645C93.3545 158.905 95.023 161.135 96.6362 163.409C97.0993 164.064 97.5391 164.57 98.4275 164.395Z" fill="white"/>
<path d="M184.639 179.694C182.384 177.791 179.967 177.091 177.18 178.432C177.01 178.51 176.833 178.567 176.652 178.617C174.435 179.217 173.058 180.7 171.974 182.678C170.564 185.26 171.377 188.145 172.847 189.964C173.442 190.698 174.234 191.209 175.175 191.396C177.118 191.778 179.047 191.864 180.413 191.322C183.161 190.353 185.058 188.727 186.096 186.71C187.358 184.246 186.747 181.477 184.639 179.694ZM268.632 135.265C268.817 135.617 269.121 135.99 269.216 136.4C270.523 142.121 271.813 147.841 273.069 153.573C273.229 154.292 273.217 155.059 273.202 155.795C273.168 157.173 272.658 158.337 271.463 159.126C268.972 160.755 266.608 162.639 263.961 163.953C255.463 168.185 247.023 172.531 238.255 176.203C236.879 176.78 235.488 177.315 234.121 177.896C224.079 182.14 214.066 186.444 204.004 190.631C196.607 193.713 189.148 196.643 181.726 199.654C175.158 202.312 168.616 205.016 162.046 207.667C157.559 209.481 153.055 211.27 148.541 213.031C137.002 217.546 125.443 222.005 113.913 226.565C111.144 227.653 108.493 229.04 105.783 230.265C104.592 230.806 103.373 231.269 102.181 231.786C100.556 232.486 98.97 233.291 97.3144 233.907C94.5348 234.944 91.7581 236.074 88.7238 236.093C84.7299 236.115 81.1615 235.003 78.512 231.831C77.1396 230.191 75.8567 228.471 74.6272 226.723C72.2246 223.294 70.3387 219.564 68.2702 215.488C70.2541 214.577 71.8924 213.697 73.625 213.053C86.6323 208.213 99.6774 203.454 112.684 198.59C120.715 195.594 128.712 192.506 136.697 189.407C150.079 184.223 163.455 179.025 176.81 173.771C186.433 169.984 195.989 166.038 205.626 162.292C215.618 158.409 225.249 153.673 235.29 149.922C240.262 148.065 245.056 145.748 249.943 143.66C254.913 141.541 259.902 139.471 264.855 137.326C266.121 136.774 267.291 136.003 268.632 135.265ZM248.234 166.814C248.466 166.451 248.378 165.713 248.165 165.283C248.019 164.995 247.376 164.779 246.995 164.823C246.178 164.933 245.367 165.167 244.6 165.457C235.631 168.798 226.861 172.614 218.168 176.616C217.951 176.72 217.776 176.935 217.588 177.091C217.822 177.99 218.521 178.075 219.142 177.95C220.946 177.565 222.789 177.222 224.525 176.608C231.442 174.148 238.319 171.598 245.214 169.075C245.647 168.915 246.142 168.813 246.485 168.536C247.132 168.029 247.8 167.49 248.234 166.814ZM241.514 162.914C241.458 162.696 241.198 162.442 240.986 162.385C240.637 162.299 240.231 162.273 239.892 162.366C238.278 162.816 236.786 163.53 235.508 164.635C235.393 164.733 235.4 164.968 235.3 165.323C235.702 165.421 236.114 165.635 236.497 165.598C237.042 165.548 237.586 165.364 238.087 165.149C239.188 164.689 240.274 164.187 241.331 163.648C241.484 163.568 241.573 163.138 241.514 162.914Z" fill="white"/>
<path d="M292.71 145.177C296.447 149.689 296.643 156.795 293.161 161.519C292.015 163.068 290.594 164.129 288.679 164.19C288.159 163.769 288.404 163.441 288.571 163.118C289.286 161.712 290.041 160.331 290.715 158.9C292.223 155.678 292.644 152.348 291.676 148.868C291.437 147.979 291.277 147.046 291.256 146.124C291.244 145.66 291.636 145.191 291.881 144.648C292.273 144.893 292.551 144.982 292.71 145.177Z" fill="white"/>
<path d="M282.329 140.779C285.061 143.635 286.699 146.71 287.142 150.319C287.441 152.71 287.507 155.139 287.568 157.555C287.651 160.589 286.318 163.143 284.578 165.497C284.202 166.009 283.653 166.417 283.129 166.784C282.295 167.368 281.175 166.763 281.128 165.724C281.105 165.359 281.154 164.976 281.264 164.626C281.491 163.923 281.682 163.17 282.07 162.559C283.681 160.006 283.988 157.21 284.01 154.264C284.036 150.681 283.385 147.244 282.426 143.832C282.183 142.977 281.718 142.099 282.329 140.779Z" fill="white"/>
<path d="M226.305 65.0618C230.51 76.4919 234.711 87.9315 238.917 99.3615C239.174 100.061 239.458 100.751 239.643 101.469C239.959 102.719 239.591 103.187 237.868 103.749C236.565 102.71 236.064 101.41 235.609 100.084C233.927 95.1591 232.211 90.2471 230.578 85.3043C228.431 78.7642 226.37 72.2002 224.232 65.6644C223.574 63.6351 222.78 61.6476 222.06 59.6414C221.658 58.5264 221.008 57.4471 221.503 55.9631C221.973 56.4653 222.398 56.8015 222.685 57.2362C224.281 59.6592 225.311 62.3541 226.305 65.0618Z" fill="white"/>
<path d="M223.978 72.1097C224.958 74.4099 225.946 76.7311 226.018 79.2851C226.028 79.6149 225.823 79.9441 225.647 80.5012C225.159 80.0608 224.726 79.8311 224.557 79.4801C224.195 78.7317 223.919 77.936 223.696 77.1362C223.242 75.5323 222.83 73.9129 222.418 72.2935C222.22 71.5166 221.873 70.723 222.415 69.9285C223.459 70.2837 223.631 71.2925 223.978 72.1097Z" fill="white"/>
<path d="M241.331 163.648C240.274 164.187 239.188 164.689 238.086 165.149C237.586 165.364 237.042 165.548 236.496 165.598C236.113 165.635 235.701 165.421 235.3 165.323C235.4 164.968 235.393 164.733 235.508 164.635C236.785 163.53 238.278 162.816 239.891 162.366C240.23 162.273 240.637 162.299 240.986 162.385C241.197 162.442 241.457 162.696 241.514 162.914C241.572 163.138 241.484 163.568 241.331 163.648Z" fill="white"/>
<path d="M218.168 176.616C226.861 172.614 235.631 168.798 244.6 165.457C245.367 165.167 246.178 164.933 246.995 164.823C247.376 164.779 248.019 164.995 248.165 165.283C248.378 165.713 248.466 166.451 248.234 166.814C247.8 167.49 247.132 168.028 246.485 168.536C246.142 168.813 245.647 168.915 245.213 169.074C238.319 171.598 231.442 174.147 224.525 176.608C222.789 177.222 220.946 177.565 219.142 177.95C218.52 178.075 217.822 177.99 217.588 177.091C217.776 176.935 217.951 176.719 218.168 176.616Z" fill="white"/>
<path d="M112.55 118.047C110.916 118.702 109.241 119.286 107.574 119.85C107.257 119.959 106.864 119.841 106.503 119.83C109.183 117.766 112.149 116.415 115.124 115.132C120.855 112.662 126.655 110.358 132.411 107.958C134.647 107.018 136.849 106.011 139.062 105.031C148.601 100.822 158.269 96.8985 167.662 92.3373C170.674 90.874 173.795 89.6408 176.876 88.3027C180.889 86.5592 184.899 84.8087 188.922 83.0931C189.954 82.6588 191.028 82.3198 192.15 82.9084C192.54 83.1065 192.737 83.7726 192.449 84.0926C192.262 84.2963 192.078 84.5306 191.849 84.6625C191.288 84.9954 190.715 85.3169 190.12 85.5754C183.002 88.5941 175.877 91.5918 168.774 94.6288C165.684 95.946 162.658 97.3909 159.578 98.7124C150.932 102.412 142.293 106.132 133.601 109.728C128.958 111.656 124.202 113.323 119.515 115.155C117.175 116.07 114.891 117.115 112.55 118.047Z" fill="white"/>
<path d="M129.391 154.85C127.85 155.496 126.286 156.102 124.709 156.673C124.016 156.927 123.278 157.143 122.546 156.665C122.85 155.784 123.687 155.556 124.409 155.187C132.791 150.918 141.478 147.331 150.214 143.853C159.378 140.202 168.488 136.404 177.594 132.616C185.158 129.473 192.691 126.246 199.98 122.505C200.977 121.996 201.943 121.427 202.96 120.998C203.759 120.665 204.47 121.023 204.818 121.753C205.18 122.525 205.085 123.259 204.387 123.737C203.475 124.366 202.504 124.945 201.504 125.423C195.461 128.317 189.352 131.077 183.109 133.536C173.754 137.209 164.454 141.03 155.102 144.71C149.642 146.858 144.104 148.796 138.637 150.923C135.518 152.14 132.481 153.557 129.391 154.85Z" fill="white"/>
<path d="M141.091 135.92C136.052 137.874 131.048 139.902 126.049 141.944C123.813 142.86 121.638 143.921 119.414 144.849C118.865 145.083 118.209 145.069 117.601 145.166C124.878 140.397 132.748 137.07 140.733 133.971C151.927 129.622 163.063 125.112 174.191 120.605C177.73 119.17 181.139 117.426 184.676 116.008C190.724 113.581 196.829 111.307 202.908 108.964C203.799 108.621 204.702 108.487 205.641 108.73C206.195 108.876 206.513 109.657 206.129 110.06C205.75 110.453 205.331 110.869 204.845 111.103C203.848 111.588 202.797 111.99 201.757 112.38C195.65 114.67 189.52 116.874 183.451 119.245C177.988 121.386 172.625 123.777 167.169 125.915C158.5 129.313 149.774 132.557 141.091 135.92Z" fill="white"/>
<path d="M146.45 94.8548C132.493 100.568 118.528 106.26 104.235 111.08C103.556 111.305 102.876 111.769 101.725 111.033C102.555 110.482 103.118 110.005 103.762 109.705C104.946 109.167 106.176 108.731 107.392 108.261C116.055 104.865 124.768 101.586 133.367 98.0394C140.941 94.9245 148.386 91.4998 155.89 88.236C165.447 84.0754 174.986 79.8659 184.759 76.2295C186.242 75.6848 187.669 74.9861 189.154 74.4484C190.025 74.1368 190.947 73.925 191.857 73.8292C192.217 73.7924 192.821 74.1184 192.941 74.4237C193.061 74.729 192.821 75.3729 192.535 75.5891C191.866 76.0809 191.102 76.4648 190.338 76.7849C187.502 77.9694 184.686 79.2099 181.801 80.2615C173.217 83.374 164.856 87.0079 156.486 90.6374C153.158 92.082 149.804 93.4802 146.45 94.8548Z" fill="white"/>
<path d="M93.3843 92.7361C94.0996 92.9974 94.4097 93.5823 94.4156 94.2471C94.4198 95.1666 94.435 96.1377 94.1447 96.9907C91.8209 103.982 90.3905 111.201 88.537 118.305C88.1581 119.738 88.2772 120.949 88.9826 122.286C90.5388 125.248 91.9233 128.305 93.3052 131.355C94.0735 133.057 93.7133 133.936 92.0564 134.743C90.7198 135.385 89.3609 135.987 87.9898 136.578C84.3211 138.155 80.8922 140.256 77.0901 141.557C74.4808 142.452 73.7249 142.253 72.4694 139.721C71.7215 138.224 71.0385 136.689 70.351 135.163C69.4762 133.213 68.6085 131.261 67.7801 129.286C67.3079 128.173 66.8681 127.04 66.5244 125.888C66.0146 124.154 66.626 122.77 68.1079 121.789C68.7205 121.382 69.4118 121.08 70.0736 120.742C72.4801 119.533 74.8634 118.26 77.3077 117.132C79.6522 116.057 81.9597 114.773 84.978 114.927C85.5407 112.632 86.0086 110.555 86.5644 108.501C87.7495 104.095 88.9634 99.7033 90.2034 95.3175C90.4018 94.6253 90.725 93.927 91.146 93.3436C91.7185 92.5458 92.5115 92.4134 93.3843 92.7361ZM89.4373 131.568C88.7676 130.004 88.0868 128.388 87.3755 126.775C87.3178 126.661 87.0878 126.619 86.767 126.458C86.595 126.855 86.3682 127.232 86.2721 127.641C86.0084 128.825 85.8371 130.024 85.5447 131.195C84.9731 133.509 83.0954 134.191 81.3774 132.582C79.4096 130.748 77.5991 128.737 75.7894 126.75C75.4457 126.376 75.2972 125.755 75.2389 125.229C75.1445 124.366 75.8205 123.872 76.6769 124.042C78.0246 124.317 78.9863 125.163 79.9247 126.097C80.474 126.641 80.8468 127.505 82.0049 127.437C82.5603 125.057 83.1285 122.713 83.6445 120.356C83.7895 119.691 83.6551 119.065 82.8126 118.652C81.5391 118.882 80.3031 119.494 79.0608 120.133C76.5876 121.399 74.3573 123.131 71.66 124.002C70.9195 124.235 70.314 124.878 69.5217 125.423C71.5578 129.757 73.5235 133.942 75.5322 138.223C78.3975 137.528 87.846 132.986 89.4373 131.568Z" fill="white"/>
<path d="M103.911 131.239C106.454 132.823 106.522 133.052 105.96 135.521C104.999 139.78 104.1 144.057 103.152 148.328C102.958 149.185 103.115 149.913 103.455 150.733C105.233 154.924 106.956 159.143 108.624 163.382C109.24 164.95 108.878 165.869 107.367 166.575C105.777 167.325 104.094 167.888 102.458 168.56C99.959 169.581 97.4821 170.641 94.9871 171.653C93.3494 172.318 91.715 173.013 90.0407 173.557C87.7264 174.303 86.917 173.894 85.9189 171.608C84.5007 168.373 83.1105 165.128 81.7177 161.876C81.0274 160.256 80.3485 158.623 79.6721 156.998C79.5297 156.653 79.4222 156.295 79.3147 155.938C79.011 154.938 79.2916 154.08 80.0907 153.445C80.5881 153.048 81.155 152.689 81.7369 152.436C85.1416 150.94 88.5584 149.455 91.9837 148.014C93.695 147.29 95.4173 146.618 97.3345 146.541C98.6041 146.496 98.8356 146.197 99.1319 144.841C99.8979 141.392 100.595 137.928 101.387 134.485C101.815 132.644 101.877 132.661 103.911 131.239ZM104.909 163.515C104.122 160.874 103.318 158.382 101.4 155.601C101.297 156.401 101.272 156.68 101.228 156.95C101.087 158.058 100.927 159.157 100.786 160.265C100.684 161.089 100.681 161.947 100.484 162.75C100.227 163.758 99.4026 164.195 98.4277 164.395C97.5393 164.57 97.0995 164.064 96.6364 163.409C95.0232 161.135 93.3547 158.905 91.7231 156.645C91.4008 156.2 91.0751 155.724 90.9251 155.208C90.734 154.579 90.7229 153.9 91.5898 153.558C93.5392 154.001 94.7544 155.667 96.4431 156.85C97.178 154.634 97.4869 152.449 97.8511 150.219C96.6044 149.851 95.5018 149.573 94.2791 150.157C90.9321 151.767 87.5446 153.289 84.1822 154.857C83.7008 155.081 83.2496 155.366 82.7697 155.638C83.0128 157.597 84.0191 159.062 84.8276 160.615C85.6458 162.172 86.3412 163.807 87.1594 165.364C87.9576 166.89 88.0896 168.763 89.4845 170.053C90.4151 169.711 91.2955 169.427 92.1407 169.069C93.936 168.315 95.7056 167.49 97.513 166.747C99.4884 165.942 101.507 165.233 103.489 164.426C103.967 164.234 104.378 163.861 104.909 163.515Z" fill="white"/>
<path d="M64.6892 153.019C67.4914 157.342 69.5331 162.015 71.1075 166.908C71.3937 167.795 71.487 168.698 70.8976 169.796C69.7416 168.918 69.2512 167.907 68.8448 166.865C67.2358 162.7 65.6338 158.532 64.0598 154.354C63.8807 153.888 63.8834 153.355 63.762 152.613C64.2492 152.816 64.5778 152.846 64.6892 153.019Z" fill="white"/>
<path d="M50.3662 89.8657C47.8674 91.2994 45.2867 92.5964 42.7432 93.9513C41.1602 94.7867 39.7805 95.873 38.5338 97.1486C37.6738 98.0282 37.0071 99.0671 36.7747 100.272C36.2032 103.213 35.8585 106.167 36.7683 109.12C37.458 111.344 38.0147 113.617 38.8234 115.797C41.704 123.577 44.2087 131.479 46.5989 139.414C48.8919 147.021 52.0002 154.296 55.1111 161.578C57.2302 166.549 59.5941 171.429 61.4473 176.497C65.4015 187.265 70.0775 197.729 74.4718 208.311C74.6374 208.719 74.8895 209.102 75.1688 209.603C75.7071 209.469 76.1558 209.416 76.5635 209.25C83.676 206.456 90.7559 203.594 97.8915 200.862C106.678 197.501 115.517 194.263 124.319 190.943C129.292 189.069 134.265 187.195 139.198 185.233C150.891 180.598 162.561 175.899 174.243 171.236C181.599 168.305 189.003 165.482 196.316 162.432C204.567 158.997 212.733 155.331 220.956 151.819C231.753 147.211 242.572 142.659 253.374 138.064C253.945 137.823 254.461 137.435 255.112 137.045C254.734 135.517 254.416 134.069 254.012 132.645C253.499 130.857 252.877 129.1 252.375 127.299C250.892 122.008 249.552 116.672 247.972 111.416C245.655 103.747 243.351 96.0653 240.729 88.4924C237.29 78.5437 233.582 68.6857 229.917 58.8122C227.745 52.9637 225.438 47.157 223.155 41.3495C221.819 37.9494 219.887 34.8715 217.76 31.9126C217.253 31.2017 216.65 30.7718 215.771 30.539C214.435 30.1879 213.107 29.7068 211.867 29.0981C210.9 28.6274 209.973 28.3725 208.921 28.5999C206.377 29.1531 203.796 29.5847 201.291 30.2664C198.059 31.1516 194.864 32.1818 191.677 33.2331C187.43 34.6417 183.193 36.0548 178.992 37.5894C174.358 39.2833 169.781 41.1547 165.159 42.8836C153.896 47.0909 142.613 51.2423 131.351 55.4496C126.902 57.1072 122.515 58.9564 118.04 60.5441C108.012 64.0916 98.2535 68.2865 88.4848 72.4534C80.4293 75.88 72.4071 79.3976 64.4203 82.9896C59.6625 85.1259 54.8996 87.2481 50.3662 89.8657ZM67.7544 213.414C68.8649 212.784 70.1286 212.074 71.5176 211.294C70.7208 209.037 69.8808 206.988 69.0032 204.944C65.1406 195.96 61.3174 186.955 57.9088 177.781C56.194 173.154 54.1852 168.636 52.186 164.121C49.5512 158.157 46.9373 152.185 44.9035 145.976C42.8509 139.695 40.8824 133.383 38.8622 127.082C37.5051 122.824 36.1244 118.567 34.7463 114.317C33.3734 110.081 32.949 105.79 33.6336 101.362C34.1299 98.1942 35.6041 95.7869 38.3761 94.1893C39.0251 93.816 39.6818 93.4637 40.3289 93.1069C42.1241 92.1142 43.9891 91.2467 45.6884 90.1225C52.397 85.6659 59.7125 82.4078 67.0151 79.1148C76.0136 75.056 85.0449 71.0646 94.0812 67.0872C98.6821 65.0642 103.287 63.0316 107.964 61.1713C117.313 57.4604 126.712 53.8659 136.091 50.2154C151.284 44.3024 166.722 39.0305 181.806 32.8402C188.828 30.6427 195.834 28.4032 202.885 26.2826C204.742 25.7195 206.707 25.4904 208.641 25.2009C211.125 24.8288 213.449 25.2539 215.512 26.8069C216.028 27.1969 216.619 27.4879 217.197 27.7841C218.559 28.4669 219.705 29.4039 220.621 30.6001C222.898 33.5591 224.982 36.6607 226.444 40.1018C228.454 44.8186 230.359 49.574 232.25 54.3345C238.19 69.32 243.787 84.4314 248.472 99.8699C249.749 104.062 251.068 108.238 252.301 112.438C254.401 119.584 256.445 126.75 258.517 133.905C258.64 134.328 258.864 134.722 259.083 135.23C260.775 134.974 262.195 134.277 263.626 133.657C264.997 133.066 266.342 132.445 268.27 132.809C267.999 131.725 267.864 131.1 267.685 130.483C265.623 123.419 263.554 116.357 261.492 109.293C258.414 98.7279 254.648 88.407 250.446 78.2385C247.283 70.5782 244.265 62.857 241.17 55.164C239.363 50.6745 237.595 46.1627 235.675 41.7143C232.946 35.3638 229.661 29.3367 225.372 23.861C223.802 21.8569 222.088 20.0882 220.027 18.6059C217.342 16.6543 214.324 15.8328 211.067 16.1952C208.479 16.4785 206.008 17.2511 203.601 18.3732C200.062 20.0222 196.461 21.5906 192.761 22.8224C182.243 26.3116 171.624 29.5043 161.112 33.0311C152.902 35.7762 144.719 38.662 136.645 41.8014C123.714 46.8279 110.902 52.1761 97.9895 57.2751C87.8502 61.2764 77.7393 65.3546 67.8181 69.8633C63.3262 71.9019 58.885 74.0569 54.4764 76.2792C50.1537 78.4542 45.8636 80.6966 41.6364 83.0668C37.9863 85.1059 34.4439 87.3516 30.8662 89.523C28.4808 90.9627 27.202 93.1236 26.7062 95.8386C26.2374 98.4325 26.061 101.022 26.5213 103.616C26.9253 105.906 27.4349 108.18 27.8694 110.466C28.6108 114.323 29.8102 118.043 31.2246 121.7C32.1658 124.134 33.0721 126.58 33.9154 129.049C35.7209 134.333 37.48 139.643 39.2575 144.937C39.6387 146.083 40.0225 147.237 40.3758 148.393C41.9841 153.551 43.5785 158.715 45.1912 163.863C45.4396 164.669 45.7089 165.468 46.0806 166.22C48.5721 171.34 50.2736 176.774 52.3434 182.064C53.2204 184.322 54.2278 186.525 55.1328 188.773C56.9453 193.277 59.2621 197.532 61.4231 201.859C63.047 205.114 64.587 208.4 66.19 211.662C66.504 212.301 66.6556 213.103 67.7544 213.414ZM68.2698 215.488C70.3383 219.564 72.2242 223.294 74.6269 226.723C75.8563 228.471 77.1392 230.191 78.5116 231.831C81.1612 235.003 84.7295 236.114 88.7234 236.093C91.7577 236.074 94.5345 234.944 97.314 233.907C98.9696 233.291 100.556 232.486 102.181 231.786C103.372 231.269 104.592 230.806 105.783 230.265C108.493 229.04 111.144 227.653 113.913 226.565C125.443 222.005 137.002 217.546 148.54 213.031C153.055 211.27 157.559 209.481 162.046 207.667C168.616 205.016 175.158 202.312 181.725 199.654C189.147 196.643 196.607 193.713 204.003 190.631C214.066 186.444 224.078 182.14 234.121 177.896C235.487 177.315 236.879 176.78 238.255 176.203C247.022 172.531 255.463 168.185 263.961 163.953C266.607 162.639 268.972 160.755 271.462 159.125C272.658 158.337 273.167 157.173 273.201 155.795C273.217 155.059 273.229 154.292 273.068 153.573C271.813 147.841 270.522 142.121 269.215 136.4C269.12 135.99 268.817 135.617 268.632 135.265C267.291 136.003 266.121 136.774 264.855 137.326C259.902 139.471 254.913 141.541 249.943 143.66C245.056 145.748 240.261 148.065 235.29 149.922C225.249 153.673 215.618 158.409 205.626 162.292C195.988 166.038 186.432 169.984 176.81 173.771C163.454 179.025 150.078 184.223 136.697 189.407C128.712 192.506 120.714 195.594 112.684 198.59C99.677 203.454 86.6319 208.213 73.6246 213.053C71.892 213.697 70.2537 214.576 68.2698 215.488ZM256.152 81.9712C258.699 88.4757 260.976 95.0874 263.309 101.679C264.052 103.788 264.589 105.965 265.218 108.108C267.616 116.239 270.057 124.355 272.378 132.515C273.392 136.097 274.19 139.742 275.014 143.37C275.731 146.553 276.43 149.734 276.968 152.951C277.205 154.396 277.198 155.932 277.001 157.385C276.654 159.943 275.444 162.118 273.565 163.943C271.403 166.055 268.896 167.683 266.149 168.85C261.269 170.936 256.374 172.98 251.362 174.749C248.826 175.648 246.427 176.942 243.971 178.059C243.038 178.481 242.118 178.937 241.175 179.331C235.14 181.818 229.084 184.248 223.072 186.773C217.574 189.078 212.112 191.481 206.638 193.848C206.307 193.986 206.01 194.214 205.567 194.48C206.027 196.748 206.301 199.093 207.25 201.182C208.865 204.734 210.793 208.147 212.558 211.636C213 212.514 213.629 213.124 214.475 213.592C217.576 215.288 220.654 217.032 223.768 218.723C225.664 219.758 227.39 220.998 228.881 222.57C230.635 224.427 230.561 226.194 228.504 227.751C227.324 228.645 226.061 229.466 224.737 230.119C213.783 235.555 202.365 239.859 190.799 243.78C187.622 244.86 184.494 246.072 181.354 247.249C176.735 248.985 172.116 250.744 167.495 252.473C166.707 252.771 165.901 253.019 165.093 253.22C163.298 253.673 162.203 253.09 161.715 251.285C161.144 249.191 161.143 247.048 161.454 244.909C161.786 242.572 162.662 240.416 163.609 238.282C164.599 236.068 165.484 233.83 166.075 231.461C166.41 230.123 166.347 228.892 165.884 227.632C164.136 222.915 162.394 218.194 160.649 213.484C160.587 213.316 160.43 213.191 160.115 212.766C159.409 213.026 158.804 213.24 158.205 213.468C151.242 216.128 144.267 218.777 137.311 221.458C132.88 223.165 128.501 224.971 124.18 226.979C118.611 229.564 112.822 231.682 107.135 234.033C105.499 234.704 103.882 235.425 102.3 236.221C98.2492 238.248 93.9278 239.454 89.4631 239.815C84.3114 240.23 79.6999 238.7 76.0775 234.782C74.1056 232.655 72.5353 230.238 70.9878 227.797C67.9964 223.068 65.3667 218.134 62.8438 213.145C60.8701 209.24 59.1355 205.209 57.1084 201.332C53.2522 193.966 50.1807 186.272 47.342 178.477C41.8335 163.325 36.2105 148.208 30.744 133.041C28.8546 127.787 27.1559 122.448 25.5909 117.083C24.2363 112.443 23.2438 107.686 22.7185 102.861C22.3944 99.8596 22.7277 96.9184 23.4247 93.9946C24.1209 91.0472 25.6621 88.6708 28.1651 86.9894C31.7147 84.5902 35.3117 82.2768 39.1314 80.3103C43.1043 78.2638 46.9868 76.0361 50.97 74.0176C55.3664 71.7838 59.8198 69.6402 64.2816 67.5412C67.9925 65.7974 71.7566 64.1769 75.5027 62.5075C76.5265 62.0521 77.5478 61.5898 78.587 61.1764C87.1545 57.7602 95.7324 54.372 104.302 50.9393C113.039 47.4449 121.74 43.8526 130.498 40.4142C142.474 35.7067 154.595 31.4145 166.889 27.6146C173.112 25.6865 179.429 24.0337 185.684 22.1895C188.175 21.4493 190.636 20.5615 193.083 19.6788C197.989 17.9012 202.858 16.0257 207.781 14.2971C210.446 13.3584 213.216 13.0955 216.042 13.6138C218.188 14.0089 220.118 14.809 221.962 15.9819C224.588 17.6617 226.69 19.796 228.629 22.2441C233.13 27.928 236.448 34.2606 239.311 40.8476C241.975 46.9996 244.332 53.2882 246.873 59.4934C249.946 66.9961 253.198 74.4249 256.152 81.9712ZM222.308 226.834C223.022 226.508 223.793 226.186 224.392 225.179C218.453 223.192 213.66 219.457 208.713 216.518C207.461 216.978 206.48 217.29 205.539 217.691C200.669 219.781 195.843 221.99 190.934 223.975C186.359 225.83 181.704 227.468 177.075 229.176C174.902 229.982 172.706 230.749 170.395 230.533C170.15 230.925 169.959 231.138 169.877 231.391C168.955 234.222 168.043 237.058 167.146 239.889C166.471 242.011 165.817 244.141 165.155 246.274C164.903 247.081 164.772 247.891 165.377 248.717C166.514 248.744 167.47 248.147 168.465 247.678C171.584 246.223 174.651 244.629 177.841 243.37C181.914 241.771 186.057 240.337 190.224 239.037C199.303 236.211 208.179 232.856 216.941 229.194C218.746 228.444 220.538 227.659 222.308 226.834ZM206.311 211.683C206.189 211.331 206.04 210.988 205.858 210.666C204.105 207.578 202.735 204.325 201.547 200.982C201.058 199.605 200.407 198.288 199.414 197.009C187.908 201.354 176.643 205.967 165.376 210.573C164.708 210.85 164.09 211.243 163.424 211.591C163.618 213.116 164.239 214.373 164.749 215.654C165.956 218.681 167.237 221.673 168.353 224.733C169.185 227 169.842 227.513 172.225 227.17C172.685 227.104 173.154 227.019 173.579 226.855C178.276 225.074 183.02 223.396 187.637 221.439C193.288 219.054 198.842 216.427 204.432 213.897C204.856 213.71 205.294 213.541 205.705 213.319C206.361 212.967 206.568 212.406 206.311 211.683Z" fill="white"/>
<path d="M57.3049 150.252C60.3272 156.32 63.3426 162.391 66.3579 168.461C68.2633 172.288 70.208 176.091 72.0529 179.948C72.5234 180.926 72.774 182.041 72.9716 183.12C73.0357 183.446 72.6611 184.004 72.3326 184.212C71.8419 184.519 71.2405 184.439 70.8517 183.898C70.4775 183.377 70.0842 182.846 69.8072 182.265C67.4911 177.407 65.1234 172.559 62.9167 167.653C60.7073 162.739 58.6468 157.755 56.5469 152.793C56.2197 152.032 55.9688 151.219 55.8051 150.406C55.7274 150.021 55.9215 149.577 55.9948 149.193C56.8628 149.199 57.0614 149.762 57.3049 150.252Z" fill="white"/>
<path d="M12.0605 89.4257C11.9449 89.7381 11.9081 90.1566 11.6821 90.4063C10.7689 91.4007 10.3933 92.6265 10.054 93.8865C8.83344 98.3684 8.62405 102.836 10.0608 107.311C10.3778 108.282 10.6669 109.264 10.9043 110.257C11.0645 110.952 11.1075 111.675 11.2547 112.724C10.5172 112.273 10.0109 112.062 9.63726 111.714C8.38989 110.545 7.63058 109.061 7.0849 107.467C5.27055 102.202 5.75416 97.0536 7.95373 92.0375C8.35077 91.1295 9.0308 90.3001 9.74308 89.6018C10.3341 89.0275 11.1635 88.6912 12.0605 89.4257Z" fill="white"/>
<path d="M15.8699 86.955C16.38 85.9657 16.9946 85.0016 18.0252 84.4564C18.385 84.2687 18.8345 84.2386 19.2583 84.1386C19.6164 85.2219 19.0665 85.9082 18.6777 86.6227C16.2523 91.1102 15.3351 95.8777 16.2133 100.907C16.5323 102.727 17.2733 104.464 17.7426 106.261C18.0249 107.332 18.1927 108.438 18.3013 109.533C18.3256 109.794 17.9832 110.246 17.7103 110.346C17.426 110.458 16.8857 110.371 16.6979 110.162C16.1015 109.468 15.4688 108.739 15.0924 107.909C11.9139 100.81 12.2898 93.812 15.8699 86.955Z" fill="white"/>
<path d="M134.755 89.0651C133.937 87.8966 133.1 86.7428 132.22 85.621C131.756 85.0289 131.496 84.4496 131.536 83.6726C131.613 82.2389 131.393 80.8189 131.033 79.4267C130.139 75.9991 128.799 72.7595 127.116 69.6457C126.526 68.56 125.766 67.5925 124.734 66.8998C124.322 66.6221 123.82 66.3378 123.351 66.3355C121.651 66.3326 120.153 66.8588 119.079 68.3014C118.301 69.3412 117.799 70.5024 117.53 71.7603C117.125 73.6637 117.009 75.5962 116.999 77.5372C116.993 80.7632 117.752 83.8035 119.078 86.7228C119.894 88.5116 121.063 90.0515 122.572 91.3076C123.112 91.7605 123.744 92.14 124.377 92.4392C125.387 92.918 126.436 92.8982 127.494 92.4936C128.66 92.0576 129.439 91.2158 130.042 90.1765C130.295 89.7421 130.505 89.2759 130.861 88.5813C131.565 89.4585 132.135 90.1699 132.708 90.8648C133.029 91.263 133.35 91.6613 133.721 92.0014C133.891 92.1614 134.178 92.2942 134.397 92.2852C135.273 92.2493 135.862 91.3661 135.549 90.5361C135.352 90.0209 135.073 89.52 134.755 89.0651ZM129.058 78.2861C129.358 79.2556 129.554 80.2637 129.777 81.2615C129.831 81.4957 129.783 81.7518 129.78 82.0467C129.242 81.9662 129.072 81.5681 128.828 81.2925C128.345 80.7553 127.843 80.2328 127.154 79.9777C126.839 79.8552 126.455 79.8055 126.122 79.8485C125.457 79.9417 125.157 80.4648 125.416 81.0843C125.61 81.5453 125.871 81.9973 126.166 82.4128C127.237 83.9015 128.336 85.3798 129.526 86.9993C129.319 87.9487 129.019 88.861 128.47 89.6816C128.068 90.2738 127.548 90.457 126.884 90.1846C126.516 90.0259 126.186 89.7742 125.846 89.5415C124.445 88.5793 123.637 87.137 122.977 85.6407C121.582 82.4923 120.606 79.2063 120.579 75.7383C120.56 74.1731 120.821 72.5924 121.031 71.0227C121.141 70.1563 121.464 69.3471 122.022 68.6417C122.745 67.7332 123.18 67.6848 124.057 68.3869C124.915 69.0802 125.484 69.9827 125.992 70.9318C127.268 73.282 128.259 75.7446 129.058 78.2861Z" fill="white"/>
<path d="M151.557 62.0597C150.51 62.3012 149.617 62.788 148.665 63.1374C147.739 63.4696 146.9 64.1269 145.652 64.0136C145.815 63.6998 145.853 63.5029 145.982 63.4C146.249 63.175 146.542 62.9563 146.855 62.7935C148.212 62.097 149.577 61.405 150.958 60.7313C151.323 60.5576 151.722 60.4347 152.119 60.3685C152.761 60.2595 153.221 60.4956 153.455 61.1323C153.692 61.7995 153.899 62.4936 153.984 63.2008C154.22 65.2264 154.369 67.2522 154.329 69.3073C154.267 72.3158 154.325 75.3276 154.34 78.3314C154.344 78.6237 154.442 78.9131 154.494 79.2275C155.201 79.2062 155.729 78.8696 156.263 78.594C157.809 77.8116 159.329 76.9758 160.865 76.1654C161.132 76.0276 161.408 75.8707 161.697 75.8125C162.095 75.7297 162.519 76.0188 162.678 76.3889C162.836 76.7756 162.705 77.1097 162.429 77.3538C162.165 77.5858 161.852 77.7721 161.532 77.9374C158.948 79.2676 156.354 80.5933 153.769 81.9235C153.634 81.9889 153.498 82.0708 153.358 82.1222C152.46 82.4441 151.7 82.1039 151.431 81.1782C151.265 80.596 151.187 79.9735 151.178 79.3654C151.147 77.2252 151.112 75.078 151.192 72.9368C151.296 70.2384 151.519 67.5363 151.681 64.8409C151.741 63.9453 151.9 63.0374 151.557 62.0597Z" fill="white"/>
<path d="M139.32 84.5223C139.81 84.1279 139.649 83.6234 139.634 83.1923C139.564 81.4471 139.277 79.7343 138.762 78.0733C137.889 75.2416 136.939 72.4382 136.031 69.6194C135.933 69.33 135.82 69.0457 135.736 68.7511C135.637 68.3745 135.738 68.0436 136.056 67.8077C136.291 67.6261 136.734 67.7495 136.958 68.1436C137.409 68.9388 137.837 69.7583 138.202 70.6009C139.371 73.3316 140.095 76.2102 140.881 79.0657C141.212 80.2466 141.463 81.4487 141.697 82.649C141.801 83.1906 141.827 83.7604 141.844 84.3258C141.855 84.6792 141.821 85.041 141.752 85.3921C141.454 86.7877 140.34 87.3637 139.103 86.6983C137.564 85.8817 136.113 84.9139 135.134 83.4154C134.439 82.3446 133.691 81.3013 133.11 80.1729C131.677 77.3958 130.596 74.4738 129.543 71.5415C129.422 71.2126 129.359 70.8467 129.358 70.4977C129.363 69.7972 130.088 69.4357 130.67 69.8096C131.117 70.0979 131.373 70.5359 131.581 71.0154C132.158 72.3279 132.733 73.6335 133.31 74.946C134.336 77.2849 135.478 79.5731 136.831 81.7442C137.344 82.5564 138 83.2841 138.621 84.0246C138.797 84.2221 139.093 84.3594 139.32 84.5223Z" fill="white"/>
<path d="M142.927 76.6551C141.717 73.0579 140.639 70.0791 139.954 66.9801C139.894 66.7319 139.812 66.4844 139.806 66.2323C139.784 65.4784 140.555 65.0283 141.202 65.4261C141.449 65.5814 141.685 65.8124 141.841 66.0647C142.161 66.5904 142.481 67.116 142.692 67.6897C143.226 69.1215 143.727 70.5731 144.191 72.0305C145.11 74.9009 145.998 77.7745 146.894 80.6455C147.123 81.379 147.381 82.1023 147.58 82.8391C147.659 83.1196 147.653 83.4476 147.6 83.7369C147.511 84.2065 146.899 84.423 146.505 84.1708C145.92 83.79 145.592 83.2198 145.347 82.5952C144.467 80.417 143.574 78.2438 142.927 76.6551Z" fill="white"/>
<path d="M139.886 64.202C139.316 64.3795 138.755 64.0852 138.546 63.4949C138.353 62.9466 138.656 62.3031 139.201 62.1428C139.738 61.9851 140.411 62.3256 140.561 62.8422C140.727 63.4008 140.409 64.0494 139.886 64.202Z" fill="white"/>
</g>
</svg>
