<svg width="139" height="161" viewBox="0 0 139 161" fill="none" xmlns="http://www.w3.org/2000/svg">
<g id="Group 1000019075">
<g id="Group 1000019050">
<g id="Group">
<g id="Group_2">
<g id="Group_3">
<path id="Vector" opacity="0.6" d="M108.858 1.61648C102.265 1.04948 96.4607 5.93365 95.8934 12.5253C95.6912 14.8767 96.1842 17.1274 97.2004 19.0767L94.2594 23.2464L99.4288 22.0964C101.347 23.9843 103.909 25.2417 106.8 25.4904C113.394 26.0574 119.198 21.1732 119.765 14.5816C120.334 7.98976 115.45 2.18374 108.858 1.61648Z" fill="#00B0DC"/>
</g>
<path id="Vector_2" opacity="0.1" d="M108.857 1.61666C102.263 1.04966 96.4592 5.93384 95.892 12.5254C95.6898 14.8769 96.1827 17.1276 97.1989 19.0769L94.258 23.2466L99.4273 22.0966C101.346 23.9845 103.907 25.2419 106.799 25.4906C113.392 26.0576 119.197 21.1734 119.764 14.5818C120.333 7.98994 115.448 2.18392 108.857 1.61666Z" fill="black"/>
</g>
<path id="Vector_3" d="M109.449 24.8395C108.594 24.9614 107.721 24.9859 106.853 24.9098C104.215 24.6831 101.725 23.5353 99.8408 21.6806L99.6148 21.4569L95.6732 22.3341C95.6623 22.3338 95.6529 22.3316 95.6463 22.3234C95.6397 22.3153 95.6399 22.3044 95.6458 22.2945L97.8831 19.1214L97.7183 18.8056C96.7191 16.8865 96.2889 14.7321 96.4752 12.5752C96.9337 7.25847 100.937 3.02089 106.213 2.26954C107.066 2.14794 107.941 2.12315 108.808 2.19922C115.069 2.73916 119.724 8.27121 119.186 14.532C118.728 19.8488 114.724 24.0882 109.449 24.8395ZM99.6184 21.4056C99.6255 21.4046 99.6349 21.4069 99.6394 21.4135L99.8759 21.6466C101.752 23.4934 104.232 24.6336 106.857 24.8603C107.721 24.9351 108.59 24.9111 109.442 24.7897C114.694 24.0417 118.68 19.8229 119.137 14.5282C119.673 8.29481 115.038 2.78716 108.805 2.25054C107.941 2.17574 107.072 2.19977 106.22 2.32111C100.968 3.06917 96.9815 7.28796 96.5253 12.5826C96.3394 14.7304 96.7684 16.8758 97.7628 18.7865L97.9349 19.1158C97.9397 19.1242 97.9395 19.1352 97.9331 19.1415L95.7258 22.2704L99.6163 21.4041C99.6166 21.4059 99.6184 21.4056 99.6184 21.4056Z" fill="white"/>
<path id="Vector_4" d="M111.653 10.9498C111.693 10.8098 111.63 10.6609 111.503 10.5882C110.923 10.2572 110.124 10.0262 109.316 9.95621C106.586 9.72083 104.175 11.75 103.939 14.4801C103.782 16.3062 104.922 17.3651 106.129 17.469C107.185 17.5598 108.077 17.2223 108.835 16.4394C108.901 16.791 109.044 17.0411 109.18 17.2103C109.47 17.572 109.906 17.7947 110.409 17.8373C112.296 18.0005 114.354 16.4571 114.635 13.1944C114.938 9.68162 112.678 7.01483 109.142 6.70925C104.893 6.34368 101.4 9.43058 101.016 13.8912C100.696 17.6095 103.087 20.5334 106.704 20.8456C108.139 20.9697 109.28 20.8127 110.403 20.3388C110.55 20.2761 110.628 20.1143 110.587 19.9606L110.347 19.0929C110.321 19.0039 110.258 18.9295 110.174 18.8888C110.091 18.8499 109.993 18.8493 109.907 18.8869C109.132 19.2387 108.118 19.3813 107.054 19.2897C104.238 19.0466 102.519 16.8907 102.775 13.9237C103.084 10.3467 105.64 7.95015 108.854 8.22739C111.576 8.462 113.117 10.3511 112.875 13.1583C112.769 14.3874 112.334 15.4002 111.681 15.9395C111.391 16.1787 111.084 16.2932 110.81 16.2651C110.66 16.2483 110.6 16.1843 110.566 16.1329C110.469 15.9853 110.353 15.5681 110.682 14.427L111.653 10.9498ZM108.938 11.6069C109.151 11.6256 109.352 11.6622 109.543 11.7167L109.022 13.6036C108.73 14.696 107.671 15.9028 106.744 15.8226C105.897 15.7491 105.834 15.0067 105.872 14.5695C106.02 12.8318 107.425 11.4757 108.938 11.6069Z" fill="white"/>
</g>
<g id="Group_4">
<g id="Group_5">
<path id="Vector_5" d="M83.9591 29.0529C83.9591 29.0529 72.5738 19.9283 65.9228 34.2787C62.1714 42.3794 65.1775 59.4738 72.5738 65.2729C79.9702 71.0638 95.369 58.0649 95.369 58.0649C95.369 58.0649 98.7682 41.5604 93.5834 34.6145C86.9242 25.7028 83.9591 29.0529 83.9591 29.0529Z" fill="#263238"/>
<path id="Vector_6" d="M68.0488 64.2815C67.975 64.2815 67.9013 64.2406 67.8685 64.1669C67.7948 64.0112 60.2019 48.2029 63.9615 36.3507C65.0591 32.9024 66.9594 30.5188 69.6296 29.282C74.454 27.0377 80.1712 29.3557 80.2286 29.3803C80.335 29.4212 80.3842 29.5441 80.3432 29.6506C80.3023 29.7571 80.1794 29.8062 80.0729 29.7653C80.0156 29.7407 74.454 27.4882 69.8016 29.6588C67.246 30.8464 65.4113 33.1399 64.3547 36.4818C60.6524 48.1701 68.1634 63.8392 68.2453 63.9949C68.2945 64.0932 68.2535 64.216 68.147 64.2652C68.1143 64.2733 68.0815 64.2815 68.0488 64.2815Z" fill="#263238"/>
</g>
<path id="Vector_7" d="M68.351 70.4168C68.351 70.4168 66.3361 88.5596 65.6808 90.722C65.0255 92.8843 55.7944 104.433 55.7944 104.433L58.4155 105.801C58.4155 105.801 68.2773 95.6938 69.809 92.696C71.3407 89.6981 73.7078 74.0536 73.7078 74.0536L68.351 70.4168Z" fill="#EBB376"/>
<path id="Vector_8" d="M77.3853 78.4028L76.8775 78.3209L69.6613 77.1414L65.8198 76.5189C65.8198 76.5189 66.1556 65.5022 70.1937 62.3487L74.0762 65.9445L77.3853 78.4028Z" fill="#00B0DC"/>
<path id="Vector_9" opacity="0.2" d="M76.8785 78.3207L69.6623 77.1412C69.0972 72.1121 71.5954 66.7634 71.5954 66.7634C74.8226 68.934 76.6164 74.168 76.8785 78.3207Z" fill="black"/>
<g id="Group_6">
<path id="Vector_10" d="M83.5969 94.7926L77.4783 104.482C65.3313 101.657 26.4001 95.7182 21.6248 109.069C15.6865 125.672 58.623 138.9 82.3847 139.711C106.146 140.522 125.215 126.991 110.193 92.3517L83.5969 94.7926Z" fill="#263238"/>
<path id="Vector_11" opacity="0.2" d="M83.5969 94.7926L77.4783 104.482C65.3313 101.657 26.4001 95.7182 21.6248 109.069C15.6865 125.672 58.623 138.9 82.3847 139.711C106.146 140.522 125.215 126.991 110.193 92.3517L83.5969 94.7926Z" fill="black"/>
</g>
<path id="Vector_12" d="M27.0379 131.578C26.6857 131.308 26.4236 130.931 26.2926 130.505C26.2434 130.219 26.3499 129.924 26.5711 129.735C26.6939 129.604 26.8741 129.555 27.0461 129.596C27.8406 129.834 28.627 132.119 28.7089 132.389C28.7334 132.438 28.7171 132.504 28.6679 132.537C28.6188 132.578 28.5451 132.577 28.4959 132.545C27.9799 132.274 27.4884 131.947 27.0379 131.578ZM27.169 129.997C27.1116 129.948 27.0543 129.915 26.9888 129.891C26.9233 129.866 26.8495 129.891 26.8004 129.948C26.6366 130.071 26.5547 130.276 26.5956 130.472C26.9478 131.201 27.5458 131.775 28.2911 132.102C28.0454 131.341 27.6686 130.628 27.169 129.997Z" fill="#263238"/>
<path id="Vector_13" d="M28.464 132.544L28.4476 132.471C28.1691 131.766 28.0954 129.915 28.6688 129.514C28.8654 129.383 29.1275 129.407 29.2995 129.571C29.4961 129.702 29.6353 129.907 29.6763 130.145C29.8565 131.078 28.7589 132.463 28.6852 132.528C28.6524 132.577 28.5869 132.594 28.5377 132.569C28.5132 132.569 28.4886 132.561 28.464 132.544ZM29.1602 129.858L29.1029 129.817C28.9309 129.694 28.8654 129.751 28.8244 129.768C28.4886 130.005 28.4313 131.299 28.6115 132.094C28.9063 131.668 29.4633 130.783 29.3486 130.194C29.3322 130.063 29.2585 129.94 29.1602 129.858Z" fill="#263238"/>
<path id="Vector_14" d="M71.0823 137.992C71.2625 138.401 71.3116 138.852 71.2133 139.294C71.1151 139.573 70.8857 139.777 70.599 139.827C70.427 139.876 70.2468 139.835 70.1158 139.72C69.5342 139.122 69.952 136.747 70.0093 136.476C70.0175 136.419 70.0584 136.378 70.1158 136.37C70.1813 136.362 70.2386 136.395 70.2714 136.444C70.5908 136.927 70.8611 137.443 71.0823 137.992ZM70.2059 139.302C70.2304 139.368 70.2632 139.433 70.3123 139.482C70.3615 139.532 70.4352 139.556 70.5007 139.523C70.7055 139.499 70.8693 139.36 70.9267 139.163C70.9676 138.352 70.7219 137.558 70.2386 136.919C70.083 137.705 70.0748 138.516 70.2059 139.302Z" fill="#263238"/>
<path id="Vector_15" d="M54.7112 124.411L64.491 127.892L69.1844 129.563L67.9804 134.707L63.4344 133.733L52.3276 131.365L54.7112 124.411Z" fill="#EBB376"/>
<path id="Vector_16" d="M66.7047 134.945L67.5238 128.883C67.573 128.548 67.8842 128.31 68.22 128.367L71.2097 128.867C71.2097 128.867 75.2806 129.252 76.0914 130.292C78.4586 133.339 76.9761 146.797 75.4034 147.272C74.8301 147.444 74.2157 146.658 73.97 146.109C73.1755 144.372 71.7667 139.843 71.0868 138.401C70.2923 136.722 68.1054 135.895 67.1225 135.6C66.8358 135.518 66.6638 135.239 66.7047 134.945Z" fill="#00B0DC"/>
<path id="Vector_17" d="M70.3015 136.452L70.2851 136.525C70.195 137.279 69.3514 138.933 68.6552 139.007C68.4176 139.023 68.1965 138.876 68.1309 138.647C68.0245 138.434 67.9999 138.188 68.0736 137.959C68.3685 137.049 69.9985 136.37 70.0968 136.353C70.1459 136.329 70.2114 136.345 70.2442 136.386C70.2688 136.402 70.2934 136.427 70.3015 136.452ZM68.3849 138.467L68.4094 138.532C68.4995 138.72 68.5896 138.704 68.6306 138.704C69.0401 138.663 69.72 137.549 69.9411 136.771C69.4743 137 68.5651 137.508 68.3767 138.082C68.3439 138.204 68.3439 138.344 68.3849 138.467Z" fill="#263238"/>
<path id="Vector_18" opacity="0.2" d="M54.7112 124.411L64.491 127.892L63.4344 133.733L52.3276 131.365L54.7112 124.411Z" fill="black"/>
<g id="Group_7">
<path id="Vector_19" d="M61.7 134.617L58.8823 134.814L60.7662 125.14L63.9525 126.909L61.7 134.617Z" fill="#00B0DC"/>
<path id="Vector_20" opacity="0.6" d="M61.7 134.617L58.8823 134.814L60.7662 125.14L63.9525 126.909L61.7 134.617Z" fill="white"/>
</g>
<path id="Vector_21" opacity="0.2" d="M102.493 97.0209L87.8474 113.255C87.8474 113.255 71.654 112.895 51.996 122.503C51.996 122.503 30.8963 113.788 28.9633 106.547C26.4241 97.0618 77.4696 104.475 77.4696 104.475L102.493 97.0209Z" fill="black"/>
<g id="Group_8">
<path id="Vector_22" d="M33.8018 108.488L33.8018 110.896C33.8018 111.51 34.5307 111.764 35.1369 111.764L83.2254 111.764C83.8397 111.764 84.5851 111.51 84.5851 110.896L84.5851 108.488L33.8018 108.488Z" fill="#263238"/>
<path id="Vector_23" opacity="0.4" d="M33.8018 108.488L33.8018 110.896C33.8018 111.51 34.5307 111.764 35.1369 111.764L83.2254 111.764C83.8397 111.764 84.5851 111.51 84.5851 110.896L84.5851 108.488L33.8018 108.488Z" fill="white"/>
<path id="Vector_24" opacity="0.2" d="M33.8018 108.488L33.8018 110.896C33.8018 111.51 34.5307 111.764 35.1369 111.764L66.8519 111.764C67.4662 111.764 68.2034 111.51 68.2034 110.896L68.2034 108.488L33.8018 108.488Z" fill="black"/>
<path id="Vector_25" d="M25.759 83.5061L31.4844 109.471C31.6728 110.323 32.5001 110.945 33.3438 110.945L64.6165 110.945C65.4519 110.945 65.9843 110.167 65.7878 109.315L60.0705 83.547C59.874 82.6952 59.0549 82.2775 58.2112 82.2775L26.9385 82.2775C26.0948 82.2775 25.5706 82.6624 25.759 83.5061Z" fill="#263238"/>
<path id="Vector_26" opacity="0.4" d="M25.759 83.5061L31.4844 109.471C31.6728 110.323 32.5001 110.945 33.3438 110.945L63.5516 110.945C64.3953 110.945 64.9195 110.167 64.7311 109.315L59.0057 83.547C58.8173 82.6952 57.99 82.2775 57.1464 82.2775L26.9385 82.2775C26.0948 82.2775 25.5706 82.6624 25.759 83.5061Z" fill="white"/>
<path id="Vector_27" opacity="0.2" d="M41.1733 96.7017C41.1733 98.9296 43.5569 100.74 45.3015 100.74C47.0462 100.74 48.0864 98.9296 47.5868 96.7099C47.0871 94.5311 45.3507 92.7537 43.6388 92.6882C44.1384 94.9079 43.0736 96.7099 41.329 96.7099C41.2962 96.7099 41.1733 96.7099 41.1733 96.7017Z" fill="black"/>
</g>
<path id="Vector_28" d="M47.9254 135.534L37.6868 137.222L32.7723 138.033L31.3389 132.954L35.7865 131.595L46.6476 128.294L47.9254 135.534Z" fill="#EBB376"/>
<path id="Vector_29" d="M32.336 132.119L34.5475 137.82C34.6704 138.139 34.5066 138.491 34.1871 138.606L31.3285 139.622C31.3285 139.622 27.5853 141.26 26.3648 140.736C22.8182 139.212 17.6006 126.721 18.7473 125.542C19.1651 125.107 20.0825 125.509 20.5657 125.861C22.1056 126.991 25.5212 130.284 26.8153 131.21C28.3307 132.291 30.6405 131.955 31.6398 131.742C31.9428 131.685 32.2295 131.84 32.336 132.119Z" fill="#00B0DC"/>
<path id="Vector_30" opacity="0.2" d="M47.9235 135.534L37.685 137.222L35.7847 131.595L46.6457 128.294L47.9235 135.534Z" fill="black"/>
<path id="Vector_31" d="M37.5493 130.538C37.5493 130.538 79.2981 107.063 93.7059 107.734C108.114 108.406 110.194 121.102 104.247 129.055C98.3009 137.009 87.3252 138.942 87.3252 138.942C87.3252 138.942 94.7953 128.384 93.7141 125.41C92.6329 122.437 88.4064 126.582 88.4064 126.582C88.4064 126.582 62.1383 135.067 39.1629 137.009L37.5493 130.538Z" fill="#263238"/>
<g id="Group_9">
<path id="Vector_32" d="M36.8667 129.89L39.2257 128.301L42.2645 137.631L38.6195 137.631L36.8667 129.89Z" fill="#00B0DC"/>
<path id="Vector_33" opacity="0.6" d="M36.8667 129.89L39.2257 128.301L42.2645 137.631L38.6195 137.631L36.8667 129.89Z" fill="white"/>
</g>
<g id="Group_10">
<path id="Vector_34" d="M110.176 92.3605L83.5805 94.8014C83.5805 94.8014 79.4114 86.1682 76.2169 82.8018C73.0307 79.4272 70.1885 62.3492 70.1885 62.3492C72.4328 61.2598 74.6689 60.367 76.8558 59.6299C85.3334 56.7549 93.0246 56.2306 97.2019 56.2061L97.3494 56.2061C99.3316 56.1979 100.478 56.3044 100.478 56.3044C101.134 56.6648 101.764 57.4183 102.37 58.4586C105.221 63.3731 107.49 74.8403 108.833 83.0721C109.701 88.388 110.176 92.3605 110.176 92.3605Z" fill="#00B0DC"/>
<path id="Vector_35" opacity="0.2" d="M108.836 83.0722C102.972 80.3856 94.9691 75.8396 95.3868 71.2282C95.8373 66.1662 99.9409 61.0715 102.374 58.4586C105.224 63.3731 107.493 74.8403 108.836 83.0722Z" fill="black"/>
<path id="Vector_36" opacity="0.4" d="M93.4557 79.7141C94.799 83.572 93.0052 87.2743 89.4586 87.9705C85.9119 88.6667 81.9476 86.1112 80.6043 82.2451C79.261 78.3872 81.0547 74.6849 84.6014 73.9887C88.1562 73.2843 92.1206 75.848 93.4557 79.7141Z" fill="white"/>
<path id="Vector_37" d="M84.3623 84.3674L85.2253 77.8148L90.915 83.4774L84.3623 84.3674Z" fill="#00B0DC"/>
</g>
<path id="Vector_38" d="M97.3544 56.2056C97.0841 57.4178 95.8964 61.9228 92.7757 65.1582C92.2678 65.6824 91.7109 66.182 91.0966 66.608C89.5813 67.6973 87.7219 68.4591 85.4531 68.5901C81.7918 68.8113 79.8341 67.2141 78.6874 65.2155C78.0321 64.0606 77.639 62.7746 77.3523 61.6279C77.1639 60.8826 77.0165 60.1863 76.8608 59.6293C77.295 59.4819 77.7209 59.3427 78.1468 59.2116C78.7939 59.0068 79.4246 58.8185 80.0553 58.6383C84.7568 57.3277 89.0898 56.697 92.5463 56.4103C93.1525 56.3694 93.7258 56.3284 94.2664 56.2957C95.3804 56.2383 96.3633 56.2138 97.2069 56.2056L97.3544 56.2056Z" fill="#EBB376"/>
<path id="Vector_39" d="M81.412 57.9421C81.3628 59.6048 80.4291 59.9898 80.4291 59.9898C80.0851 63.045 82.7389 64.0033 84.0658 63.8641C89.2834 63.3317 90.9379 57.0493 90.9379 57.0493C87.1374 55.5422 86.2855 51.3566 86.1299 48.8666C86.0562 47.7035 86.1299 46.909 86.1299 46.909L79.0366 51.3812C79.741 52.5689 80.2489 53.5927 80.6257 54.4855C81.2318 56.009 81.4283 57.123 81.412 57.9421Z" fill="#EBB376"/>
<path id="Vector_40" opacity="0.2" d="M79.4653 50.824C80.0469 52.0772 80.4401 53.1502 80.7267 54.0758C81.1854 55.6484 81.2755 56.7869 81.169 57.5897C85.158 57.9009 86.7388 49.0957 86.7388 49.0957L86.7716 49.0466C86.8125 47.8835 86.9682 47.1053 86.9682 47.1053L79.4653 50.824Z" fill="black"/>
<g id="Group_11">
<path id="Vector_41" d="M73.6804 33.0993C66.8164 35.188 65.7271 39.5373 67.3816 46.7617C69.4457 55.788 73.32 61.4724 81.3225 56.9675C92.1999 50.8571 85.0739 29.6264 73.6804 33.0993Z" fill="#EBB376"/>
<path id="Vector_42" d="M71.6997 45.0251C71.6997 45.0251 71.2983 47.1056 70.5693 48.4817C70.5693 48.4817 71.4376 49.2353 72.6171 48.7028L71.6997 45.0251Z" fill="#D58745"/>
<g id="Group_12">
<path id="Vector_43" d="M75.7303 43.191C75.8859 43.7562 76.3282 44.133 76.705 44.0265C77.0818 43.92 77.262 43.3712 77.1064 42.8061C76.9507 42.2409 76.5084 41.8641 76.1316 41.9706C75.7549 42.0771 75.5746 42.6177 75.7303 43.191Z" fill="#263238"/>
<path id="Vector_44" d="M76.2941 41.9539L74.9263 41.8147C74.9263 41.8147 75.8273 42.6829 76.2941 41.9539Z" fill="#263238"/>
</g>
<g id="Group_13">
<path id="Vector_45" d="M68.6484 45.0415C68.8041 45.6067 69.2464 45.9835 69.6231 45.877C69.9999 45.7705 70.1801 45.2218 70.0245 44.6566C69.8689 44.0914 69.4266 43.7146 69.0498 43.8211C68.6648 43.9276 68.4846 44.4764 68.6484 45.0415Z" fill="#263238"/>
<path id="Vector_46" d="M69.2038 43.8045L67.8359 43.6652C67.8359 43.6652 68.7451 44.5335 69.2038 43.8045Z" fill="#263238"/>
</g>
<path id="Vector_47" d="M77.6538 38.8577C77.5965 38.8577 77.5392 38.8414 77.49 38.8086C76.2041 37.9486 74.5004 38.6939 74.484 38.7021C74.3365 38.7676 74.1564 38.7021 74.0908 38.5547C74.0253 38.4072 74.0908 38.227 74.2383 38.1615C74.3202 38.1288 76.2614 37.2687 77.8177 38.3171C77.9569 38.4072 77.9897 38.5956 77.8996 38.7267C77.8422 38.8086 77.7521 38.8577 77.6538 38.8577Z" fill="#263238"/>
<path id="Vector_48" d="M66.7219 41.3554C66.6564 41.3554 66.5909 41.3309 66.5335 41.2899C66.4107 41.1834 66.3861 40.995 66.4926 40.8722C67.7867 39.2995 69.2447 39.3569 69.302 39.3651C69.4659 39.3732 69.5887 39.5125 69.5805 39.6763C69.5723 39.8401 69.4331 39.9548 69.2693 39.9548C69.2201 39.9384 68.0406 39.9138 66.9512 41.249C66.8939 41.3145 66.8038 41.3554 66.7219 41.3554Z" fill="#263238"/>
<path id="Vector_49" d="M84.7082 42.3799C84.7082 42.3799 79.7773 37.7193 78.9418 33.2225C78.9418 33.2225 63.6495 31.8137 67.1879 45.82C67.1879 45.82 62.126 33.9679 73.8307 30.1018C85.5273 26.2357 90.7531 43.502 86.2317 50.5052C86.2317 50.497 87.7634 45.2958 84.7082 42.3799Z" fill="#263238"/>
<path id="Vector_50" d="M84.0296 44.1653C83.7347 43.0431 84.3081 40.8316 86.4295 40.4302C88.6247 40.0125 90.9673 44.067 86.0036 46.729C85.291 47.114 84.6357 46.4996 84.0296 44.1653Z" fill="#EBB376"/>
<path id="Vector_51" d="M74.1977 51.7992C74.0339 51.7992 73.9028 51.6681 73.9028 51.5125C73.9028 51.3487 74.0257 51.2094 74.1895 51.2094C77.0399 51.1439 77.3921 48.6129 77.4003 48.5064C77.4167 48.3426 77.5723 48.228 77.7279 48.2525C77.8918 48.2689 78.0064 48.4245 77.9819 48.5802C77.9901 48.6129 77.5641 51.7255 74.1977 51.7992C74.2059 51.7992 74.2059 51.7992 74.1977 51.7992Z" fill="#263238"/>
<path id="Vector_52" d="M94.6945 49.7026C94.5962 49.7026 94.5143 49.6289 94.4897 49.5306C94.4815 49.4897 93.728 45.7382 86.5036 43.6414C78.9926 41.4544 78.4766 32.4445 78.4766 32.3544C78.4684 32.2397 78.5585 32.1496 78.6732 32.1414C78.796 32.1496 78.8861 32.2233 78.8861 32.338C78.8943 32.4281 79.394 41.1514 86.6183 43.2482C94.1129 45.427 94.8583 49.3013 94.8911 49.4651C94.9075 49.5716 94.8337 49.6781 94.7273 49.7026C94.7191 49.7026 94.7109 49.7026 94.6945 49.7026Z" fill="#263238"/>
</g>
<path id="Vector_53" d="M97.3567 65.2565C97.3567 65.2565 96.4885 82.7604 95.0141 86.6838C93.5398 90.6072 78.0672 105.105 78.0672 105.105C78.0672 105.105 73.7507 104.139 73.0299 104.425C72.3173 104.704 68.1973 108.488 68.1973 108.488L80.0986 108.488L81.1388 106.645C81.1388 106.645 97.152 94.7846 98.9048 91.9587C100.207 89.8701 104.384 68.5984 104.384 68.5984L97.3567 65.2565Z" fill="#EBB376"/>
<path id="Vector_54" d="M100.484 56.3041C111.255 58.9415 106.218 75.1021 106.218 75.1021L95.0127 72.3582C95.0127 72.3582 95.0127 54.9608 100.484 56.3041Z" fill="#00B0DC"/>
<g id="Group_14">
<path id="Vector_55" d="M92.7801 65.1582C92.2722 65.6824 91.7153 66.1821 91.101 66.608C90.3064 62.1604 91.7398 58.196 92.5507 56.4104C93.1568 56.3694 93.7302 56.3285 94.2708 56.2957C92.9029 59.3837 92.6982 62.7911 92.7801 65.1582Z" fill="#263238"/>
<path id="Vector_56" d="M80.0594 58.6385C79.1339 60.8501 78.7817 63.209 78.6916 65.2158C78.0363 64.0609 77.6431 62.7749 77.3564 61.6282C77.594 60.6863 77.8807 59.8672 78.151 59.2119C78.798 59.0071 79.4287 58.8187 80.0594 58.6385Z" fill="#263238"/>
<path id="Vector_57" opacity="0.4" d="M92.7801 65.1582C92.2722 65.6824 91.7153 66.1821 91.101 66.608C90.3064 62.1604 91.7398 58.196 92.5507 56.4104C93.1568 56.3694 93.7302 56.3285 94.2708 56.2957C92.9029 59.3837 92.6982 62.7911 92.7801 65.1582Z" fill="white"/>
<path id="Vector_58" opacity="0.4" d="M80.0594 58.6385C79.1339 60.8501 78.7817 63.209 78.6916 65.2158C78.0363 64.0609 77.6431 62.7749 77.3564 61.6282C77.594 60.6863 77.8807 59.8672 78.151 59.2119C78.798 59.0071 79.4287 58.8187 80.0594 58.6385Z" fill="white"/>
</g>
</g>
</g>
</g>
</svg>
