<svg width="130" height="149" viewBox="0 0 130 149" fill="none" xmlns="http://www.w3.org/2000/svg">
<g opacity="0.5">
<path d="M86.1132 89.6235L86.7641 89.2844L86.5187 88.5942C85.6758 86.2463 84.9623 84.1831 84.3397 82.3673C81.4767 74.0427 80.2911 70.5988 76.0013 68.116C71.5782 65.5599 66.953 64.9164 62.4716 64.2931C57.7404 63.6287 52.8506 62.9519 48.1978 59.9733C43.7245 57.12 41.4977 52.5541 42.3847 48.0494C43.4458 42.674 48.5666 38.6457 56.1012 37.2788C60.5925 36.4606 63.7727 36.4302 66.1003 36.4065C72.9321 36.3378 73.0015 35.5217 74.2686 21.9063C74.3998 20.4968 74.5437 18.9474 74.7076 17.2355L74.7783 16.4948L74.0474 16.3334C54.5784 12.0286 36.1423 17.1731 24.7405 30.0859C16.4011 39.5292 13.5899 51.2763 17.2204 61.5124C21.3497 73.1437 33.2099 81.1561 50.6067 84.058C61.9348 85.9555 63.7507 90.3171 64.9571 93.1984C65.5465 94.6035 66.1008 95.9412 67.5432 96.4643C69.9727 97.3481 74.4877 95.6806 86.1132 89.6235ZM48.6499 37.9841C44.3632 40.2175 41.5297 43.6152 40.7229 47.7262C39.7003 52.9199 42.2099 58.1565 47.282 61.3922C52.2436 64.5618 57.3226 65.2732 62.2352 65.9572C66.7508 66.5912 71.0167 67.1842 75.154 69.5752C78.9066 71.7387 79.9496 74.7812 82.7415 82.9146C83.3047 84.5616 83.939 86.3998 84.6753 88.4702C74.5418 93.7215 69.8782 95.5236 68.1093 94.8852C67.3957 94.6293 67.0667 93.9065 66.5046 92.5538C65.1566 89.3277 63.117 84.4455 50.8733 82.3972C34.1008 79.5981 22.7112 71.9778 18.7994 60.9465C15.3825 51.303 18.0721 40.1805 26.008 31.2042C36.8544 18.9232 54.365 13.9375 72.9553 17.8156C72.8205 19.2365 72.6952 20.5478 72.5869 21.7457C71.9823 28.2529 71.6496 31.8316 70.8117 33.4C70.1604 34.6145 69.1504 34.6842 66.0759 34.7166C63.6917 34.7412 60.4247 34.7693 55.7867 35.6163C53.1197 36.1023 50.7147 36.9083 48.6499 37.9841Z" fill="white"/>
<path d="M95.2702 124.907C101.225 121.804 105.672 114.694 101.365 106.427C97.0695 98.1829 88.7015 97.7678 82.7466 100.87C76.5672 104.09 72.4532 111.475 76.5576 119.352C80.6737 127.252 89.0833 128.131 95.2702 124.907ZM83.5148 102.363C88.7515 99.6346 96.0998 99.9912 99.8573 107.203C103.63 114.445 99.716 120.679 94.4792 123.407C89.2051 126.155 81.8155 125.811 78.0424 118.569C74.2924 111.353 78.2481 105.107 83.5148 102.363Z" fill="white"/>
<path d="M87.9176 93.0872L91.5908 91.1734L90.1902 87.2804C89.3552 84.9475 88.6534 82.9066 88.0271 81.1022C85.0136 72.3424 83.5066 67.9531 77.9406 64.737C77.8073 64.6637 77.6701 64.583 77.5368 64.5098L76.7162 65.9836L77.0933 66.1962C82.1107 69.0894 83.5465 73.2875 86.4289 81.6496C87.0477 83.4578 87.7574 85.5136 88.5924 87.8465L89.4907 90.3557L87.1267 91.5874C74.5435 98.1435 69.974 99.7063 66.774 98.5485C65.7984 98.1912 65.0079 97.6234 64.3564 96.7929L63.0343 97.8336C63.8863 98.9211 64.9251 99.6735 66.2005 100.131C69.9964 101.502 74.6611 99.9941 87.9176 93.0872Z" fill="white"/>
<path d="M45.9542 54.8455L47.3533 53.8978C47.1791 53.6366 47.0164 53.379 46.8761 53.1097C46.3109 52.0249 46.0543 50.8935 46.1067 49.7343C46.244 46.657 48.7139 43.8577 52.7469 42.2511L52.1209 40.6844C47.4394 42.5433 44.5825 45.8961 44.4227 49.6605C44.3565 51.1218 44.6782 52.5426 45.3798 53.8892C45.5474 54.2109 45.7339 54.5323 45.9542 54.8455Z" fill="white"/>
<path d="M72.5542 39.2455C76.781 37.0433 77.1592 33.0225 78.1495 22.2717C78.2807 20.8621 78.4247 19.3128 78.5924 17.6083L78.998 13.4211L74.8929 12.5161C65.7777 10.5023 56.9468 10.3855 48.6569 12.165L49.0127 13.8154C57.0658 12.0927 65.6476 12.2062 74.5281 14.171L77.1714 14.7532L76.9108 17.4477C76.7469 19.1597 76.6029 20.709 76.4717 22.1185C75.5089 32.484 75.1785 35.9758 71.7746 37.7493C70.9218 38.1937 69.9637 38.436 68.675 38.5367L68.8087 40.2173C70.3347 40.0975 71.4919 39.799 72.5542 39.2455Z" fill="white"/>
<path d="M35.5542 83.9392L36.196 82.3777C27.1281 78.6842 20.4046 73.0274 16.7445 66.0027C15.7935 64.1773 15.0366 62.2317 14.4902 60.2335L12.8637 60.6719C13.4348 62.7904 14.2388 64.8446 15.2483 66.7822C19.0841 74.1625 26.1102 80.0897 35.5542 83.9392Z" fill="white"/>
<path d="M96.9961 128.402L97.0709 128.363C104.934 124.267 110.126 114.789 104.825 104.615C103.85 102.745 102.646 101.108 101.25 99.7619L100.074 100.974C101.34 102.198 102.428 103.685 103.321 105.398C108.111 114.593 103.406 123.16 96.2839 126.871L96.9961 128.402ZM78.5244 127.563L79.5052 126.196C77.5043 124.766 75.8493 122.812 74.5825 120.381C72.9299 117.209 72.3253 113.986 72.793 110.812L71.125 110.568C70.6067 114.101 71.2661 117.667 73.0863 121.161C74.4814 123.82 76.3096 125.978 78.5244 127.563Z" fill="white"/>
</g>
</svg>
