<svg width="25" height="21" viewBox="0 0 25 21" fill="none" xmlns="http://www.w3.org/2000/svg">
<g id="Group 1000019256">
<path id="Vector" fill-rule="evenodd" clip-rule="evenodd" d="M9.52778 21H14.9722C18.7955 21 20.7072 21 22.0804 20.142C22.6747 19.7706 23.1852 19.2933 23.5825 18.7375C24.5 17.4534 24.5 15.6659 24.5 12.0909C24.5 8.51597 24.5 6.72841 23.5825 5.44437C23.1852 4.8885 22.6747 4.41121 22.0804 4.03979C21.1979 3.48848 20.0933 3.29143 18.4019 3.221C17.5948 3.221 16.9 2.64913 16.7417 1.90909C16.5042 0.799038 15.4618 0 14.2513 0H10.2487C9.03811 0 7.99576 0.799038 7.75833 1.90909C7.60005 2.64913 6.90514 3.221 6.09805 3.221C4.40673 3.29143 3.30205 3.48848 2.41967 4.03979C1.82519 4.41121 1.31477 4.8885 0.91755 5.44437C1.46031e-07 6.72841 0 8.51597 0 12.0909C0 15.6659 1.46031e-07 17.4534 0.91755 18.7375C1.31477 19.2933 1.82519 19.7706 2.41967 20.142C3.79289 21 5.70452 21 9.52778 21ZM12.25 7.31818C9.43104 7.31818 7.14583 9.45502 7.14583 12.0909C7.14583 14.7268 9.43104 16.8636 12.25 16.8636C15.069 16.8636 17.3542 14.7268 17.3542 12.0909C17.3542 9.45502 15.069 7.31818 12.25 7.31818ZM12.25 9.22728C10.5586 9.22728 9.1875 10.5093 9.1875 12.0909C9.1875 13.6724 10.5586 14.9546 12.25 14.9546C13.9414 14.9546 15.3125 13.6724 15.3125 12.0909C15.3125 10.5093 13.9414 9.22728 12.25 9.22728ZM18.0347 8.27272C18.0347 7.74555 18.4917 7.31818 19.0556 7.31818H20.4167C20.9805 7.31818 21.4375 7.74555 21.4375 8.27272C21.4375 8.79993 20.9805 9.22728 20.4167 9.22728H19.0556C18.4917 9.22728 18.0347 8.79993 18.0347 8.27272Z" fill="#007490"/>
</g>
</svg>
