<svg width="16" height="16" viewBox="0 0 16 16" fill="none" xmlns="http://www.w3.org/2000/svg">
<g id="Frame 1000019120">
<g id="Group 1000019304">
<path id="Vector" fill-rule="evenodd" clip-rule="evenodd" d="M15.3034 1.364H9.51486V0L0 1.46857V14.3411L9.51486 15.98V13.9583H15.3034C15.4787 13.9672 15.6504 13.9063 15.781 13.7889C15.9115 13.6715 15.9903 13.5073 16 13.332V1.98971C15.9901 1.81455 15.9113 1.65042 15.7808 1.53318C15.6503 1.41594 15.4786 1.35512 15.3034 1.364ZM15.3949 13.436H9.49543L9.48571 12.3566H10.9069V11.0994H9.47486L9.468 10.3566H10.9069V9.09943H9.45714L9.45029 8.35657H10.9069V7.09943H9.44571V6.35657H10.9069V5.09943H9.44571V4.35657H10.9069V3.09943H9.44571V1.95657H15.3949V13.436Z" fill="#00B0DC"/>
<path id="Vector_2" d="M14.1772 3.09778H11.7069V4.35492H14.1772V3.09778Z" fill="#00B0DC"/>
<path id="Vector_3" d="M14.1772 5.09827H11.7069V6.35541H14.1772V5.09827Z" fill="#00B0DC"/>
<path id="Vector_4" d="M14.1772 7.09888H11.7069V8.35602H14.1772V7.09888Z" fill="#00B0DC"/>
<path id="Vector_5" d="M14.1772 9.09949H11.7069V10.3566H14.1772V9.09949Z" fill="#00B0DC"/>
<path id="Vector_6" d="M14.1772 11.1H11.7069V12.3571H14.1772V11.1Z" fill="#00B0DC"/>
<path id="Vector_7" fill-rule="evenodd" clip-rule="evenodd" d="M2.48405 4.94577L3.71033 4.87549L4.48119 6.99492L5.39205 4.78806L6.61833 4.71777L5.12919 7.72692L6.61833 10.7435L5.32176 10.6561L4.44633 8.35663L3.57033 10.5686L2.37891 10.4635L3.76291 7.79892L2.48405 4.94577Z" fill="white"/>
</g>
</g>
</svg>
